G75*
%MOIN*%
%OFA0B0*%
%FSLAX25Y25*%
%IPPOS*%
%LPD*%
%AMOC8*
5,1,8,0,0,1.08239X$1,22.5*
%
%ADD10C,0.00000*%
%ADD11C,0.00600*%
%ADD12C,0.00500*%
%ADD13C,0.01200*%
%ADD14C,0.00400*%
%ADD15C,0.00800*%
%ADD16C,0.01000*%
%ADD17R,0.02000X0.01500*%
%ADD18R,0.01500X0.02000*%
%ADD19C,0.00200*%
D10*
X0009867Y0006093D02*
X0009867Y0202943D01*
X0206717Y0202943D01*
X0206717Y0006093D01*
X0009867Y0006093D01*
D11*
X0024749Y0044580D02*
X0024658Y0044705D01*
X0024564Y0044827D01*
X0024466Y0044946D01*
X0024366Y0045063D01*
X0024262Y0045177D01*
X0024156Y0045289D01*
X0024047Y0045397D01*
X0023935Y0045503D01*
X0023820Y0045606D01*
X0023703Y0045706D01*
X0023583Y0045804D01*
X0023461Y0045897D01*
X0023337Y0045988D01*
X0023210Y0046076D01*
X0023081Y0046160D01*
X0022949Y0046241D01*
X0022816Y0046318D01*
X0022681Y0046392D01*
X0022544Y0046463D01*
X0022405Y0046530D01*
X0022265Y0046593D01*
X0022122Y0046653D01*
X0021979Y0046709D01*
X0021834Y0046761D01*
X0021688Y0046810D01*
X0021540Y0046855D01*
X0021392Y0046896D01*
X0021242Y0046933D01*
X0021092Y0046967D01*
X0020940Y0046996D01*
X0020788Y0047022D01*
X0020636Y0047044D01*
X0020483Y0047061D01*
X0020329Y0047075D01*
X0020175Y0047085D01*
X0020021Y0047091D01*
X0019867Y0047093D01*
X0015131Y0037410D02*
X0015225Y0037291D01*
X0015323Y0037175D01*
X0015423Y0037061D01*
X0015527Y0036950D01*
X0015633Y0036842D01*
X0015741Y0036736D01*
X0015853Y0036634D01*
X0015967Y0036534D01*
X0016083Y0036436D01*
X0016202Y0036342D01*
X0016323Y0036251D01*
X0016447Y0036163D01*
X0016573Y0036078D01*
X0016700Y0035997D01*
X0016830Y0035918D01*
X0016962Y0035843D01*
X0017095Y0035772D01*
X0017231Y0035703D01*
X0017368Y0035638D01*
X0017506Y0035577D01*
X0017647Y0035519D01*
X0017788Y0035465D01*
X0017931Y0035414D01*
X0018075Y0035367D01*
X0018220Y0035323D01*
X0018367Y0035284D01*
X0018514Y0035248D01*
X0018662Y0035215D01*
X0018811Y0035187D01*
X0018961Y0035162D01*
X0019111Y0035141D01*
X0019261Y0035124D01*
X0019413Y0035110D01*
X0019564Y0035101D01*
X0019715Y0035095D01*
X0019867Y0035093D01*
X0015067Y0044693D02*
X0015159Y0044812D01*
X0015253Y0044929D01*
X0015351Y0045043D01*
X0015451Y0045155D01*
X0015555Y0045265D01*
X0015660Y0045371D01*
X0015769Y0045476D01*
X0015880Y0045577D01*
X0015994Y0045675D01*
X0016110Y0045771D01*
X0016228Y0045864D01*
X0016349Y0045953D01*
X0016472Y0046040D01*
X0016597Y0046123D01*
X0016724Y0046204D01*
X0016853Y0046281D01*
X0016984Y0046355D01*
X0017117Y0046426D01*
X0017251Y0046493D01*
X0017387Y0046557D01*
X0017525Y0046617D01*
X0017664Y0046674D01*
X0017805Y0046727D01*
X0017947Y0046777D01*
X0018090Y0046824D01*
X0018234Y0046866D01*
X0018379Y0046906D01*
X0018525Y0046941D01*
X0018672Y0046973D01*
X0018820Y0047001D01*
X0018968Y0047025D01*
X0019117Y0047046D01*
X0019267Y0047063D01*
X0019416Y0047076D01*
X0019566Y0047085D01*
X0019717Y0047091D01*
X0019867Y0047093D01*
X0024603Y0037410D02*
X0024509Y0037291D01*
X0024411Y0037175D01*
X0024311Y0037061D01*
X0024207Y0036950D01*
X0024101Y0036842D01*
X0023993Y0036736D01*
X0023881Y0036634D01*
X0023767Y0036534D01*
X0023651Y0036436D01*
X0023532Y0036342D01*
X0023411Y0036251D01*
X0023287Y0036163D01*
X0023161Y0036078D01*
X0023034Y0035997D01*
X0022904Y0035918D01*
X0022772Y0035843D01*
X0022639Y0035772D01*
X0022503Y0035703D01*
X0022366Y0035638D01*
X0022228Y0035577D01*
X0022087Y0035519D01*
X0021946Y0035465D01*
X0021803Y0035414D01*
X0021659Y0035367D01*
X0021514Y0035323D01*
X0021367Y0035284D01*
X0021220Y0035248D01*
X0021072Y0035215D01*
X0020923Y0035187D01*
X0020773Y0035162D01*
X0020623Y0035141D01*
X0020473Y0035124D01*
X0020321Y0035110D01*
X0020170Y0035101D01*
X0020019Y0035095D01*
X0019867Y0035093D01*
X0045867Y0042093D02*
X0045867Y0043593D01*
X0046367Y0044093D01*
X0046367Y0058093D01*
X0045867Y0058593D01*
X0045867Y0060093D01*
X0045869Y0060153D01*
X0045874Y0060214D01*
X0045883Y0060273D01*
X0045896Y0060332D01*
X0045912Y0060391D01*
X0045932Y0060448D01*
X0045955Y0060503D01*
X0045982Y0060558D01*
X0046011Y0060610D01*
X0046044Y0060661D01*
X0046080Y0060710D01*
X0046118Y0060756D01*
X0046160Y0060800D01*
X0046204Y0060842D01*
X0046250Y0060880D01*
X0046299Y0060916D01*
X0046350Y0060949D01*
X0046402Y0060978D01*
X0046457Y0061005D01*
X0046512Y0061028D01*
X0046569Y0061048D01*
X0046628Y0061064D01*
X0046687Y0061077D01*
X0046746Y0061086D01*
X0046807Y0061091D01*
X0046867Y0061093D01*
X0052867Y0061093D01*
X0052927Y0061091D01*
X0052988Y0061086D01*
X0053047Y0061077D01*
X0053106Y0061064D01*
X0053165Y0061048D01*
X0053222Y0061028D01*
X0053277Y0061005D01*
X0053332Y0060978D01*
X0053384Y0060949D01*
X0053435Y0060916D01*
X0053484Y0060880D01*
X0053530Y0060842D01*
X0053574Y0060800D01*
X0053616Y0060756D01*
X0053654Y0060710D01*
X0053690Y0060661D01*
X0053723Y0060610D01*
X0053752Y0060558D01*
X0053779Y0060503D01*
X0053802Y0060448D01*
X0053822Y0060391D01*
X0053838Y0060332D01*
X0053851Y0060273D01*
X0053860Y0060214D01*
X0053865Y0060153D01*
X0053867Y0060093D01*
X0053867Y0058593D01*
X0053367Y0058093D01*
X0053367Y0044093D01*
X0053867Y0043593D01*
X0053867Y0042093D01*
X0053865Y0042033D01*
X0053860Y0041972D01*
X0053851Y0041913D01*
X0053838Y0041854D01*
X0053822Y0041795D01*
X0053802Y0041738D01*
X0053779Y0041683D01*
X0053752Y0041628D01*
X0053723Y0041576D01*
X0053690Y0041525D01*
X0053654Y0041476D01*
X0053616Y0041430D01*
X0053574Y0041386D01*
X0053530Y0041344D01*
X0053484Y0041306D01*
X0053435Y0041270D01*
X0053384Y0041237D01*
X0053332Y0041208D01*
X0053277Y0041181D01*
X0053222Y0041158D01*
X0053165Y0041138D01*
X0053106Y0041122D01*
X0053047Y0041109D01*
X0052988Y0041100D01*
X0052927Y0041095D01*
X0052867Y0041093D01*
X0046867Y0041093D01*
X0046807Y0041095D01*
X0046746Y0041100D01*
X0046687Y0041109D01*
X0046628Y0041122D01*
X0046569Y0041138D01*
X0046512Y0041158D01*
X0046457Y0041181D01*
X0046402Y0041208D01*
X0046350Y0041237D01*
X0046299Y0041270D01*
X0046250Y0041306D01*
X0046204Y0041344D01*
X0046160Y0041386D01*
X0046118Y0041430D01*
X0046080Y0041476D01*
X0046044Y0041525D01*
X0046011Y0041576D01*
X0045982Y0041628D01*
X0045955Y0041683D01*
X0045932Y0041738D01*
X0045912Y0041795D01*
X0045896Y0041854D01*
X0045883Y0041913D01*
X0045874Y0041972D01*
X0045869Y0042033D01*
X0045867Y0042093D01*
X0140867Y0086593D02*
X0142867Y0086593D01*
X0141867Y0085593D02*
X0141867Y0087593D01*
X0136867Y0081093D02*
X0136869Y0081289D01*
X0136877Y0081486D01*
X0136889Y0081682D01*
X0136906Y0081877D01*
X0136927Y0082072D01*
X0136954Y0082267D01*
X0136985Y0082461D01*
X0137021Y0082654D01*
X0137061Y0082846D01*
X0137107Y0083037D01*
X0137157Y0083227D01*
X0137211Y0083415D01*
X0137271Y0083602D01*
X0137335Y0083788D01*
X0137403Y0083972D01*
X0137476Y0084154D01*
X0137553Y0084335D01*
X0137635Y0084513D01*
X0137721Y0084690D01*
X0137812Y0084864D01*
X0137906Y0085036D01*
X0138005Y0085206D01*
X0138108Y0085373D01*
X0138215Y0085538D01*
X0138326Y0085699D01*
X0138441Y0085859D01*
X0138560Y0086015D01*
X0138683Y0086168D01*
X0138809Y0086318D01*
X0138939Y0086465D01*
X0139073Y0086609D01*
X0139210Y0086750D01*
X0139351Y0086887D01*
X0139495Y0087021D01*
X0139642Y0087151D01*
X0139792Y0087277D01*
X0139945Y0087400D01*
X0140101Y0087519D01*
X0140261Y0087634D01*
X0140422Y0087745D01*
X0140587Y0087852D01*
X0140754Y0087955D01*
X0140924Y0088054D01*
X0141096Y0088148D01*
X0141270Y0088239D01*
X0141447Y0088325D01*
X0141625Y0088407D01*
X0141806Y0088484D01*
X0141988Y0088557D01*
X0142172Y0088625D01*
X0142358Y0088689D01*
X0142545Y0088749D01*
X0142733Y0088803D01*
X0142923Y0088853D01*
X0143114Y0088899D01*
X0143306Y0088939D01*
X0143499Y0088975D01*
X0143693Y0089006D01*
X0143888Y0089033D01*
X0144083Y0089054D01*
X0144278Y0089071D01*
X0144474Y0089083D01*
X0144671Y0089091D01*
X0144867Y0089093D01*
X0145063Y0089091D01*
X0145260Y0089083D01*
X0145456Y0089071D01*
X0145651Y0089054D01*
X0145846Y0089033D01*
X0146041Y0089006D01*
X0146235Y0088975D01*
X0146428Y0088939D01*
X0146620Y0088899D01*
X0146811Y0088853D01*
X0147001Y0088803D01*
X0147189Y0088749D01*
X0147376Y0088689D01*
X0147562Y0088625D01*
X0147746Y0088557D01*
X0147928Y0088484D01*
X0148109Y0088407D01*
X0148287Y0088325D01*
X0148464Y0088239D01*
X0148638Y0088148D01*
X0148810Y0088054D01*
X0148980Y0087955D01*
X0149147Y0087852D01*
X0149312Y0087745D01*
X0149473Y0087634D01*
X0149633Y0087519D01*
X0149789Y0087400D01*
X0149942Y0087277D01*
X0150092Y0087151D01*
X0150239Y0087021D01*
X0150383Y0086887D01*
X0150524Y0086750D01*
X0150661Y0086609D01*
X0150795Y0086465D01*
X0150925Y0086318D01*
X0151051Y0086168D01*
X0151174Y0086015D01*
X0151293Y0085859D01*
X0151408Y0085699D01*
X0151519Y0085538D01*
X0151626Y0085373D01*
X0151729Y0085206D01*
X0151828Y0085036D01*
X0151922Y0084864D01*
X0152013Y0084690D01*
X0152099Y0084513D01*
X0152181Y0084335D01*
X0152258Y0084154D01*
X0152331Y0083972D01*
X0152399Y0083788D01*
X0152463Y0083602D01*
X0152523Y0083415D01*
X0152577Y0083227D01*
X0152627Y0083037D01*
X0152673Y0082846D01*
X0152713Y0082654D01*
X0152749Y0082461D01*
X0152780Y0082267D01*
X0152807Y0082072D01*
X0152828Y0081877D01*
X0152845Y0081682D01*
X0152857Y0081486D01*
X0152865Y0081289D01*
X0152867Y0081093D01*
X0152865Y0080897D01*
X0152857Y0080700D01*
X0152845Y0080504D01*
X0152828Y0080309D01*
X0152807Y0080114D01*
X0152780Y0079919D01*
X0152749Y0079725D01*
X0152713Y0079532D01*
X0152673Y0079340D01*
X0152627Y0079149D01*
X0152577Y0078959D01*
X0152523Y0078771D01*
X0152463Y0078584D01*
X0152399Y0078398D01*
X0152331Y0078214D01*
X0152258Y0078032D01*
X0152181Y0077851D01*
X0152099Y0077673D01*
X0152013Y0077496D01*
X0151922Y0077322D01*
X0151828Y0077150D01*
X0151729Y0076980D01*
X0151626Y0076813D01*
X0151519Y0076648D01*
X0151408Y0076487D01*
X0151293Y0076327D01*
X0151174Y0076171D01*
X0151051Y0076018D01*
X0150925Y0075868D01*
X0150795Y0075721D01*
X0150661Y0075577D01*
X0150524Y0075436D01*
X0150383Y0075299D01*
X0150239Y0075165D01*
X0150092Y0075035D01*
X0149942Y0074909D01*
X0149789Y0074786D01*
X0149633Y0074667D01*
X0149473Y0074552D01*
X0149312Y0074441D01*
X0149147Y0074334D01*
X0148980Y0074231D01*
X0148810Y0074132D01*
X0148638Y0074038D01*
X0148464Y0073947D01*
X0148287Y0073861D01*
X0148109Y0073779D01*
X0147928Y0073702D01*
X0147746Y0073629D01*
X0147562Y0073561D01*
X0147376Y0073497D01*
X0147189Y0073437D01*
X0147001Y0073383D01*
X0146811Y0073333D01*
X0146620Y0073287D01*
X0146428Y0073247D01*
X0146235Y0073211D01*
X0146041Y0073180D01*
X0145846Y0073153D01*
X0145651Y0073132D01*
X0145456Y0073115D01*
X0145260Y0073103D01*
X0145063Y0073095D01*
X0144867Y0073093D01*
X0144671Y0073095D01*
X0144474Y0073103D01*
X0144278Y0073115D01*
X0144083Y0073132D01*
X0143888Y0073153D01*
X0143693Y0073180D01*
X0143499Y0073211D01*
X0143306Y0073247D01*
X0143114Y0073287D01*
X0142923Y0073333D01*
X0142733Y0073383D01*
X0142545Y0073437D01*
X0142358Y0073497D01*
X0142172Y0073561D01*
X0141988Y0073629D01*
X0141806Y0073702D01*
X0141625Y0073779D01*
X0141447Y0073861D01*
X0141270Y0073947D01*
X0141096Y0074038D01*
X0140924Y0074132D01*
X0140754Y0074231D01*
X0140587Y0074334D01*
X0140422Y0074441D01*
X0140261Y0074552D01*
X0140101Y0074667D01*
X0139945Y0074786D01*
X0139792Y0074909D01*
X0139642Y0075035D01*
X0139495Y0075165D01*
X0139351Y0075299D01*
X0139210Y0075436D01*
X0139073Y0075577D01*
X0138939Y0075721D01*
X0138809Y0075868D01*
X0138683Y0076018D01*
X0138560Y0076171D01*
X0138441Y0076327D01*
X0138326Y0076487D01*
X0138215Y0076648D01*
X0138108Y0076813D01*
X0138005Y0076980D01*
X0137906Y0077150D01*
X0137812Y0077322D01*
X0137721Y0077496D01*
X0137635Y0077673D01*
X0137553Y0077851D01*
X0137476Y0078032D01*
X0137403Y0078214D01*
X0137335Y0078398D01*
X0137271Y0078584D01*
X0137211Y0078771D01*
X0137157Y0078959D01*
X0137107Y0079149D01*
X0137061Y0079340D01*
X0137021Y0079532D01*
X0136985Y0079725D01*
X0136954Y0079919D01*
X0136927Y0080114D01*
X0136906Y0080309D01*
X0136889Y0080504D01*
X0136877Y0080700D01*
X0136869Y0080897D01*
X0136867Y0081093D01*
X0160867Y0055093D02*
X0162367Y0055093D01*
X0162867Y0054593D01*
X0176867Y0054593D01*
X0177367Y0055093D01*
X0178867Y0055093D01*
X0178927Y0055091D01*
X0178988Y0055086D01*
X0179047Y0055077D01*
X0179106Y0055064D01*
X0179165Y0055048D01*
X0179222Y0055028D01*
X0179277Y0055005D01*
X0179332Y0054978D01*
X0179384Y0054949D01*
X0179435Y0054916D01*
X0179484Y0054880D01*
X0179530Y0054842D01*
X0179574Y0054800D01*
X0179616Y0054756D01*
X0179654Y0054710D01*
X0179690Y0054661D01*
X0179723Y0054610D01*
X0179752Y0054558D01*
X0179779Y0054503D01*
X0179802Y0054448D01*
X0179822Y0054391D01*
X0179838Y0054332D01*
X0179851Y0054273D01*
X0179860Y0054214D01*
X0179865Y0054153D01*
X0179867Y0054093D01*
X0179867Y0048093D01*
X0179865Y0048033D01*
X0179860Y0047972D01*
X0179851Y0047913D01*
X0179838Y0047854D01*
X0179822Y0047795D01*
X0179802Y0047738D01*
X0179779Y0047683D01*
X0179752Y0047628D01*
X0179723Y0047576D01*
X0179690Y0047525D01*
X0179654Y0047476D01*
X0179616Y0047430D01*
X0179574Y0047386D01*
X0179530Y0047344D01*
X0179484Y0047306D01*
X0179435Y0047270D01*
X0179384Y0047237D01*
X0179332Y0047208D01*
X0179277Y0047181D01*
X0179222Y0047158D01*
X0179165Y0047138D01*
X0179106Y0047122D01*
X0179047Y0047109D01*
X0178988Y0047100D01*
X0178927Y0047095D01*
X0178867Y0047093D01*
X0177367Y0047093D01*
X0176867Y0047593D01*
X0162867Y0047593D01*
X0162367Y0047093D01*
X0160867Y0047093D01*
X0160807Y0047095D01*
X0160746Y0047100D01*
X0160687Y0047109D01*
X0160628Y0047122D01*
X0160569Y0047138D01*
X0160512Y0047158D01*
X0160457Y0047181D01*
X0160402Y0047208D01*
X0160350Y0047237D01*
X0160299Y0047270D01*
X0160250Y0047306D01*
X0160204Y0047344D01*
X0160160Y0047386D01*
X0160118Y0047430D01*
X0160080Y0047476D01*
X0160044Y0047525D01*
X0160011Y0047576D01*
X0159982Y0047628D01*
X0159955Y0047683D01*
X0159932Y0047738D01*
X0159912Y0047795D01*
X0159896Y0047854D01*
X0159883Y0047913D01*
X0159874Y0047972D01*
X0159869Y0048033D01*
X0159867Y0048093D01*
X0159867Y0054093D01*
X0159869Y0054153D01*
X0159874Y0054214D01*
X0159883Y0054273D01*
X0159896Y0054332D01*
X0159912Y0054391D01*
X0159932Y0054448D01*
X0159955Y0054503D01*
X0159982Y0054558D01*
X0160011Y0054610D01*
X0160044Y0054661D01*
X0160080Y0054710D01*
X0160118Y0054756D01*
X0160160Y0054800D01*
X0160204Y0054842D01*
X0160250Y0054880D01*
X0160299Y0054916D01*
X0160350Y0054949D01*
X0160402Y0054978D01*
X0160457Y0055005D01*
X0160512Y0055028D01*
X0160569Y0055048D01*
X0160628Y0055064D01*
X0160687Y0055077D01*
X0160746Y0055086D01*
X0160807Y0055091D01*
X0160867Y0055093D01*
X0160867Y0040093D02*
X0162367Y0040093D01*
X0162867Y0039593D01*
X0176867Y0039593D01*
X0177367Y0040093D01*
X0178867Y0040093D01*
X0178927Y0040091D01*
X0178988Y0040086D01*
X0179047Y0040077D01*
X0179106Y0040064D01*
X0179165Y0040048D01*
X0179222Y0040028D01*
X0179277Y0040005D01*
X0179332Y0039978D01*
X0179384Y0039949D01*
X0179435Y0039916D01*
X0179484Y0039880D01*
X0179530Y0039842D01*
X0179574Y0039800D01*
X0179616Y0039756D01*
X0179654Y0039710D01*
X0179690Y0039661D01*
X0179723Y0039610D01*
X0179752Y0039558D01*
X0179779Y0039503D01*
X0179802Y0039448D01*
X0179822Y0039391D01*
X0179838Y0039332D01*
X0179851Y0039273D01*
X0179860Y0039214D01*
X0179865Y0039153D01*
X0179867Y0039093D01*
X0179867Y0033093D01*
X0179865Y0033033D01*
X0179860Y0032972D01*
X0179851Y0032913D01*
X0179838Y0032854D01*
X0179822Y0032795D01*
X0179802Y0032738D01*
X0179779Y0032683D01*
X0179752Y0032628D01*
X0179723Y0032576D01*
X0179690Y0032525D01*
X0179654Y0032476D01*
X0179616Y0032430D01*
X0179574Y0032386D01*
X0179530Y0032344D01*
X0179484Y0032306D01*
X0179435Y0032270D01*
X0179384Y0032237D01*
X0179332Y0032208D01*
X0179277Y0032181D01*
X0179222Y0032158D01*
X0179165Y0032138D01*
X0179106Y0032122D01*
X0179047Y0032109D01*
X0178988Y0032100D01*
X0178927Y0032095D01*
X0178867Y0032093D01*
X0177367Y0032093D01*
X0176867Y0032593D01*
X0162867Y0032593D01*
X0162367Y0032093D01*
X0160867Y0032093D01*
X0160807Y0032095D01*
X0160746Y0032100D01*
X0160687Y0032109D01*
X0160628Y0032122D01*
X0160569Y0032138D01*
X0160512Y0032158D01*
X0160457Y0032181D01*
X0160402Y0032208D01*
X0160350Y0032237D01*
X0160299Y0032270D01*
X0160250Y0032306D01*
X0160204Y0032344D01*
X0160160Y0032386D01*
X0160118Y0032430D01*
X0160080Y0032476D01*
X0160044Y0032525D01*
X0160011Y0032576D01*
X0159982Y0032628D01*
X0159955Y0032683D01*
X0159932Y0032738D01*
X0159912Y0032795D01*
X0159896Y0032854D01*
X0159883Y0032913D01*
X0159874Y0032972D01*
X0159869Y0033033D01*
X0159867Y0033093D01*
X0159867Y0039093D01*
X0159869Y0039153D01*
X0159874Y0039214D01*
X0159883Y0039273D01*
X0159896Y0039332D01*
X0159912Y0039391D01*
X0159932Y0039448D01*
X0159955Y0039503D01*
X0159982Y0039558D01*
X0160011Y0039610D01*
X0160044Y0039661D01*
X0160080Y0039710D01*
X0160118Y0039756D01*
X0160160Y0039800D01*
X0160204Y0039842D01*
X0160250Y0039880D01*
X0160299Y0039916D01*
X0160350Y0039949D01*
X0160402Y0039978D01*
X0160457Y0040005D01*
X0160512Y0040028D01*
X0160569Y0040048D01*
X0160628Y0040064D01*
X0160687Y0040077D01*
X0160746Y0040086D01*
X0160807Y0040091D01*
X0160867Y0040093D01*
X0156367Y0151593D02*
X0143367Y0151593D01*
X0143280Y0151595D01*
X0143193Y0151601D01*
X0143106Y0151610D01*
X0143020Y0151623D01*
X0142934Y0151640D01*
X0142849Y0151661D01*
X0142766Y0151686D01*
X0142683Y0151714D01*
X0142602Y0151745D01*
X0142522Y0151780D01*
X0142444Y0151819D01*
X0142367Y0151861D01*
X0142292Y0151906D01*
X0142220Y0151955D01*
X0142149Y0152006D01*
X0142081Y0152061D01*
X0142016Y0152118D01*
X0141953Y0152179D01*
X0141892Y0152242D01*
X0141835Y0152307D01*
X0141780Y0152375D01*
X0141729Y0152446D01*
X0141680Y0152518D01*
X0141635Y0152593D01*
X0141593Y0152670D01*
X0141554Y0152748D01*
X0141519Y0152828D01*
X0141488Y0152909D01*
X0141460Y0152992D01*
X0141435Y0153075D01*
X0141414Y0153160D01*
X0141397Y0153246D01*
X0141384Y0153332D01*
X0141375Y0153419D01*
X0141369Y0153506D01*
X0141367Y0153593D01*
X0141367Y0158593D01*
X0141369Y0158680D01*
X0141375Y0158767D01*
X0141384Y0158854D01*
X0141397Y0158940D01*
X0141414Y0159026D01*
X0141435Y0159111D01*
X0141460Y0159194D01*
X0141488Y0159277D01*
X0141519Y0159358D01*
X0141554Y0159438D01*
X0141593Y0159516D01*
X0141635Y0159593D01*
X0141680Y0159668D01*
X0141729Y0159740D01*
X0141780Y0159811D01*
X0141835Y0159879D01*
X0141892Y0159944D01*
X0141953Y0160007D01*
X0142016Y0160068D01*
X0142081Y0160125D01*
X0142149Y0160180D01*
X0142220Y0160231D01*
X0142292Y0160280D01*
X0142367Y0160325D01*
X0142444Y0160367D01*
X0142522Y0160406D01*
X0142602Y0160441D01*
X0142683Y0160472D01*
X0142766Y0160500D01*
X0142849Y0160525D01*
X0142934Y0160546D01*
X0143020Y0160563D01*
X0143106Y0160576D01*
X0143193Y0160585D01*
X0143280Y0160591D01*
X0143367Y0160593D01*
X0156367Y0160593D01*
X0156454Y0160591D01*
X0156541Y0160585D01*
X0156628Y0160576D01*
X0156714Y0160563D01*
X0156800Y0160546D01*
X0156885Y0160525D01*
X0156968Y0160500D01*
X0157051Y0160472D01*
X0157132Y0160441D01*
X0157212Y0160406D01*
X0157290Y0160367D01*
X0157367Y0160325D01*
X0157442Y0160280D01*
X0157514Y0160231D01*
X0157585Y0160180D01*
X0157653Y0160125D01*
X0157718Y0160068D01*
X0157781Y0160007D01*
X0157842Y0159944D01*
X0157899Y0159879D01*
X0157954Y0159811D01*
X0158005Y0159740D01*
X0158054Y0159668D01*
X0158099Y0159593D01*
X0158141Y0159516D01*
X0158180Y0159438D01*
X0158215Y0159358D01*
X0158246Y0159277D01*
X0158274Y0159194D01*
X0158299Y0159111D01*
X0158320Y0159026D01*
X0158337Y0158940D01*
X0158350Y0158854D01*
X0158359Y0158767D01*
X0158365Y0158680D01*
X0158367Y0158593D01*
X0158367Y0153593D01*
X0158365Y0153506D01*
X0158359Y0153419D01*
X0158350Y0153332D01*
X0158337Y0153246D01*
X0158320Y0153160D01*
X0158299Y0153075D01*
X0158274Y0152992D01*
X0158246Y0152909D01*
X0158215Y0152828D01*
X0158180Y0152748D01*
X0158141Y0152670D01*
X0158099Y0152593D01*
X0158054Y0152518D01*
X0158005Y0152446D01*
X0157954Y0152375D01*
X0157899Y0152307D01*
X0157842Y0152242D01*
X0157781Y0152179D01*
X0157718Y0152118D01*
X0157653Y0152061D01*
X0157585Y0152006D01*
X0157514Y0151955D01*
X0157442Y0151906D01*
X0157367Y0151861D01*
X0157290Y0151819D01*
X0157212Y0151780D01*
X0157132Y0151745D01*
X0157051Y0151714D01*
X0156968Y0151686D01*
X0156885Y0151661D01*
X0156800Y0151640D01*
X0156714Y0151623D01*
X0156628Y0151610D01*
X0156541Y0151601D01*
X0156454Y0151595D01*
X0156367Y0151593D01*
X0156367Y0166593D02*
X0143367Y0166593D01*
X0143280Y0166595D01*
X0143193Y0166601D01*
X0143106Y0166610D01*
X0143020Y0166623D01*
X0142934Y0166640D01*
X0142849Y0166661D01*
X0142766Y0166686D01*
X0142683Y0166714D01*
X0142602Y0166745D01*
X0142522Y0166780D01*
X0142444Y0166819D01*
X0142367Y0166861D01*
X0142292Y0166906D01*
X0142220Y0166955D01*
X0142149Y0167006D01*
X0142081Y0167061D01*
X0142016Y0167118D01*
X0141953Y0167179D01*
X0141892Y0167242D01*
X0141835Y0167307D01*
X0141780Y0167375D01*
X0141729Y0167446D01*
X0141680Y0167518D01*
X0141635Y0167593D01*
X0141593Y0167670D01*
X0141554Y0167748D01*
X0141519Y0167828D01*
X0141488Y0167909D01*
X0141460Y0167992D01*
X0141435Y0168075D01*
X0141414Y0168160D01*
X0141397Y0168246D01*
X0141384Y0168332D01*
X0141375Y0168419D01*
X0141369Y0168506D01*
X0141367Y0168593D01*
X0141367Y0173593D01*
X0141369Y0173680D01*
X0141375Y0173767D01*
X0141384Y0173854D01*
X0141397Y0173940D01*
X0141414Y0174026D01*
X0141435Y0174111D01*
X0141460Y0174194D01*
X0141488Y0174277D01*
X0141519Y0174358D01*
X0141554Y0174438D01*
X0141593Y0174516D01*
X0141635Y0174593D01*
X0141680Y0174668D01*
X0141729Y0174740D01*
X0141780Y0174811D01*
X0141835Y0174879D01*
X0141892Y0174944D01*
X0141953Y0175007D01*
X0142016Y0175068D01*
X0142081Y0175125D01*
X0142149Y0175180D01*
X0142220Y0175231D01*
X0142292Y0175280D01*
X0142367Y0175325D01*
X0142444Y0175367D01*
X0142522Y0175406D01*
X0142602Y0175441D01*
X0142683Y0175472D01*
X0142766Y0175500D01*
X0142849Y0175525D01*
X0142934Y0175546D01*
X0143020Y0175563D01*
X0143106Y0175576D01*
X0143193Y0175585D01*
X0143280Y0175591D01*
X0143367Y0175593D01*
X0156367Y0175593D01*
X0156454Y0175591D01*
X0156541Y0175585D01*
X0156628Y0175576D01*
X0156714Y0175563D01*
X0156800Y0175546D01*
X0156885Y0175525D01*
X0156968Y0175500D01*
X0157051Y0175472D01*
X0157132Y0175441D01*
X0157212Y0175406D01*
X0157290Y0175367D01*
X0157367Y0175325D01*
X0157442Y0175280D01*
X0157514Y0175231D01*
X0157585Y0175180D01*
X0157653Y0175125D01*
X0157718Y0175068D01*
X0157781Y0175007D01*
X0157842Y0174944D01*
X0157899Y0174879D01*
X0157954Y0174811D01*
X0158005Y0174740D01*
X0158054Y0174668D01*
X0158099Y0174593D01*
X0158141Y0174516D01*
X0158180Y0174438D01*
X0158215Y0174358D01*
X0158246Y0174277D01*
X0158274Y0174194D01*
X0158299Y0174111D01*
X0158320Y0174026D01*
X0158337Y0173940D01*
X0158350Y0173854D01*
X0158359Y0173767D01*
X0158365Y0173680D01*
X0158367Y0173593D01*
X0158367Y0168593D01*
X0158365Y0168506D01*
X0158359Y0168419D01*
X0158350Y0168332D01*
X0158337Y0168246D01*
X0158320Y0168160D01*
X0158299Y0168075D01*
X0158274Y0167992D01*
X0158246Y0167909D01*
X0158215Y0167828D01*
X0158180Y0167748D01*
X0158141Y0167670D01*
X0158099Y0167593D01*
X0158054Y0167518D01*
X0158005Y0167446D01*
X0157954Y0167375D01*
X0157899Y0167307D01*
X0157842Y0167242D01*
X0157781Y0167179D01*
X0157718Y0167118D01*
X0157653Y0167061D01*
X0157585Y0167006D01*
X0157514Y0166955D01*
X0157442Y0166906D01*
X0157367Y0166861D01*
X0157290Y0166819D01*
X0157212Y0166780D01*
X0157132Y0166745D01*
X0157051Y0166714D01*
X0156968Y0166686D01*
X0156885Y0166661D01*
X0156800Y0166640D01*
X0156714Y0166623D01*
X0156628Y0166610D01*
X0156541Y0166601D01*
X0156454Y0166595D01*
X0156367Y0166593D01*
X0131867Y0191093D02*
X0131869Y0191289D01*
X0131877Y0191486D01*
X0131889Y0191682D01*
X0131906Y0191877D01*
X0131927Y0192072D01*
X0131954Y0192267D01*
X0131985Y0192461D01*
X0132021Y0192654D01*
X0132061Y0192846D01*
X0132107Y0193037D01*
X0132157Y0193227D01*
X0132211Y0193415D01*
X0132271Y0193602D01*
X0132335Y0193788D01*
X0132403Y0193972D01*
X0132476Y0194154D01*
X0132553Y0194335D01*
X0132635Y0194513D01*
X0132721Y0194690D01*
X0132812Y0194864D01*
X0132906Y0195036D01*
X0133005Y0195206D01*
X0133108Y0195373D01*
X0133215Y0195538D01*
X0133326Y0195699D01*
X0133441Y0195859D01*
X0133560Y0196015D01*
X0133683Y0196168D01*
X0133809Y0196318D01*
X0133939Y0196465D01*
X0134073Y0196609D01*
X0134210Y0196750D01*
X0134351Y0196887D01*
X0134495Y0197021D01*
X0134642Y0197151D01*
X0134792Y0197277D01*
X0134945Y0197400D01*
X0135101Y0197519D01*
X0135261Y0197634D01*
X0135422Y0197745D01*
X0135587Y0197852D01*
X0135754Y0197955D01*
X0135924Y0198054D01*
X0136096Y0198148D01*
X0136270Y0198239D01*
X0136447Y0198325D01*
X0136625Y0198407D01*
X0136806Y0198484D01*
X0136988Y0198557D01*
X0137172Y0198625D01*
X0137358Y0198689D01*
X0137545Y0198749D01*
X0137733Y0198803D01*
X0137923Y0198853D01*
X0138114Y0198899D01*
X0138306Y0198939D01*
X0138499Y0198975D01*
X0138693Y0199006D01*
X0138888Y0199033D01*
X0139083Y0199054D01*
X0139278Y0199071D01*
X0139474Y0199083D01*
X0139671Y0199091D01*
X0139867Y0199093D01*
X0140063Y0199091D01*
X0140260Y0199083D01*
X0140456Y0199071D01*
X0140651Y0199054D01*
X0140846Y0199033D01*
X0141041Y0199006D01*
X0141235Y0198975D01*
X0141428Y0198939D01*
X0141620Y0198899D01*
X0141811Y0198853D01*
X0142001Y0198803D01*
X0142189Y0198749D01*
X0142376Y0198689D01*
X0142562Y0198625D01*
X0142746Y0198557D01*
X0142928Y0198484D01*
X0143109Y0198407D01*
X0143287Y0198325D01*
X0143464Y0198239D01*
X0143638Y0198148D01*
X0143810Y0198054D01*
X0143980Y0197955D01*
X0144147Y0197852D01*
X0144312Y0197745D01*
X0144473Y0197634D01*
X0144633Y0197519D01*
X0144789Y0197400D01*
X0144942Y0197277D01*
X0145092Y0197151D01*
X0145239Y0197021D01*
X0145383Y0196887D01*
X0145524Y0196750D01*
X0145661Y0196609D01*
X0145795Y0196465D01*
X0145925Y0196318D01*
X0146051Y0196168D01*
X0146174Y0196015D01*
X0146293Y0195859D01*
X0146408Y0195699D01*
X0146519Y0195538D01*
X0146626Y0195373D01*
X0146729Y0195206D01*
X0146828Y0195036D01*
X0146922Y0194864D01*
X0147013Y0194690D01*
X0147099Y0194513D01*
X0147181Y0194335D01*
X0147258Y0194154D01*
X0147331Y0193972D01*
X0147399Y0193788D01*
X0147463Y0193602D01*
X0147523Y0193415D01*
X0147577Y0193227D01*
X0147627Y0193037D01*
X0147673Y0192846D01*
X0147713Y0192654D01*
X0147749Y0192461D01*
X0147780Y0192267D01*
X0147807Y0192072D01*
X0147828Y0191877D01*
X0147845Y0191682D01*
X0147857Y0191486D01*
X0147865Y0191289D01*
X0147867Y0191093D01*
X0147865Y0190897D01*
X0147857Y0190700D01*
X0147845Y0190504D01*
X0147828Y0190309D01*
X0147807Y0190114D01*
X0147780Y0189919D01*
X0147749Y0189725D01*
X0147713Y0189532D01*
X0147673Y0189340D01*
X0147627Y0189149D01*
X0147577Y0188959D01*
X0147523Y0188771D01*
X0147463Y0188584D01*
X0147399Y0188398D01*
X0147331Y0188214D01*
X0147258Y0188032D01*
X0147181Y0187851D01*
X0147099Y0187673D01*
X0147013Y0187496D01*
X0146922Y0187322D01*
X0146828Y0187150D01*
X0146729Y0186980D01*
X0146626Y0186813D01*
X0146519Y0186648D01*
X0146408Y0186487D01*
X0146293Y0186327D01*
X0146174Y0186171D01*
X0146051Y0186018D01*
X0145925Y0185868D01*
X0145795Y0185721D01*
X0145661Y0185577D01*
X0145524Y0185436D01*
X0145383Y0185299D01*
X0145239Y0185165D01*
X0145092Y0185035D01*
X0144942Y0184909D01*
X0144789Y0184786D01*
X0144633Y0184667D01*
X0144473Y0184552D01*
X0144312Y0184441D01*
X0144147Y0184334D01*
X0143980Y0184231D01*
X0143810Y0184132D01*
X0143638Y0184038D01*
X0143464Y0183947D01*
X0143287Y0183861D01*
X0143109Y0183779D01*
X0142928Y0183702D01*
X0142746Y0183629D01*
X0142562Y0183561D01*
X0142376Y0183497D01*
X0142189Y0183437D01*
X0142001Y0183383D01*
X0141811Y0183333D01*
X0141620Y0183287D01*
X0141428Y0183247D01*
X0141235Y0183211D01*
X0141041Y0183180D01*
X0140846Y0183153D01*
X0140651Y0183132D01*
X0140456Y0183115D01*
X0140260Y0183103D01*
X0140063Y0183095D01*
X0139867Y0183093D01*
X0139671Y0183095D01*
X0139474Y0183103D01*
X0139278Y0183115D01*
X0139083Y0183132D01*
X0138888Y0183153D01*
X0138693Y0183180D01*
X0138499Y0183211D01*
X0138306Y0183247D01*
X0138114Y0183287D01*
X0137923Y0183333D01*
X0137733Y0183383D01*
X0137545Y0183437D01*
X0137358Y0183497D01*
X0137172Y0183561D01*
X0136988Y0183629D01*
X0136806Y0183702D01*
X0136625Y0183779D01*
X0136447Y0183861D01*
X0136270Y0183947D01*
X0136096Y0184038D01*
X0135924Y0184132D01*
X0135754Y0184231D01*
X0135587Y0184334D01*
X0135422Y0184441D01*
X0135261Y0184552D01*
X0135101Y0184667D01*
X0134945Y0184786D01*
X0134792Y0184909D01*
X0134642Y0185035D01*
X0134495Y0185165D01*
X0134351Y0185299D01*
X0134210Y0185436D01*
X0134073Y0185577D01*
X0133939Y0185721D01*
X0133809Y0185868D01*
X0133683Y0186018D01*
X0133560Y0186171D01*
X0133441Y0186327D01*
X0133326Y0186487D01*
X0133215Y0186648D01*
X0133108Y0186813D01*
X0133005Y0186980D01*
X0132906Y0187150D01*
X0132812Y0187322D01*
X0132721Y0187496D01*
X0132635Y0187673D01*
X0132553Y0187851D01*
X0132476Y0188032D01*
X0132403Y0188214D01*
X0132335Y0188398D01*
X0132271Y0188584D01*
X0132211Y0188771D01*
X0132157Y0188959D01*
X0132107Y0189149D01*
X0132061Y0189340D01*
X0132021Y0189532D01*
X0131985Y0189725D01*
X0131954Y0189919D01*
X0131927Y0190114D01*
X0131906Y0190309D01*
X0131889Y0190504D01*
X0131877Y0190700D01*
X0131869Y0190897D01*
X0131867Y0191093D01*
X0144367Y0194093D02*
X0146367Y0194093D01*
X0145367Y0195093D02*
X0145367Y0193093D01*
X0169867Y0202093D02*
X0170021Y0202091D01*
X0170175Y0202085D01*
X0170329Y0202075D01*
X0170483Y0202061D01*
X0170636Y0202044D01*
X0170788Y0202022D01*
X0170940Y0201996D01*
X0171092Y0201967D01*
X0171242Y0201933D01*
X0171392Y0201896D01*
X0171540Y0201855D01*
X0171688Y0201810D01*
X0171834Y0201761D01*
X0171979Y0201709D01*
X0172122Y0201653D01*
X0172265Y0201593D01*
X0172405Y0201530D01*
X0172544Y0201463D01*
X0172681Y0201392D01*
X0172816Y0201318D01*
X0172949Y0201241D01*
X0173081Y0201160D01*
X0173210Y0201076D01*
X0173337Y0200988D01*
X0173461Y0200897D01*
X0173583Y0200804D01*
X0173703Y0200706D01*
X0173820Y0200606D01*
X0173935Y0200503D01*
X0174047Y0200397D01*
X0174156Y0200289D01*
X0174262Y0200177D01*
X0174366Y0200063D01*
X0174466Y0199946D01*
X0174564Y0199827D01*
X0174658Y0199705D01*
X0174749Y0199580D01*
X0169867Y0190093D02*
X0169715Y0190095D01*
X0169564Y0190101D01*
X0169413Y0190110D01*
X0169261Y0190124D01*
X0169111Y0190141D01*
X0168961Y0190162D01*
X0168811Y0190187D01*
X0168662Y0190215D01*
X0168514Y0190248D01*
X0168367Y0190284D01*
X0168220Y0190323D01*
X0168075Y0190367D01*
X0167931Y0190414D01*
X0167788Y0190465D01*
X0167647Y0190519D01*
X0167506Y0190577D01*
X0167368Y0190638D01*
X0167231Y0190703D01*
X0167095Y0190772D01*
X0166962Y0190843D01*
X0166830Y0190918D01*
X0166700Y0190997D01*
X0166573Y0191078D01*
X0166447Y0191163D01*
X0166323Y0191251D01*
X0166202Y0191342D01*
X0166083Y0191436D01*
X0165967Y0191534D01*
X0165853Y0191634D01*
X0165741Y0191736D01*
X0165633Y0191842D01*
X0165527Y0191950D01*
X0165423Y0192061D01*
X0165323Y0192175D01*
X0165225Y0192291D01*
X0165131Y0192410D01*
X0169867Y0190093D02*
X0170019Y0190095D01*
X0170170Y0190101D01*
X0170321Y0190110D01*
X0170473Y0190124D01*
X0170623Y0190141D01*
X0170773Y0190162D01*
X0170923Y0190187D01*
X0171072Y0190215D01*
X0171220Y0190248D01*
X0171367Y0190284D01*
X0171514Y0190323D01*
X0171659Y0190367D01*
X0171803Y0190414D01*
X0171946Y0190465D01*
X0172087Y0190519D01*
X0172228Y0190577D01*
X0172366Y0190638D01*
X0172503Y0190703D01*
X0172639Y0190772D01*
X0172772Y0190843D01*
X0172904Y0190918D01*
X0173034Y0190997D01*
X0173161Y0191078D01*
X0173287Y0191163D01*
X0173411Y0191251D01*
X0173532Y0191342D01*
X0173651Y0191436D01*
X0173767Y0191534D01*
X0173881Y0191634D01*
X0173993Y0191736D01*
X0174101Y0191842D01*
X0174207Y0191950D01*
X0174311Y0192061D01*
X0174411Y0192175D01*
X0174509Y0192291D01*
X0174603Y0192410D01*
X0169867Y0202093D02*
X0169717Y0202091D01*
X0169566Y0202085D01*
X0169416Y0202076D01*
X0169267Y0202063D01*
X0169117Y0202046D01*
X0168968Y0202025D01*
X0168820Y0202001D01*
X0168672Y0201973D01*
X0168525Y0201941D01*
X0168379Y0201906D01*
X0168234Y0201866D01*
X0168090Y0201824D01*
X0167947Y0201777D01*
X0167805Y0201727D01*
X0167664Y0201674D01*
X0167525Y0201617D01*
X0167387Y0201557D01*
X0167251Y0201493D01*
X0167117Y0201426D01*
X0166984Y0201355D01*
X0166853Y0201281D01*
X0166724Y0201204D01*
X0166597Y0201123D01*
X0166472Y0201040D01*
X0166349Y0200953D01*
X0166228Y0200864D01*
X0166110Y0200771D01*
X0165994Y0200675D01*
X0165880Y0200577D01*
X0165769Y0200476D01*
X0165660Y0200371D01*
X0165555Y0200265D01*
X0165451Y0200155D01*
X0165351Y0200043D01*
X0165253Y0199929D01*
X0165159Y0199812D01*
X0165067Y0199693D01*
X0186867Y0176093D02*
X0192867Y0176093D01*
X0192927Y0176091D01*
X0192988Y0176086D01*
X0193047Y0176077D01*
X0193106Y0176064D01*
X0193165Y0176048D01*
X0193222Y0176028D01*
X0193277Y0176005D01*
X0193332Y0175978D01*
X0193384Y0175949D01*
X0193435Y0175916D01*
X0193484Y0175880D01*
X0193530Y0175842D01*
X0193574Y0175800D01*
X0193616Y0175756D01*
X0193654Y0175710D01*
X0193690Y0175661D01*
X0193723Y0175610D01*
X0193752Y0175558D01*
X0193779Y0175503D01*
X0193802Y0175448D01*
X0193822Y0175391D01*
X0193838Y0175332D01*
X0193851Y0175273D01*
X0193860Y0175214D01*
X0193865Y0175153D01*
X0193867Y0175093D01*
X0193867Y0173593D01*
X0193367Y0173093D01*
X0193367Y0159093D01*
X0193867Y0158593D01*
X0193867Y0157093D01*
X0193865Y0157033D01*
X0193860Y0156972D01*
X0193851Y0156913D01*
X0193838Y0156854D01*
X0193822Y0156795D01*
X0193802Y0156738D01*
X0193779Y0156683D01*
X0193752Y0156628D01*
X0193723Y0156576D01*
X0193690Y0156525D01*
X0193654Y0156476D01*
X0193616Y0156430D01*
X0193574Y0156386D01*
X0193530Y0156344D01*
X0193484Y0156306D01*
X0193435Y0156270D01*
X0193384Y0156237D01*
X0193332Y0156208D01*
X0193277Y0156181D01*
X0193222Y0156158D01*
X0193165Y0156138D01*
X0193106Y0156122D01*
X0193047Y0156109D01*
X0192988Y0156100D01*
X0192927Y0156095D01*
X0192867Y0156093D01*
X0186867Y0156093D01*
X0186807Y0156095D01*
X0186746Y0156100D01*
X0186687Y0156109D01*
X0186628Y0156122D01*
X0186569Y0156138D01*
X0186512Y0156158D01*
X0186457Y0156181D01*
X0186402Y0156208D01*
X0186350Y0156237D01*
X0186299Y0156270D01*
X0186250Y0156306D01*
X0186204Y0156344D01*
X0186160Y0156386D01*
X0186118Y0156430D01*
X0186080Y0156476D01*
X0186044Y0156525D01*
X0186011Y0156576D01*
X0185982Y0156628D01*
X0185955Y0156683D01*
X0185932Y0156738D01*
X0185912Y0156795D01*
X0185896Y0156854D01*
X0185883Y0156913D01*
X0185874Y0156972D01*
X0185869Y0157033D01*
X0185867Y0157093D01*
X0185867Y0158593D01*
X0186367Y0159093D01*
X0186367Y0173093D01*
X0185867Y0173593D01*
X0185867Y0175093D01*
X0185869Y0175153D01*
X0185874Y0175214D01*
X0185883Y0175273D01*
X0185896Y0175332D01*
X0185912Y0175391D01*
X0185932Y0175448D01*
X0185955Y0175503D01*
X0185982Y0175558D01*
X0186011Y0175610D01*
X0186044Y0175661D01*
X0186080Y0175710D01*
X0186118Y0175756D01*
X0186160Y0175800D01*
X0186204Y0175842D01*
X0186250Y0175880D01*
X0186299Y0175916D01*
X0186350Y0175949D01*
X0186402Y0175978D01*
X0186457Y0176005D01*
X0186512Y0176028D01*
X0186569Y0176048D01*
X0186628Y0176064D01*
X0186687Y0176077D01*
X0186746Y0176086D01*
X0186807Y0176091D01*
X0186867Y0176093D01*
X0119367Y0172593D02*
X0119367Y0159593D01*
X0119365Y0159506D01*
X0119359Y0159419D01*
X0119350Y0159332D01*
X0119337Y0159246D01*
X0119320Y0159160D01*
X0119299Y0159075D01*
X0119274Y0158992D01*
X0119246Y0158909D01*
X0119215Y0158828D01*
X0119180Y0158748D01*
X0119141Y0158670D01*
X0119099Y0158593D01*
X0119054Y0158518D01*
X0119005Y0158446D01*
X0118954Y0158375D01*
X0118899Y0158307D01*
X0118842Y0158242D01*
X0118781Y0158179D01*
X0118718Y0158118D01*
X0118653Y0158061D01*
X0118585Y0158006D01*
X0118514Y0157955D01*
X0118442Y0157906D01*
X0118367Y0157861D01*
X0118290Y0157819D01*
X0118212Y0157780D01*
X0118132Y0157745D01*
X0118051Y0157714D01*
X0117968Y0157686D01*
X0117885Y0157661D01*
X0117800Y0157640D01*
X0117714Y0157623D01*
X0117628Y0157610D01*
X0117541Y0157601D01*
X0117454Y0157595D01*
X0117367Y0157593D01*
X0112367Y0157593D01*
X0112280Y0157595D01*
X0112193Y0157601D01*
X0112106Y0157610D01*
X0112020Y0157623D01*
X0111934Y0157640D01*
X0111849Y0157661D01*
X0111766Y0157686D01*
X0111683Y0157714D01*
X0111602Y0157745D01*
X0111522Y0157780D01*
X0111444Y0157819D01*
X0111367Y0157861D01*
X0111292Y0157906D01*
X0111220Y0157955D01*
X0111149Y0158006D01*
X0111081Y0158061D01*
X0111016Y0158118D01*
X0110953Y0158179D01*
X0110892Y0158242D01*
X0110835Y0158307D01*
X0110780Y0158375D01*
X0110729Y0158446D01*
X0110680Y0158518D01*
X0110635Y0158593D01*
X0110593Y0158670D01*
X0110554Y0158748D01*
X0110519Y0158828D01*
X0110488Y0158909D01*
X0110460Y0158992D01*
X0110435Y0159075D01*
X0110414Y0159160D01*
X0110397Y0159246D01*
X0110384Y0159332D01*
X0110375Y0159419D01*
X0110369Y0159506D01*
X0110367Y0159593D01*
X0110367Y0172593D01*
X0110369Y0172680D01*
X0110375Y0172767D01*
X0110384Y0172854D01*
X0110397Y0172940D01*
X0110414Y0173026D01*
X0110435Y0173111D01*
X0110460Y0173194D01*
X0110488Y0173277D01*
X0110519Y0173358D01*
X0110554Y0173438D01*
X0110593Y0173516D01*
X0110635Y0173593D01*
X0110680Y0173668D01*
X0110729Y0173740D01*
X0110780Y0173811D01*
X0110835Y0173879D01*
X0110892Y0173944D01*
X0110953Y0174007D01*
X0111016Y0174068D01*
X0111081Y0174125D01*
X0111149Y0174180D01*
X0111220Y0174231D01*
X0111292Y0174280D01*
X0111367Y0174325D01*
X0111444Y0174367D01*
X0111522Y0174406D01*
X0111602Y0174441D01*
X0111683Y0174472D01*
X0111766Y0174500D01*
X0111849Y0174525D01*
X0111934Y0174546D01*
X0112020Y0174563D01*
X0112106Y0174576D01*
X0112193Y0174585D01*
X0112280Y0174591D01*
X0112367Y0174593D01*
X0117367Y0174593D01*
X0117454Y0174591D01*
X0117541Y0174585D01*
X0117628Y0174576D01*
X0117714Y0174563D01*
X0117800Y0174546D01*
X0117885Y0174525D01*
X0117968Y0174500D01*
X0118051Y0174472D01*
X0118132Y0174441D01*
X0118212Y0174406D01*
X0118290Y0174367D01*
X0118367Y0174325D01*
X0118442Y0174280D01*
X0118514Y0174231D01*
X0118585Y0174180D01*
X0118653Y0174125D01*
X0118718Y0174068D01*
X0118781Y0174007D01*
X0118842Y0173944D01*
X0118899Y0173879D01*
X0118954Y0173811D01*
X0119005Y0173740D01*
X0119054Y0173668D01*
X0119099Y0173593D01*
X0119141Y0173516D01*
X0119180Y0173438D01*
X0119215Y0173358D01*
X0119246Y0173277D01*
X0119274Y0173194D01*
X0119299Y0173111D01*
X0119320Y0173026D01*
X0119337Y0172940D01*
X0119350Y0172854D01*
X0119359Y0172767D01*
X0119365Y0172680D01*
X0119367Y0172593D01*
X0083367Y0173593D02*
X0083367Y0168593D01*
X0083365Y0168506D01*
X0083359Y0168419D01*
X0083350Y0168332D01*
X0083337Y0168246D01*
X0083320Y0168160D01*
X0083299Y0168075D01*
X0083274Y0167992D01*
X0083246Y0167909D01*
X0083215Y0167828D01*
X0083180Y0167748D01*
X0083141Y0167670D01*
X0083099Y0167593D01*
X0083054Y0167518D01*
X0083005Y0167446D01*
X0082954Y0167375D01*
X0082899Y0167307D01*
X0082842Y0167242D01*
X0082781Y0167179D01*
X0082718Y0167118D01*
X0082653Y0167061D01*
X0082585Y0167006D01*
X0082514Y0166955D01*
X0082442Y0166906D01*
X0082367Y0166861D01*
X0082290Y0166819D01*
X0082212Y0166780D01*
X0082132Y0166745D01*
X0082051Y0166714D01*
X0081968Y0166686D01*
X0081885Y0166661D01*
X0081800Y0166640D01*
X0081714Y0166623D01*
X0081628Y0166610D01*
X0081541Y0166601D01*
X0081454Y0166595D01*
X0081367Y0166593D01*
X0068367Y0166593D01*
X0068280Y0166595D01*
X0068193Y0166601D01*
X0068106Y0166610D01*
X0068020Y0166623D01*
X0067934Y0166640D01*
X0067849Y0166661D01*
X0067766Y0166686D01*
X0067683Y0166714D01*
X0067602Y0166745D01*
X0067522Y0166780D01*
X0067444Y0166819D01*
X0067367Y0166861D01*
X0067292Y0166906D01*
X0067220Y0166955D01*
X0067149Y0167006D01*
X0067081Y0167061D01*
X0067016Y0167118D01*
X0066953Y0167179D01*
X0066892Y0167242D01*
X0066835Y0167307D01*
X0066780Y0167375D01*
X0066729Y0167446D01*
X0066680Y0167518D01*
X0066635Y0167593D01*
X0066593Y0167670D01*
X0066554Y0167748D01*
X0066519Y0167828D01*
X0066488Y0167909D01*
X0066460Y0167992D01*
X0066435Y0168075D01*
X0066414Y0168160D01*
X0066397Y0168246D01*
X0066384Y0168332D01*
X0066375Y0168419D01*
X0066369Y0168506D01*
X0066367Y0168593D01*
X0066367Y0173593D01*
X0066369Y0173680D01*
X0066375Y0173767D01*
X0066384Y0173854D01*
X0066397Y0173940D01*
X0066414Y0174026D01*
X0066435Y0174111D01*
X0066460Y0174194D01*
X0066488Y0174277D01*
X0066519Y0174358D01*
X0066554Y0174438D01*
X0066593Y0174516D01*
X0066635Y0174593D01*
X0066680Y0174668D01*
X0066729Y0174740D01*
X0066780Y0174811D01*
X0066835Y0174879D01*
X0066892Y0174944D01*
X0066953Y0175007D01*
X0067016Y0175068D01*
X0067081Y0175125D01*
X0067149Y0175180D01*
X0067220Y0175231D01*
X0067292Y0175280D01*
X0067367Y0175325D01*
X0067444Y0175367D01*
X0067522Y0175406D01*
X0067602Y0175441D01*
X0067683Y0175472D01*
X0067766Y0175500D01*
X0067849Y0175525D01*
X0067934Y0175546D01*
X0068020Y0175563D01*
X0068106Y0175576D01*
X0068193Y0175585D01*
X0068280Y0175591D01*
X0068367Y0175593D01*
X0081367Y0175593D01*
X0081454Y0175591D01*
X0081541Y0175585D01*
X0081628Y0175576D01*
X0081714Y0175563D01*
X0081800Y0175546D01*
X0081885Y0175525D01*
X0081968Y0175500D01*
X0082051Y0175472D01*
X0082132Y0175441D01*
X0082212Y0175406D01*
X0082290Y0175367D01*
X0082367Y0175325D01*
X0082442Y0175280D01*
X0082514Y0175231D01*
X0082585Y0175180D01*
X0082653Y0175125D01*
X0082718Y0175068D01*
X0082781Y0175007D01*
X0082842Y0174944D01*
X0082899Y0174879D01*
X0082954Y0174811D01*
X0083005Y0174740D01*
X0083054Y0174668D01*
X0083099Y0174593D01*
X0083141Y0174516D01*
X0083180Y0174438D01*
X0083215Y0174358D01*
X0083246Y0174277D01*
X0083274Y0174194D01*
X0083299Y0174111D01*
X0083320Y0174026D01*
X0083337Y0173940D01*
X0083350Y0173854D01*
X0083359Y0173767D01*
X0083365Y0173680D01*
X0083367Y0173593D01*
D12*
X0084555Y0178843D02*
X0086057Y0178843D01*
X0086807Y0179593D01*
X0086807Y0183346D01*
X0088409Y0182596D02*
X0089159Y0183346D01*
X0090661Y0183346D01*
X0091411Y0182596D01*
X0090661Y0181094D02*
X0091411Y0180344D01*
X0091411Y0179593D01*
X0090661Y0178843D01*
X0089159Y0178843D01*
X0088409Y0179593D01*
X0089159Y0181094D02*
X0088409Y0181845D01*
X0088409Y0182596D01*
X0089159Y0181094D02*
X0090661Y0181094D01*
X0093013Y0181845D02*
X0094514Y0183346D01*
X0094514Y0178843D01*
X0093013Y0178843D02*
X0096015Y0178843D01*
X0089910Y0178092D02*
X0089910Y0184097D01*
X0083805Y0183346D02*
X0083805Y0179593D01*
X0084555Y0178843D01*
X0075723Y0179094D02*
X0075723Y0177593D01*
X0074973Y0176843D01*
X0073471Y0176843D01*
X0072721Y0177593D01*
X0072721Y0179094D02*
X0074222Y0179845D01*
X0074973Y0179845D01*
X0075723Y0179094D01*
X0075723Y0181346D02*
X0072721Y0181346D01*
X0072721Y0179094D01*
X0071119Y0177593D02*
X0070369Y0176843D01*
X0068867Y0176843D01*
X0068117Y0177593D01*
X0068117Y0180596D01*
X0068867Y0181346D01*
X0070369Y0181346D01*
X0071119Y0180596D01*
X0070369Y0165346D02*
X0068867Y0165346D01*
X0068117Y0164596D01*
X0068117Y0161593D01*
X0071119Y0164596D01*
X0071119Y0161593D01*
X0070369Y0160843D01*
X0068867Y0160843D01*
X0068117Y0161593D01*
X0071119Y0164596D02*
X0070369Y0165346D01*
X0072721Y0161593D02*
X0073471Y0161593D01*
X0073471Y0160843D01*
X0072721Y0160843D01*
X0072721Y0161593D01*
X0075023Y0160843D02*
X0078025Y0160843D01*
X0076524Y0160843D02*
X0076524Y0165346D01*
X0075023Y0163845D01*
X0095693Y0188219D02*
X0048449Y0188219D01*
X0048449Y0203967D01*
X0095693Y0203967D01*
X0095693Y0188219D01*
X0099414Y0187093D02*
X0100994Y0187093D01*
X0101621Y0192593D02*
X0118113Y0192593D01*
X0118739Y0187093D02*
X0120319Y0187093D01*
X0110994Y0187093D02*
X0108739Y0187093D01*
X0118113Y0192593D02*
X0118266Y0192394D01*
X0118414Y0192192D01*
X0118557Y0191987D01*
X0118695Y0191778D01*
X0118828Y0191566D01*
X0118956Y0191351D01*
X0119078Y0191133D01*
X0119196Y0190912D01*
X0119308Y0190688D01*
X0119415Y0190462D01*
X0119516Y0190233D01*
X0119612Y0190002D01*
X0119703Y0189768D01*
X0119788Y0189533D01*
X0119867Y0189295D01*
X0119940Y0189056D01*
X0120008Y0188815D01*
X0120070Y0188573D01*
X0120126Y0188329D01*
X0120177Y0188083D01*
X0120221Y0187837D01*
X0120260Y0187590D01*
X0120292Y0187342D01*
X0120319Y0187093D01*
X0106771Y0176060D02*
X0106529Y0176138D01*
X0106289Y0176222D01*
X0106051Y0176311D01*
X0105815Y0176407D01*
X0105581Y0176508D01*
X0105350Y0176614D01*
X0105122Y0176727D01*
X0104896Y0176844D01*
X0104673Y0176967D01*
X0104454Y0177096D01*
X0104237Y0177230D01*
X0104024Y0177369D01*
X0103814Y0177513D01*
X0103608Y0177662D01*
X0103406Y0177816D01*
X0103207Y0177975D01*
X0103012Y0178139D01*
X0102821Y0178308D01*
X0102635Y0178481D01*
X0102452Y0178658D01*
X0102274Y0178840D01*
X0102101Y0179026D01*
X0101932Y0179217D01*
X0101768Y0179411D01*
X0101608Y0179609D01*
X0101453Y0179811D01*
X0101304Y0180017D01*
X0101159Y0180226D01*
X0101019Y0180439D01*
X0100885Y0180655D01*
X0100756Y0180875D01*
X0100632Y0181097D01*
X0100513Y0181322D01*
X0100401Y0181550D01*
X0100293Y0181781D01*
X0100192Y0182014D01*
X0100096Y0182250D01*
X0100005Y0182488D01*
X0099921Y0182728D01*
X0099842Y0182970D01*
X0099769Y0183214D01*
X0099703Y0183460D01*
X0099642Y0183707D01*
X0099587Y0183955D01*
X0099538Y0184205D01*
X0099495Y0184456D01*
X0099459Y0184708D01*
X0099428Y0184960D01*
X0099404Y0185214D01*
X0099386Y0185467D01*
X0099374Y0185722D01*
X0099368Y0185976D01*
X0099368Y0186231D01*
X0099374Y0186485D01*
X0099387Y0186739D01*
X0099406Y0186993D01*
X0099431Y0187246D01*
X0099462Y0187499D01*
X0099499Y0187751D01*
X0099542Y0188001D01*
X0099591Y0188251D01*
X0099646Y0188500D01*
X0099708Y0188747D01*
X0099775Y0188992D01*
X0099848Y0189236D01*
X0099927Y0189478D01*
X0100012Y0189717D01*
X0100103Y0189955D01*
X0100200Y0190191D01*
X0100302Y0190424D01*
X0100410Y0190654D01*
X0100523Y0190882D01*
X0100642Y0191107D01*
X0100766Y0191329D01*
X0100895Y0191548D01*
X0101030Y0191764D01*
X0101170Y0191977D01*
X0101316Y0192186D01*
X0101466Y0192391D01*
X0101621Y0192593D01*
X0120319Y0187092D02*
X0120341Y0186837D01*
X0120356Y0186581D01*
X0120364Y0186325D01*
X0120367Y0186068D01*
X0120363Y0185812D01*
X0120353Y0185556D01*
X0120337Y0185300D01*
X0120315Y0185045D01*
X0120286Y0184790D01*
X0120251Y0184536D01*
X0120210Y0184283D01*
X0120163Y0184031D01*
X0120109Y0183781D01*
X0120050Y0183532D01*
X0119984Y0183284D01*
X0119913Y0183038D01*
X0119835Y0182793D01*
X0119752Y0182551D01*
X0119663Y0182311D01*
X0119567Y0182073D01*
X0119466Y0181837D01*
X0119360Y0181604D01*
X0119247Y0181374D01*
X0119129Y0181146D01*
X0119006Y0180922D01*
X0118877Y0180700D01*
X0118743Y0180482D01*
X0118603Y0180267D01*
X0118458Y0180056D01*
X0118308Y0179848D01*
X0118154Y0179644D01*
X0117994Y0179443D01*
X0117829Y0179247D01*
X0117660Y0179055D01*
X0117485Y0178866D01*
X0117307Y0178683D01*
X0117124Y0178503D01*
X0116936Y0178328D01*
X0116745Y0178158D01*
X0116549Y0177993D01*
X0116349Y0177832D01*
X0116146Y0177676D01*
X0115939Y0177526D01*
X0115728Y0177380D01*
X0115513Y0177239D01*
X0115296Y0177104D01*
X0115075Y0176974D01*
X0114851Y0176850D01*
X0114624Y0176731D01*
X0114394Y0176618D01*
X0114161Y0176510D01*
X0113926Y0176408D01*
X0113688Y0176312D01*
X0113449Y0176222D01*
X0113207Y0176137D01*
X0112963Y0176059D01*
X0109117Y0171741D02*
X0109117Y0168739D01*
X0109117Y0170240D02*
X0104613Y0170240D01*
X0106114Y0168739D01*
X0108366Y0167187D02*
X0109117Y0167187D01*
X0109117Y0166437D01*
X0108366Y0166437D01*
X0108366Y0167187D01*
X0108366Y0164835D02*
X0105363Y0164835D01*
X0108366Y0161833D01*
X0109117Y0162583D01*
X0109117Y0164085D01*
X0108366Y0164835D01*
X0105363Y0164835D02*
X0104613Y0164085D01*
X0104613Y0162583D01*
X0105363Y0161833D01*
X0108366Y0161833D01*
X0120613Y0164885D02*
X0121363Y0164135D01*
X0124366Y0164135D01*
X0125117Y0164885D01*
X0125117Y0166387D01*
X0124366Y0167137D01*
X0124366Y0168739D02*
X0125117Y0169489D01*
X0125117Y0170991D01*
X0124366Y0171741D01*
X0123615Y0171741D01*
X0122865Y0170991D01*
X0122865Y0170240D01*
X0122865Y0170991D02*
X0122114Y0171741D01*
X0121363Y0171741D01*
X0120613Y0170991D01*
X0120613Y0169489D01*
X0121363Y0168739D01*
X0121363Y0167137D02*
X0120613Y0166387D01*
X0120613Y0164885D01*
X0133113Y0175136D02*
X0134614Y0173635D01*
X0133113Y0175136D02*
X0137617Y0175136D01*
X0137617Y0173635D02*
X0137617Y0176637D01*
X0136866Y0178239D02*
X0133863Y0181241D01*
X0136866Y0181241D01*
X0137617Y0180491D01*
X0137617Y0178989D01*
X0136866Y0178239D01*
X0133863Y0178239D01*
X0133113Y0178989D01*
X0133113Y0180491D01*
X0133863Y0181241D01*
X0143113Y0180491D02*
X0145365Y0178239D01*
X0145365Y0181241D01*
X0147617Y0180491D02*
X0143113Y0180491D01*
X0143863Y0176637D02*
X0143113Y0175887D01*
X0143113Y0174385D01*
X0143863Y0173635D01*
X0146866Y0173635D01*
X0147617Y0174385D01*
X0147617Y0175887D01*
X0146866Y0176637D01*
X0148659Y0165346D02*
X0147909Y0164596D01*
X0147909Y0161593D01*
X0148659Y0160843D01*
X0150161Y0160843D01*
X0150911Y0161593D01*
X0152513Y0161593D02*
X0152513Y0163094D01*
X0154765Y0163094D01*
X0155515Y0162344D01*
X0155515Y0161593D01*
X0154765Y0160843D01*
X0153263Y0160843D01*
X0152513Y0161593D01*
X0152513Y0163094D02*
X0154014Y0164596D01*
X0155515Y0165346D01*
X0150911Y0164596D02*
X0150161Y0165346D01*
X0148659Y0165346D01*
X0148659Y0150346D02*
X0147909Y0149596D01*
X0147909Y0146593D01*
X0148659Y0145843D01*
X0150161Y0145843D01*
X0150911Y0146593D01*
X0152513Y0146593D02*
X0152513Y0145843D01*
X0152513Y0146593D02*
X0155515Y0149596D01*
X0155515Y0150346D01*
X0152513Y0150346D01*
X0150911Y0149596D02*
X0150161Y0150346D01*
X0148659Y0150346D01*
X0177617Y0197843D02*
X0180619Y0197843D01*
X0182221Y0197843D02*
X0185223Y0197843D01*
X0186825Y0197843D02*
X0189076Y0197843D01*
X0189827Y0198593D01*
X0189827Y0201596D01*
X0189076Y0202346D01*
X0186825Y0202346D01*
X0186825Y0197843D01*
X0183722Y0200094D02*
X0182221Y0200094D01*
X0182221Y0197843D02*
X0182221Y0202346D01*
X0185223Y0202346D01*
X0191428Y0201596D02*
X0192179Y0202346D01*
X0193680Y0202346D01*
X0194431Y0201596D01*
X0194431Y0200845D01*
X0191428Y0197843D01*
X0194431Y0197843D01*
X0196032Y0197843D02*
X0196032Y0202346D01*
X0198284Y0202346D01*
X0199035Y0201596D01*
X0199035Y0200094D01*
X0198284Y0199344D01*
X0196032Y0199344D01*
X0197534Y0199344D02*
X0199035Y0197843D01*
X0200636Y0197843D02*
X0203639Y0197843D01*
X0205240Y0197843D02*
X0207492Y0197843D01*
X0208243Y0198593D01*
X0208243Y0201596D01*
X0207492Y0202346D01*
X0205240Y0202346D01*
X0205240Y0197843D01*
X0202138Y0200094D02*
X0200636Y0200094D01*
X0200636Y0197843D02*
X0200636Y0202346D01*
X0203639Y0202346D01*
X0177617Y0202346D02*
X0177617Y0197843D01*
X0160473Y0088846D02*
X0158971Y0088846D01*
X0158221Y0088096D01*
X0156619Y0088096D02*
X0155869Y0088846D01*
X0154367Y0088846D01*
X0153617Y0088096D01*
X0153617Y0085093D01*
X0154367Y0084343D01*
X0155869Y0084343D01*
X0156619Y0085093D01*
X0158221Y0084343D02*
X0161223Y0087345D01*
X0161223Y0088096D01*
X0160473Y0088846D01*
X0161223Y0084343D02*
X0158221Y0084343D01*
X0190413Y0072898D02*
X0190413Y0071397D01*
X0191163Y0070646D01*
X0190413Y0069045D02*
X0190413Y0067544D01*
X0190413Y0068294D02*
X0194166Y0068294D01*
X0194917Y0067544D01*
X0194917Y0066793D01*
X0194166Y0066043D01*
X0194166Y0070646D02*
X0194917Y0071397D01*
X0194917Y0072898D01*
X0194166Y0073649D01*
X0193415Y0073649D01*
X0192665Y0072898D01*
X0192665Y0072148D01*
X0192665Y0072898D02*
X0191914Y0073649D01*
X0191163Y0073649D01*
X0190413Y0072898D01*
X0209813Y0054291D02*
X0212065Y0052039D01*
X0212065Y0055041D01*
X0214317Y0054291D02*
X0209813Y0054291D01*
X0209813Y0050437D02*
X0209813Y0048936D01*
X0209813Y0049687D02*
X0213566Y0049687D01*
X0214317Y0048936D01*
X0214317Y0048185D01*
X0213566Y0047435D01*
X0169492Y0016093D02*
X0169495Y0016335D01*
X0169504Y0016576D01*
X0169519Y0016817D01*
X0169539Y0017058D01*
X0169566Y0017298D01*
X0169599Y0017537D01*
X0169637Y0017776D01*
X0169681Y0018013D01*
X0169731Y0018250D01*
X0169787Y0018485D01*
X0169849Y0018718D01*
X0169916Y0018950D01*
X0169989Y0019181D01*
X0170067Y0019409D01*
X0170152Y0019635D01*
X0170241Y0019860D01*
X0170336Y0020082D01*
X0170437Y0020301D01*
X0170543Y0020519D01*
X0170654Y0020733D01*
X0170771Y0020945D01*
X0170892Y0021153D01*
X0171019Y0021359D01*
X0171151Y0021561D01*
X0171288Y0021761D01*
X0171429Y0021956D01*
X0171575Y0022149D01*
X0171726Y0022337D01*
X0171882Y0022522D01*
X0172042Y0022703D01*
X0172206Y0022880D01*
X0172375Y0023053D01*
X0172548Y0023222D01*
X0172725Y0023386D01*
X0172906Y0023546D01*
X0173091Y0023702D01*
X0173279Y0023853D01*
X0173472Y0023999D01*
X0173667Y0024140D01*
X0173867Y0024277D01*
X0174069Y0024409D01*
X0174275Y0024536D01*
X0174483Y0024657D01*
X0174695Y0024774D01*
X0174909Y0024885D01*
X0175127Y0024991D01*
X0175346Y0025092D01*
X0175568Y0025187D01*
X0175793Y0025276D01*
X0176019Y0025361D01*
X0176247Y0025439D01*
X0176478Y0025512D01*
X0176710Y0025579D01*
X0176943Y0025641D01*
X0177178Y0025697D01*
X0177415Y0025747D01*
X0177652Y0025791D01*
X0177891Y0025829D01*
X0178130Y0025862D01*
X0178370Y0025889D01*
X0178611Y0025909D01*
X0178852Y0025924D01*
X0179093Y0025933D01*
X0179335Y0025936D01*
X0179577Y0025933D01*
X0179818Y0025924D01*
X0180059Y0025909D01*
X0180300Y0025889D01*
X0180540Y0025862D01*
X0180779Y0025829D01*
X0181018Y0025791D01*
X0181255Y0025747D01*
X0181492Y0025697D01*
X0181727Y0025641D01*
X0181960Y0025579D01*
X0182192Y0025512D01*
X0182423Y0025439D01*
X0182651Y0025361D01*
X0182877Y0025276D01*
X0183102Y0025187D01*
X0183324Y0025092D01*
X0183543Y0024991D01*
X0183761Y0024885D01*
X0183975Y0024774D01*
X0184187Y0024657D01*
X0184395Y0024536D01*
X0184601Y0024409D01*
X0184803Y0024277D01*
X0185003Y0024140D01*
X0185198Y0023999D01*
X0185391Y0023853D01*
X0185579Y0023702D01*
X0185764Y0023546D01*
X0185945Y0023386D01*
X0186122Y0023222D01*
X0186295Y0023053D01*
X0186464Y0022880D01*
X0186628Y0022703D01*
X0186788Y0022522D01*
X0186944Y0022337D01*
X0187095Y0022149D01*
X0187241Y0021956D01*
X0187382Y0021761D01*
X0187519Y0021561D01*
X0187651Y0021359D01*
X0187778Y0021153D01*
X0187899Y0020945D01*
X0188016Y0020733D01*
X0188127Y0020519D01*
X0188233Y0020301D01*
X0188334Y0020082D01*
X0188429Y0019860D01*
X0188518Y0019635D01*
X0188603Y0019409D01*
X0188681Y0019181D01*
X0188754Y0018950D01*
X0188821Y0018718D01*
X0188883Y0018485D01*
X0188939Y0018250D01*
X0188989Y0018013D01*
X0189033Y0017776D01*
X0189071Y0017537D01*
X0189104Y0017298D01*
X0189131Y0017058D01*
X0189151Y0016817D01*
X0189166Y0016576D01*
X0189175Y0016335D01*
X0189178Y0016093D01*
X0189175Y0015851D01*
X0189166Y0015610D01*
X0189151Y0015369D01*
X0189131Y0015128D01*
X0189104Y0014888D01*
X0189071Y0014649D01*
X0189033Y0014410D01*
X0188989Y0014173D01*
X0188939Y0013936D01*
X0188883Y0013701D01*
X0188821Y0013468D01*
X0188754Y0013236D01*
X0188681Y0013005D01*
X0188603Y0012777D01*
X0188518Y0012551D01*
X0188429Y0012326D01*
X0188334Y0012104D01*
X0188233Y0011885D01*
X0188127Y0011667D01*
X0188016Y0011453D01*
X0187899Y0011241D01*
X0187778Y0011033D01*
X0187651Y0010827D01*
X0187519Y0010625D01*
X0187382Y0010425D01*
X0187241Y0010230D01*
X0187095Y0010037D01*
X0186944Y0009849D01*
X0186788Y0009664D01*
X0186628Y0009483D01*
X0186464Y0009306D01*
X0186295Y0009133D01*
X0186122Y0008964D01*
X0185945Y0008800D01*
X0185764Y0008640D01*
X0185579Y0008484D01*
X0185391Y0008333D01*
X0185198Y0008187D01*
X0185003Y0008046D01*
X0184803Y0007909D01*
X0184601Y0007777D01*
X0184395Y0007650D01*
X0184187Y0007529D01*
X0183975Y0007412D01*
X0183761Y0007301D01*
X0183543Y0007195D01*
X0183324Y0007094D01*
X0183102Y0006999D01*
X0182877Y0006910D01*
X0182651Y0006825D01*
X0182423Y0006747D01*
X0182192Y0006674D01*
X0181960Y0006607D01*
X0181727Y0006545D01*
X0181492Y0006489D01*
X0181255Y0006439D01*
X0181018Y0006395D01*
X0180779Y0006357D01*
X0180540Y0006324D01*
X0180300Y0006297D01*
X0180059Y0006277D01*
X0179818Y0006262D01*
X0179577Y0006253D01*
X0179335Y0006250D01*
X0179093Y0006253D01*
X0178852Y0006262D01*
X0178611Y0006277D01*
X0178370Y0006297D01*
X0178130Y0006324D01*
X0177891Y0006357D01*
X0177652Y0006395D01*
X0177415Y0006439D01*
X0177178Y0006489D01*
X0176943Y0006545D01*
X0176710Y0006607D01*
X0176478Y0006674D01*
X0176247Y0006747D01*
X0176019Y0006825D01*
X0175793Y0006910D01*
X0175568Y0006999D01*
X0175346Y0007094D01*
X0175127Y0007195D01*
X0174909Y0007301D01*
X0174695Y0007412D01*
X0174483Y0007529D01*
X0174275Y0007650D01*
X0174069Y0007777D01*
X0173867Y0007909D01*
X0173667Y0008046D01*
X0173472Y0008187D01*
X0173279Y0008333D01*
X0173091Y0008484D01*
X0172906Y0008640D01*
X0172725Y0008800D01*
X0172548Y0008964D01*
X0172375Y0009133D01*
X0172206Y0009306D01*
X0172042Y0009483D01*
X0171882Y0009664D01*
X0171726Y0009849D01*
X0171575Y0010037D01*
X0171429Y0010230D01*
X0171288Y0010425D01*
X0171151Y0010625D01*
X0171019Y0010827D01*
X0170892Y0011033D01*
X0170771Y0011241D01*
X0170654Y0011453D01*
X0170543Y0011667D01*
X0170437Y0011885D01*
X0170336Y0012104D01*
X0170241Y0012326D01*
X0170152Y0012551D01*
X0170067Y0012777D01*
X0169989Y0013005D01*
X0169916Y0013236D01*
X0169849Y0013468D01*
X0169787Y0013701D01*
X0169731Y0013936D01*
X0169681Y0014173D01*
X0169637Y0014410D01*
X0169599Y0014649D01*
X0169566Y0014888D01*
X0169539Y0015128D01*
X0169519Y0015369D01*
X0169504Y0015610D01*
X0169495Y0015851D01*
X0169492Y0016093D01*
X0136992Y0011093D02*
X0136995Y0011335D01*
X0137004Y0011576D01*
X0137019Y0011817D01*
X0137039Y0012058D01*
X0137066Y0012298D01*
X0137099Y0012537D01*
X0137137Y0012776D01*
X0137181Y0013013D01*
X0137231Y0013250D01*
X0137287Y0013485D01*
X0137349Y0013718D01*
X0137416Y0013950D01*
X0137489Y0014181D01*
X0137567Y0014409D01*
X0137652Y0014635D01*
X0137741Y0014860D01*
X0137836Y0015082D01*
X0137937Y0015301D01*
X0138043Y0015519D01*
X0138154Y0015733D01*
X0138271Y0015945D01*
X0138392Y0016153D01*
X0138519Y0016359D01*
X0138651Y0016561D01*
X0138788Y0016761D01*
X0138929Y0016956D01*
X0139075Y0017149D01*
X0139226Y0017337D01*
X0139382Y0017522D01*
X0139542Y0017703D01*
X0139706Y0017880D01*
X0139875Y0018053D01*
X0140048Y0018222D01*
X0140225Y0018386D01*
X0140406Y0018546D01*
X0140591Y0018702D01*
X0140779Y0018853D01*
X0140972Y0018999D01*
X0141167Y0019140D01*
X0141367Y0019277D01*
X0141569Y0019409D01*
X0141775Y0019536D01*
X0141983Y0019657D01*
X0142195Y0019774D01*
X0142409Y0019885D01*
X0142627Y0019991D01*
X0142846Y0020092D01*
X0143068Y0020187D01*
X0143293Y0020276D01*
X0143519Y0020361D01*
X0143747Y0020439D01*
X0143978Y0020512D01*
X0144210Y0020579D01*
X0144443Y0020641D01*
X0144678Y0020697D01*
X0144915Y0020747D01*
X0145152Y0020791D01*
X0145391Y0020829D01*
X0145630Y0020862D01*
X0145870Y0020889D01*
X0146111Y0020909D01*
X0146352Y0020924D01*
X0146593Y0020933D01*
X0146835Y0020936D01*
X0147077Y0020933D01*
X0147318Y0020924D01*
X0147559Y0020909D01*
X0147800Y0020889D01*
X0148040Y0020862D01*
X0148279Y0020829D01*
X0148518Y0020791D01*
X0148755Y0020747D01*
X0148992Y0020697D01*
X0149227Y0020641D01*
X0149460Y0020579D01*
X0149692Y0020512D01*
X0149923Y0020439D01*
X0150151Y0020361D01*
X0150377Y0020276D01*
X0150602Y0020187D01*
X0150824Y0020092D01*
X0151043Y0019991D01*
X0151261Y0019885D01*
X0151475Y0019774D01*
X0151687Y0019657D01*
X0151895Y0019536D01*
X0152101Y0019409D01*
X0152303Y0019277D01*
X0152503Y0019140D01*
X0152698Y0018999D01*
X0152891Y0018853D01*
X0153079Y0018702D01*
X0153264Y0018546D01*
X0153445Y0018386D01*
X0153622Y0018222D01*
X0153795Y0018053D01*
X0153964Y0017880D01*
X0154128Y0017703D01*
X0154288Y0017522D01*
X0154444Y0017337D01*
X0154595Y0017149D01*
X0154741Y0016956D01*
X0154882Y0016761D01*
X0155019Y0016561D01*
X0155151Y0016359D01*
X0155278Y0016153D01*
X0155399Y0015945D01*
X0155516Y0015733D01*
X0155627Y0015519D01*
X0155733Y0015301D01*
X0155834Y0015082D01*
X0155929Y0014860D01*
X0156018Y0014635D01*
X0156103Y0014409D01*
X0156181Y0014181D01*
X0156254Y0013950D01*
X0156321Y0013718D01*
X0156383Y0013485D01*
X0156439Y0013250D01*
X0156489Y0013013D01*
X0156533Y0012776D01*
X0156571Y0012537D01*
X0156604Y0012298D01*
X0156631Y0012058D01*
X0156651Y0011817D01*
X0156666Y0011576D01*
X0156675Y0011335D01*
X0156678Y0011093D01*
X0156675Y0010851D01*
X0156666Y0010610D01*
X0156651Y0010369D01*
X0156631Y0010128D01*
X0156604Y0009888D01*
X0156571Y0009649D01*
X0156533Y0009410D01*
X0156489Y0009173D01*
X0156439Y0008936D01*
X0156383Y0008701D01*
X0156321Y0008468D01*
X0156254Y0008236D01*
X0156181Y0008005D01*
X0156103Y0007777D01*
X0156018Y0007551D01*
X0155929Y0007326D01*
X0155834Y0007104D01*
X0155733Y0006885D01*
X0155627Y0006667D01*
X0155516Y0006453D01*
X0155399Y0006241D01*
X0155278Y0006033D01*
X0155151Y0005827D01*
X0155019Y0005625D01*
X0154882Y0005425D01*
X0154741Y0005230D01*
X0154595Y0005037D01*
X0154444Y0004849D01*
X0154288Y0004664D01*
X0154128Y0004483D01*
X0153964Y0004306D01*
X0153795Y0004133D01*
X0153622Y0003964D01*
X0153445Y0003800D01*
X0153264Y0003640D01*
X0153079Y0003484D01*
X0152891Y0003333D01*
X0152698Y0003187D01*
X0152503Y0003046D01*
X0152303Y0002909D01*
X0152101Y0002777D01*
X0151895Y0002650D01*
X0151687Y0002529D01*
X0151475Y0002412D01*
X0151261Y0002301D01*
X0151043Y0002195D01*
X0150824Y0002094D01*
X0150602Y0001999D01*
X0150377Y0001910D01*
X0150151Y0001825D01*
X0149923Y0001747D01*
X0149692Y0001674D01*
X0149460Y0001607D01*
X0149227Y0001545D01*
X0148992Y0001489D01*
X0148755Y0001439D01*
X0148518Y0001395D01*
X0148279Y0001357D01*
X0148040Y0001324D01*
X0147800Y0001297D01*
X0147559Y0001277D01*
X0147318Y0001262D01*
X0147077Y0001253D01*
X0146835Y0001250D01*
X0146593Y0001253D01*
X0146352Y0001262D01*
X0146111Y0001277D01*
X0145870Y0001297D01*
X0145630Y0001324D01*
X0145391Y0001357D01*
X0145152Y0001395D01*
X0144915Y0001439D01*
X0144678Y0001489D01*
X0144443Y0001545D01*
X0144210Y0001607D01*
X0143978Y0001674D01*
X0143747Y0001747D01*
X0143519Y0001825D01*
X0143293Y0001910D01*
X0143068Y0001999D01*
X0142846Y0002094D01*
X0142627Y0002195D01*
X0142409Y0002301D01*
X0142195Y0002412D01*
X0141983Y0002529D01*
X0141775Y0002650D01*
X0141569Y0002777D01*
X0141367Y0002909D01*
X0141167Y0003046D01*
X0140972Y0003187D01*
X0140779Y0003333D01*
X0140591Y0003484D01*
X0140406Y0003640D01*
X0140225Y0003800D01*
X0140048Y0003964D01*
X0139875Y0004133D01*
X0139706Y0004306D01*
X0139542Y0004483D01*
X0139382Y0004664D01*
X0139226Y0004849D01*
X0139075Y0005037D01*
X0138929Y0005230D01*
X0138788Y0005425D01*
X0138651Y0005625D01*
X0138519Y0005827D01*
X0138392Y0006033D01*
X0138271Y0006241D01*
X0138154Y0006453D01*
X0138043Y0006667D01*
X0137937Y0006885D01*
X0137836Y0007104D01*
X0137741Y0007326D01*
X0137652Y0007551D01*
X0137567Y0007777D01*
X0137489Y0008005D01*
X0137416Y0008236D01*
X0137349Y0008468D01*
X0137287Y0008701D01*
X0137231Y0008936D01*
X0137181Y0009173D01*
X0137137Y0009410D01*
X0137099Y0009649D01*
X0137066Y0009888D01*
X0137039Y0010128D01*
X0137019Y0010369D01*
X0137004Y0010610D01*
X0136995Y0010851D01*
X0136992Y0011093D01*
X0044431Y0042843D02*
X0041428Y0042843D01*
X0042930Y0042843D02*
X0042930Y0047346D01*
X0041428Y0045845D01*
X0039827Y0046596D02*
X0039827Y0043593D01*
X0039076Y0042843D01*
X0036825Y0042843D01*
X0036825Y0047346D01*
X0039076Y0047346D01*
X0039827Y0046596D01*
X0035223Y0047346D02*
X0032221Y0047346D01*
X0032221Y0042843D01*
X0035223Y0042843D01*
X0033722Y0045094D02*
X0032221Y0045094D01*
X0030619Y0042843D02*
X0027617Y0042843D01*
X0027617Y0047346D01*
X0007417Y0066793D02*
X0007417Y0067544D01*
X0006666Y0068294D01*
X0002913Y0068294D01*
X0002913Y0067544D02*
X0002913Y0069045D01*
X0003663Y0070646D02*
X0002913Y0071397D01*
X0002913Y0072898D01*
X0003663Y0073649D01*
X0004414Y0073649D01*
X0007417Y0070646D01*
X0007417Y0073649D01*
X0007417Y0066793D02*
X0006666Y0066043D01*
D13*
X0111867Y0164793D02*
X0117867Y0164793D01*
X0117867Y0167293D02*
X0111867Y0167293D01*
X0076167Y0168093D02*
X0076167Y0174093D01*
X0073667Y0174093D02*
X0073667Y0168093D01*
X0148567Y0168093D02*
X0148567Y0174093D01*
X0151067Y0174093D02*
X0151067Y0168093D01*
X0151067Y0159093D02*
X0151067Y0153093D01*
X0148567Y0153093D02*
X0148567Y0159093D01*
D14*
X0181064Y0158044D02*
X0181648Y0158628D01*
X0182815Y0158628D01*
X0183399Y0158044D01*
X0183399Y0156293D01*
X0183399Y0157460D02*
X0184567Y0158628D01*
X0184567Y0159884D02*
X0182231Y0162219D01*
X0181648Y0162219D01*
X0181064Y0161635D01*
X0181064Y0160467D01*
X0181648Y0159884D01*
X0181064Y0158044D02*
X0181064Y0156293D01*
X0184567Y0156293D01*
X0184567Y0159884D02*
X0184567Y0162219D01*
X0188064Y0161644D02*
X0188648Y0162228D01*
X0189231Y0162228D01*
X0189815Y0161644D01*
X0190399Y0162228D01*
X0190983Y0162228D01*
X0191567Y0161644D01*
X0191567Y0160476D01*
X0190983Y0159893D01*
X0189815Y0161060D02*
X0189815Y0161644D01*
X0188064Y0161644D02*
X0188064Y0160476D01*
X0188648Y0159893D01*
X0188648Y0163484D02*
X0188064Y0164067D01*
X0188064Y0165235D01*
X0188648Y0165819D01*
X0189231Y0165819D01*
X0189815Y0165235D01*
X0190399Y0165819D01*
X0190983Y0165819D01*
X0191567Y0165235D01*
X0191567Y0164067D01*
X0190983Y0163484D01*
X0189815Y0164651D02*
X0189815Y0165235D01*
X0188648Y0167075D02*
X0188064Y0167658D01*
X0188064Y0168826D01*
X0188648Y0169410D01*
X0190983Y0167075D01*
X0191567Y0167658D01*
X0191567Y0168826D01*
X0190983Y0169410D01*
X0188648Y0169410D01*
X0188648Y0167075D02*
X0190983Y0167075D01*
X0165409Y0059896D02*
X0163658Y0058144D01*
X0165993Y0058144D01*
X0165409Y0056393D02*
X0165409Y0059896D01*
X0162402Y0059312D02*
X0162402Y0058144D01*
X0161818Y0057560D01*
X0160067Y0057560D01*
X0161234Y0057560D02*
X0162402Y0056393D01*
X0160067Y0056393D02*
X0160067Y0059896D01*
X0161818Y0059896D01*
X0162402Y0059312D01*
X0161818Y0044896D02*
X0160067Y0044896D01*
X0160067Y0041393D01*
X0160067Y0042560D02*
X0161818Y0042560D01*
X0162402Y0043144D01*
X0162402Y0044312D01*
X0161818Y0044896D01*
X0163658Y0044896D02*
X0163658Y0043144D01*
X0164825Y0043728D01*
X0165409Y0043728D01*
X0165993Y0043144D01*
X0165993Y0041976D01*
X0165409Y0041393D01*
X0164242Y0041393D01*
X0163658Y0041976D01*
X0162402Y0041393D02*
X0161234Y0042560D01*
X0163658Y0044896D02*
X0165993Y0044896D01*
X0173863Y0029538D02*
X0173863Y0023399D01*
X0174630Y0024167D02*
X0175397Y0024934D01*
X0175397Y0025701D01*
X0174630Y0026468D01*
X0173095Y0026468D01*
X0172328Y0027236D01*
X0172328Y0028003D01*
X0173095Y0028770D01*
X0174630Y0028770D01*
X0175397Y0028003D01*
X0176932Y0026468D02*
X0179234Y0026468D01*
X0180001Y0025701D01*
X0180001Y0024934D01*
X0179234Y0024167D01*
X0177699Y0024167D01*
X0176932Y0024934D01*
X0176932Y0026468D01*
X0178467Y0028003D01*
X0180001Y0028770D01*
X0174630Y0024167D02*
X0173095Y0024167D01*
X0172328Y0024934D01*
X0170793Y0024934D02*
X0170026Y0024167D01*
X0168491Y0024167D01*
X0167724Y0024934D01*
X0167724Y0028770D01*
X0170793Y0028770D02*
X0170793Y0024934D01*
X0147501Y0023770D02*
X0144432Y0023770D01*
X0144432Y0021468D01*
X0145967Y0022236D01*
X0146734Y0022236D01*
X0147501Y0021468D01*
X0147501Y0019934D01*
X0146734Y0019167D01*
X0145199Y0019167D01*
X0144432Y0019934D01*
X0142897Y0019934D02*
X0142897Y0020701D01*
X0142130Y0021468D01*
X0140595Y0021468D01*
X0139828Y0022236D01*
X0139828Y0023003D01*
X0140595Y0023770D01*
X0142130Y0023770D01*
X0142897Y0023003D01*
X0141363Y0024538D02*
X0141363Y0018399D01*
X0142130Y0019167D02*
X0140595Y0019167D01*
X0139828Y0019934D01*
X0138293Y0019934D02*
X0138293Y0023770D01*
X0135224Y0023770D02*
X0135224Y0019934D01*
X0135991Y0019167D01*
X0137526Y0019167D01*
X0138293Y0019934D01*
X0142130Y0019167D02*
X0142897Y0019934D01*
X0069528Y0043809D02*
X0063390Y0043809D01*
X0064157Y0043042D02*
X0064157Y0044576D01*
X0064925Y0045344D01*
X0064925Y0046878D02*
X0064157Y0047646D01*
X0064157Y0049180D01*
X0064925Y0049948D01*
X0065692Y0049948D01*
X0066459Y0049180D01*
X0067227Y0049948D01*
X0067994Y0049948D01*
X0068761Y0049180D01*
X0068761Y0047646D01*
X0067994Y0046878D01*
X0067994Y0045344D02*
X0067227Y0045344D01*
X0066459Y0044576D01*
X0066459Y0043042D01*
X0065692Y0042274D01*
X0064925Y0042274D01*
X0064157Y0043042D01*
X0064157Y0040740D02*
X0067994Y0040740D01*
X0068761Y0039972D01*
X0068761Y0038438D01*
X0067994Y0037670D01*
X0064157Y0037670D01*
X0067994Y0042274D02*
X0068761Y0043042D01*
X0068761Y0044576D01*
X0067994Y0045344D01*
X0066459Y0048413D02*
X0066459Y0049180D01*
X0058667Y0054110D02*
X0055164Y0054110D01*
X0055164Y0055862D01*
X0055748Y0056446D01*
X0056915Y0056446D01*
X0057499Y0055862D01*
X0057499Y0054110D01*
X0057499Y0055278D02*
X0058667Y0056446D01*
X0058083Y0057701D02*
X0058667Y0058285D01*
X0058667Y0059453D01*
X0058083Y0060037D01*
X0057499Y0060037D01*
X0056915Y0059453D01*
X0056915Y0058869D01*
X0056915Y0059453D02*
X0056331Y0060037D01*
X0055748Y0060037D01*
X0055164Y0059453D01*
X0055164Y0058285D01*
X0055748Y0057701D01*
X0050868Y0188497D02*
X0051635Y0189265D01*
X0051635Y0190032D01*
X0050868Y0190799D01*
X0047031Y0190799D01*
X0047031Y0190032D02*
X0047031Y0191567D01*
X0048566Y0193101D02*
X0047031Y0194636D01*
X0051635Y0194636D01*
X0051635Y0196170D02*
X0051635Y0193101D01*
D15*
X0093733Y0148848D02*
X0093733Y0147848D01*
X0093733Y0148848D02*
X0100733Y0148848D01*
X0100735Y0148708D01*
X0100741Y0148568D01*
X0100751Y0148428D01*
X0100764Y0148288D01*
X0100782Y0148149D01*
X0100804Y0148010D01*
X0100829Y0147873D01*
X0100858Y0147735D01*
X0100891Y0147599D01*
X0100928Y0147464D01*
X0100969Y0147330D01*
X0101014Y0147197D01*
X0101062Y0147065D01*
X0101114Y0146935D01*
X0101169Y0146806D01*
X0101228Y0146679D01*
X0101291Y0146553D01*
X0101357Y0146429D01*
X0101426Y0146308D01*
X0101499Y0146188D01*
X0101576Y0146070D01*
X0101655Y0145955D01*
X0101738Y0145841D01*
X0101824Y0145731D01*
X0101913Y0145622D01*
X0102005Y0145516D01*
X0102100Y0145413D01*
X0102197Y0145312D01*
X0102298Y0145215D01*
X0102401Y0145120D01*
X0102507Y0145028D01*
X0102616Y0144939D01*
X0102726Y0144853D01*
X0102840Y0144770D01*
X0102955Y0144691D01*
X0103073Y0144614D01*
X0103193Y0144541D01*
X0103314Y0144472D01*
X0103438Y0144406D01*
X0103564Y0144343D01*
X0103691Y0144284D01*
X0103820Y0144229D01*
X0103950Y0144177D01*
X0104082Y0144129D01*
X0104215Y0144084D01*
X0104349Y0144043D01*
X0104484Y0144006D01*
X0104620Y0143973D01*
X0104758Y0143944D01*
X0104895Y0143919D01*
X0105034Y0143897D01*
X0105173Y0143879D01*
X0105313Y0143866D01*
X0105453Y0143856D01*
X0105593Y0143850D01*
X0105733Y0143848D01*
X0105873Y0143850D01*
X0106013Y0143856D01*
X0106153Y0143866D01*
X0106293Y0143879D01*
X0106432Y0143897D01*
X0106571Y0143919D01*
X0106708Y0143944D01*
X0106846Y0143973D01*
X0106982Y0144006D01*
X0107117Y0144043D01*
X0107251Y0144084D01*
X0107384Y0144129D01*
X0107516Y0144177D01*
X0107646Y0144229D01*
X0107775Y0144284D01*
X0107902Y0144343D01*
X0108028Y0144406D01*
X0108152Y0144472D01*
X0108273Y0144541D01*
X0108393Y0144614D01*
X0108511Y0144691D01*
X0108626Y0144770D01*
X0108740Y0144853D01*
X0108850Y0144939D01*
X0108959Y0145028D01*
X0109065Y0145120D01*
X0109168Y0145215D01*
X0109269Y0145312D01*
X0109366Y0145413D01*
X0109461Y0145516D01*
X0109553Y0145622D01*
X0109642Y0145731D01*
X0109728Y0145841D01*
X0109811Y0145955D01*
X0109890Y0146070D01*
X0109967Y0146188D01*
X0110040Y0146308D01*
X0110109Y0146429D01*
X0110175Y0146553D01*
X0110238Y0146679D01*
X0110297Y0146806D01*
X0110352Y0146935D01*
X0110404Y0147065D01*
X0110452Y0147197D01*
X0110497Y0147330D01*
X0110538Y0147464D01*
X0110575Y0147599D01*
X0110608Y0147735D01*
X0110637Y0147873D01*
X0110662Y0148010D01*
X0110684Y0148149D01*
X0110702Y0148288D01*
X0110715Y0148428D01*
X0110725Y0148568D01*
X0110731Y0148708D01*
X0110733Y0148848D01*
X0117733Y0148848D01*
X0117733Y0147848D01*
X0197367Y0143593D02*
X0197367Y0138593D01*
X0199867Y0136093D01*
X0197367Y0133593D01*
X0197367Y0128593D01*
X0199867Y0126093D01*
X0197367Y0123593D01*
X0197367Y0118593D01*
X0199867Y0116093D01*
X0197367Y0113593D01*
X0197367Y0108593D01*
X0199867Y0106093D01*
X0197367Y0103593D01*
X0197367Y0098593D01*
X0199867Y0096093D01*
X0197367Y0093593D01*
X0197367Y0088593D01*
X0199867Y0086093D01*
X0197367Y0083593D01*
X0197367Y0078593D01*
X0199867Y0076093D01*
X0197367Y0073593D01*
X0197367Y0068593D01*
X0199867Y0066093D01*
X0204867Y0066093D01*
X0207367Y0068593D01*
X0207367Y0073593D01*
X0204867Y0076093D01*
X0207367Y0078593D01*
X0207367Y0083593D01*
X0204867Y0086093D01*
X0207367Y0088593D01*
X0207367Y0093593D01*
X0204867Y0096093D01*
X0207367Y0098593D01*
X0207367Y0103593D01*
X0204867Y0106093D01*
X0207367Y0108593D01*
X0207367Y0113593D01*
X0204867Y0116093D01*
X0207367Y0118593D01*
X0207367Y0123593D01*
X0204867Y0126093D01*
X0207367Y0128593D01*
X0207367Y0133593D01*
X0204867Y0136093D01*
X0207367Y0138593D01*
X0207367Y0143593D01*
X0204867Y0146093D01*
X0199867Y0146093D01*
X0197367Y0143593D01*
X0199867Y0056093D02*
X0197367Y0053593D01*
X0197367Y0048593D01*
X0199867Y0046093D01*
X0197367Y0043593D01*
X0197367Y0038593D01*
X0199867Y0036093D01*
X0197367Y0033593D01*
X0197367Y0028593D01*
X0199867Y0026093D01*
X0197367Y0023593D01*
X0197367Y0018593D01*
X0199867Y0016093D01*
X0197367Y0013593D01*
X0197367Y0008593D01*
X0199867Y0006093D01*
X0204867Y0006093D01*
X0207367Y0008593D01*
X0207367Y0013593D01*
X0204867Y0016093D01*
X0207367Y0018593D01*
X0207367Y0023593D01*
X0204867Y0026093D01*
X0207367Y0028593D01*
X0207367Y0033593D01*
X0204867Y0036093D01*
X0207367Y0038593D01*
X0207367Y0043593D01*
X0204867Y0046093D01*
X0207367Y0048593D01*
X0207367Y0053593D01*
X0204867Y0056093D01*
X0199867Y0056093D01*
X0117733Y0009848D02*
X0117733Y0008848D01*
X0093733Y0008848D01*
X0093733Y0009848D01*
X0019867Y0068593D02*
X0019867Y0073593D01*
X0017367Y0076093D01*
X0019867Y0078593D01*
X0019867Y0083593D01*
X0017367Y0086093D01*
X0019867Y0088593D01*
X0019867Y0093593D01*
X0017367Y0096093D01*
X0019867Y0098593D01*
X0019867Y0103593D01*
X0017367Y0106093D01*
X0019867Y0108593D01*
X0019867Y0113593D01*
X0017367Y0116093D01*
X0019867Y0118593D01*
X0019867Y0123593D01*
X0017367Y0126093D01*
X0019867Y0128593D01*
X0019867Y0133593D01*
X0017367Y0136093D01*
X0019867Y0138593D01*
X0019867Y0143593D01*
X0017367Y0146093D01*
X0012367Y0146093D01*
X0009867Y0143593D01*
X0009867Y0138593D01*
X0012367Y0136093D01*
X0009867Y0133593D01*
X0009867Y0128593D01*
X0012367Y0126093D01*
X0009867Y0123593D01*
X0009867Y0118593D01*
X0012367Y0116093D01*
X0009867Y0113593D01*
X0009867Y0108593D01*
X0012367Y0106093D01*
X0009867Y0103593D01*
X0009867Y0098593D01*
X0012367Y0096093D01*
X0009867Y0093593D01*
X0009867Y0088593D01*
X0012367Y0086093D01*
X0009867Y0083593D01*
X0009867Y0078593D01*
X0012367Y0076093D01*
X0009867Y0073593D01*
X0009867Y0068593D01*
X0012367Y0066093D01*
X0017367Y0066093D01*
X0019867Y0068593D01*
D16*
X0012920Y0037124D02*
X0013019Y0036955D01*
X0013123Y0036789D01*
X0013230Y0036625D01*
X0013341Y0036464D01*
X0013456Y0036306D01*
X0013575Y0036151D01*
X0013698Y0035998D01*
X0013824Y0035849D01*
X0013954Y0035703D01*
X0014088Y0035560D01*
X0014225Y0035420D01*
X0014365Y0035284D01*
X0014509Y0035151D01*
X0014656Y0035022D01*
X0014806Y0034896D01*
X0014959Y0034775D01*
X0015115Y0034656D01*
X0015274Y0034542D01*
X0015435Y0034432D01*
X0015600Y0034326D01*
X0015766Y0034223D01*
X0015936Y0034125D01*
X0016107Y0034031D01*
X0016281Y0033941D01*
X0016457Y0033856D01*
X0016635Y0033774D01*
X0016815Y0033698D01*
X0016997Y0033625D01*
X0017180Y0033557D01*
X0017365Y0033494D01*
X0017552Y0033435D01*
X0017740Y0033381D01*
X0017929Y0033331D01*
X0018119Y0033286D01*
X0018311Y0033246D01*
X0018503Y0033210D01*
X0018696Y0033179D01*
X0018890Y0033153D01*
X0019085Y0033131D01*
X0019280Y0033115D01*
X0019475Y0033103D01*
X0019671Y0033095D01*
X0019866Y0033093D01*
X0012808Y0044858D02*
X0012901Y0045026D01*
X0012997Y0045192D01*
X0013097Y0045356D01*
X0013202Y0045517D01*
X0013310Y0045676D01*
X0013422Y0045832D01*
X0013538Y0045986D01*
X0013657Y0046136D01*
X0013780Y0046284D01*
X0013906Y0046429D01*
X0014036Y0046570D01*
X0014169Y0046709D01*
X0014306Y0046844D01*
X0014446Y0046976D01*
X0014588Y0047104D01*
X0014734Y0047229D01*
X0014883Y0047351D01*
X0015035Y0047469D01*
X0015189Y0047583D01*
X0015347Y0047693D01*
X0015506Y0047800D01*
X0015669Y0047903D01*
X0015834Y0048002D01*
X0016001Y0048097D01*
X0016170Y0048187D01*
X0016341Y0048274D01*
X0016515Y0048357D01*
X0016690Y0048435D01*
X0016868Y0048509D01*
X0017047Y0048579D01*
X0017227Y0048645D01*
X0017409Y0048706D01*
X0017593Y0048763D01*
X0017778Y0048815D01*
X0017964Y0048863D01*
X0018151Y0048907D01*
X0018339Y0048946D01*
X0018528Y0048980D01*
X0018718Y0049010D01*
X0018908Y0049035D01*
X0019099Y0049056D01*
X0019291Y0049072D01*
X0019483Y0049084D01*
X0019675Y0049091D01*
X0019867Y0049093D01*
X0025974Y0035925D02*
X0025847Y0035779D01*
X0025718Y0035637D01*
X0025584Y0035497D01*
X0025448Y0035361D01*
X0025308Y0035228D01*
X0025165Y0035098D01*
X0025018Y0034972D01*
X0024869Y0034850D01*
X0024717Y0034731D01*
X0024562Y0034616D01*
X0024405Y0034504D01*
X0024245Y0034397D01*
X0024082Y0034293D01*
X0023916Y0034194D01*
X0023749Y0034098D01*
X0023579Y0034006D01*
X0023407Y0033919D01*
X0023233Y0033835D01*
X0023057Y0033756D01*
X0022879Y0033682D01*
X0022699Y0033611D01*
X0022518Y0033545D01*
X0022335Y0033483D01*
X0022151Y0033426D01*
X0021965Y0033373D01*
X0021778Y0033325D01*
X0021590Y0033281D01*
X0021401Y0033242D01*
X0021211Y0033207D01*
X0021021Y0033177D01*
X0020830Y0033151D01*
X0020638Y0033130D01*
X0020445Y0033114D01*
X0020253Y0033102D01*
X0020060Y0033095D01*
X0019867Y0033093D01*
X0026013Y0046215D02*
X0025886Y0046363D01*
X0025756Y0046508D01*
X0025623Y0046649D01*
X0025486Y0046788D01*
X0025346Y0046923D01*
X0025202Y0047054D01*
X0025055Y0047182D01*
X0024906Y0047307D01*
X0024753Y0047428D01*
X0024598Y0047545D01*
X0024439Y0047658D01*
X0024278Y0047767D01*
X0024114Y0047872D01*
X0023948Y0047974D01*
X0023779Y0048071D01*
X0023609Y0048164D01*
X0023435Y0048253D01*
X0023260Y0048338D01*
X0023083Y0048418D01*
X0022904Y0048494D01*
X0022723Y0048566D01*
X0022540Y0048633D01*
X0022356Y0048696D01*
X0022170Y0048754D01*
X0021983Y0048808D01*
X0021795Y0048857D01*
X0021605Y0048902D01*
X0021415Y0048942D01*
X0021223Y0048977D01*
X0021031Y0049008D01*
X0020838Y0049034D01*
X0020644Y0049055D01*
X0020450Y0049072D01*
X0020256Y0049084D01*
X0020062Y0049091D01*
X0019867Y0049093D01*
X0162920Y0192124D02*
X0163019Y0191955D01*
X0163123Y0191789D01*
X0163230Y0191625D01*
X0163341Y0191464D01*
X0163456Y0191306D01*
X0163575Y0191151D01*
X0163698Y0190998D01*
X0163824Y0190849D01*
X0163954Y0190703D01*
X0164088Y0190560D01*
X0164225Y0190420D01*
X0164365Y0190284D01*
X0164509Y0190151D01*
X0164656Y0190022D01*
X0164806Y0189896D01*
X0164959Y0189775D01*
X0165115Y0189656D01*
X0165274Y0189542D01*
X0165435Y0189432D01*
X0165600Y0189326D01*
X0165766Y0189223D01*
X0165936Y0189125D01*
X0166107Y0189031D01*
X0166281Y0188941D01*
X0166457Y0188856D01*
X0166635Y0188774D01*
X0166815Y0188698D01*
X0166997Y0188625D01*
X0167180Y0188557D01*
X0167365Y0188494D01*
X0167552Y0188435D01*
X0167740Y0188381D01*
X0167929Y0188331D01*
X0168119Y0188286D01*
X0168311Y0188246D01*
X0168503Y0188210D01*
X0168696Y0188179D01*
X0168890Y0188153D01*
X0169085Y0188131D01*
X0169280Y0188115D01*
X0169475Y0188103D01*
X0169671Y0188095D01*
X0169866Y0188093D01*
X0162808Y0199858D02*
X0162901Y0200026D01*
X0162997Y0200192D01*
X0163097Y0200356D01*
X0163202Y0200517D01*
X0163310Y0200676D01*
X0163422Y0200832D01*
X0163538Y0200986D01*
X0163657Y0201136D01*
X0163780Y0201284D01*
X0163906Y0201429D01*
X0164036Y0201570D01*
X0164169Y0201709D01*
X0164306Y0201844D01*
X0164446Y0201976D01*
X0164588Y0202104D01*
X0164734Y0202229D01*
X0164883Y0202351D01*
X0165035Y0202469D01*
X0165189Y0202583D01*
X0165347Y0202693D01*
X0165506Y0202800D01*
X0165669Y0202903D01*
X0165834Y0203002D01*
X0166001Y0203097D01*
X0166170Y0203187D01*
X0166341Y0203274D01*
X0166515Y0203357D01*
X0166690Y0203435D01*
X0166868Y0203509D01*
X0167047Y0203579D01*
X0167227Y0203645D01*
X0167409Y0203706D01*
X0167593Y0203763D01*
X0167778Y0203815D01*
X0167964Y0203863D01*
X0168151Y0203907D01*
X0168339Y0203946D01*
X0168528Y0203980D01*
X0168718Y0204010D01*
X0168908Y0204035D01*
X0169099Y0204056D01*
X0169291Y0204072D01*
X0169483Y0204084D01*
X0169675Y0204091D01*
X0169867Y0204093D01*
X0175974Y0190925D02*
X0175847Y0190779D01*
X0175718Y0190637D01*
X0175584Y0190497D01*
X0175448Y0190361D01*
X0175308Y0190228D01*
X0175165Y0190098D01*
X0175018Y0189972D01*
X0174869Y0189850D01*
X0174717Y0189731D01*
X0174562Y0189616D01*
X0174405Y0189504D01*
X0174245Y0189397D01*
X0174082Y0189293D01*
X0173916Y0189194D01*
X0173749Y0189098D01*
X0173579Y0189006D01*
X0173407Y0188919D01*
X0173233Y0188835D01*
X0173057Y0188756D01*
X0172879Y0188682D01*
X0172699Y0188611D01*
X0172518Y0188545D01*
X0172335Y0188483D01*
X0172151Y0188426D01*
X0171965Y0188373D01*
X0171778Y0188325D01*
X0171590Y0188281D01*
X0171401Y0188242D01*
X0171211Y0188207D01*
X0171021Y0188177D01*
X0170830Y0188151D01*
X0170638Y0188130D01*
X0170445Y0188114D01*
X0170253Y0188102D01*
X0170060Y0188095D01*
X0169867Y0188093D01*
X0176013Y0201215D02*
X0175886Y0201363D01*
X0175756Y0201508D01*
X0175623Y0201649D01*
X0175486Y0201788D01*
X0175346Y0201923D01*
X0175202Y0202054D01*
X0175055Y0202182D01*
X0174906Y0202307D01*
X0174753Y0202428D01*
X0174598Y0202545D01*
X0174439Y0202658D01*
X0174278Y0202767D01*
X0174114Y0202872D01*
X0173948Y0202974D01*
X0173779Y0203071D01*
X0173609Y0203164D01*
X0173435Y0203253D01*
X0173260Y0203338D01*
X0173083Y0203418D01*
X0172904Y0203494D01*
X0172723Y0203566D01*
X0172540Y0203633D01*
X0172356Y0203696D01*
X0172170Y0203754D01*
X0171983Y0203808D01*
X0171795Y0203857D01*
X0171605Y0203902D01*
X0171415Y0203942D01*
X0171223Y0203977D01*
X0171031Y0204008D01*
X0170838Y0204034D01*
X0170644Y0204055D01*
X0170450Y0204072D01*
X0170256Y0204084D01*
X0170062Y0204091D01*
X0169867Y0204093D01*
D17*
X0189867Y0176843D03*
X0189867Y0155343D03*
X0049867Y0061843D03*
X0049867Y0040343D03*
D18*
X0159117Y0036093D03*
X0159117Y0051093D03*
X0180617Y0051093D03*
X0180617Y0036093D03*
D19*
X0107666Y0132319D02*
X0105831Y0132319D01*
X0105831Y0133787D02*
X0107666Y0133787D01*
X0108033Y0133420D01*
X0108033Y0132686D01*
X0107666Y0132319D01*
X0107666Y0134529D02*
X0108033Y0134896D01*
X0108033Y0135630D01*
X0107666Y0135997D01*
X0107299Y0135997D01*
X0106932Y0135630D01*
X0106932Y0134896D01*
X0106565Y0134529D01*
X0106198Y0134529D01*
X0105831Y0134896D01*
X0105831Y0135630D01*
X0106198Y0135997D01*
X0105464Y0135263D02*
X0108400Y0135263D01*
X0106932Y0136739D02*
X0106932Y0138206D01*
X0108033Y0137839D02*
X0105831Y0137839D01*
X0106932Y0136739D01*
M02*
