G75*
%MOIN*%
%OFA0B0*%
%FSLAX25Y25*%
%IPPOS*%
%LPD*%
%AMOC8*
5,1,8,0,0,1.08239X$1,22.5*
%
%ADD10C,0.00000*%
%ADD11OC8,0.04800*%
%ADD12C,0.04800*%
%ADD13OC8,0.05200*%
%ADD14C,0.05150*%
%ADD15C,0.11220*%
%ADD16C,0.07400*%
%ADD17R,0.05150X0.05150*%
%ADD18R,0.05937X0.05937*%
%ADD19C,0.03969*%
%ADD20C,0.05200*%
%ADD21C,0.01000*%
%ADD22C,0.01600*%
%ADD23C,0.03562*%
D10*
X0009867Y0006093D02*
X0009867Y0202943D01*
X0206717Y0202943D01*
X0206717Y0006093D01*
X0009867Y0006093D01*
D11*
X0148367Y0081093D03*
X0139867Y0187593D03*
D12*
X0139867Y0194593D03*
X0141367Y0081093D03*
D13*
X0154867Y0051093D03*
X0154867Y0036093D03*
X0184867Y0036093D03*
X0184867Y0051093D03*
X0189867Y0151093D03*
X0189867Y0181093D03*
X0174867Y0196093D03*
X0164867Y0196093D03*
X0154867Y0171093D03*
X0144867Y0171093D03*
X0144867Y0156093D03*
X0154867Y0156093D03*
X0114867Y0161093D03*
X0114867Y0171093D03*
X0109867Y0178593D03*
X0114867Y0186093D03*
X0104867Y0186093D03*
X0079867Y0171093D03*
X0069867Y0171093D03*
X0049867Y0066093D03*
X0024867Y0041093D03*
X0014867Y0041093D03*
X0049867Y0036093D03*
D14*
X0043371Y0176093D03*
X0038646Y0179242D03*
X0043371Y0182392D03*
X0038646Y0185541D03*
X0043371Y0188691D03*
D15*
X0023292Y0196762D03*
X0023292Y0168022D03*
D16*
X0014867Y0141093D03*
X0014867Y0131093D03*
X0014867Y0121093D03*
X0014867Y0111093D03*
X0014867Y0101093D03*
X0014867Y0091093D03*
X0014867Y0081093D03*
X0014867Y0071093D03*
X0202367Y0071093D03*
X0202367Y0081093D03*
X0202367Y0091093D03*
X0202367Y0101093D03*
X0202367Y0111093D03*
X0202367Y0121093D03*
X0202367Y0131093D03*
X0202367Y0141093D03*
X0202367Y0051093D03*
X0202367Y0041093D03*
X0202367Y0031093D03*
X0202367Y0021093D03*
X0202367Y0011093D03*
D17*
X0079945Y0196093D03*
X0072071Y0196093D03*
X0064197Y0196093D03*
D18*
X0056323Y0196093D03*
X0087819Y0196093D03*
X0173430Y0016093D03*
X0183272Y0016093D03*
X0150772Y0011093D03*
X0140930Y0011093D03*
D19*
X0074867Y0051250D03*
X0074867Y0061093D03*
X0074867Y0070935D03*
D20*
X0088133Y0073848D02*
X0093333Y0073848D01*
X0093333Y0063848D02*
X0088133Y0063848D01*
X0088133Y0053848D02*
X0093333Y0053848D01*
X0093333Y0043848D02*
X0088133Y0043848D01*
X0088133Y0033848D02*
X0093333Y0033848D01*
X0093333Y0023848D02*
X0088133Y0023848D01*
X0088133Y0013848D02*
X0093333Y0013848D01*
X0118133Y0013848D02*
X0123333Y0013848D01*
X0123333Y0023848D02*
X0118133Y0023848D01*
X0118133Y0033848D02*
X0123333Y0033848D01*
X0123333Y0043848D02*
X0118133Y0043848D01*
X0118133Y0053848D02*
X0123333Y0053848D01*
X0123333Y0063848D02*
X0118133Y0063848D01*
X0118133Y0073848D02*
X0123333Y0073848D01*
X0123333Y0083848D02*
X0118133Y0083848D01*
X0118133Y0093848D02*
X0123333Y0093848D01*
X0123333Y0103848D02*
X0118133Y0103848D01*
X0118133Y0113848D02*
X0123333Y0113848D01*
X0123333Y0123848D02*
X0118133Y0123848D01*
X0118133Y0133848D02*
X0123333Y0133848D01*
X0123333Y0143848D02*
X0118133Y0143848D01*
X0093333Y0143848D02*
X0088133Y0143848D01*
X0088133Y0133848D02*
X0093333Y0133848D01*
X0093333Y0123848D02*
X0088133Y0123848D01*
X0088133Y0113848D02*
X0093333Y0113848D01*
X0093333Y0103848D02*
X0088133Y0103848D01*
X0088133Y0093848D02*
X0093333Y0093848D01*
X0093333Y0083848D02*
X0088133Y0083848D01*
D21*
X0080067Y0170793D02*
X0079867Y0171093D01*
D22*
X0082288Y0178593D02*
X0109867Y0178593D01*
X0104867Y0186093D02*
X0113367Y0194593D01*
X0139867Y0194593D01*
X0146367Y0194593D01*
X0154867Y0186093D01*
X0154867Y0171093D01*
X0164867Y0181093D01*
X0164867Y0196093D01*
X0174867Y0196093D02*
X0184867Y0196093D01*
X0189867Y0191093D01*
X0189867Y0181093D01*
X0154867Y0156093D02*
X0142367Y0143593D01*
X0122367Y0143593D01*
X0122111Y0143848D01*
X0120733Y0143848D01*
X0113242Y0136357D01*
X0113242Y0097968D01*
X0120733Y0093848D01*
X0121486Y0093848D01*
X0121867Y0093468D01*
X0120733Y0083848D02*
X0109867Y0094715D01*
X0109867Y0151093D01*
X0106992Y0143968D02*
X0106992Y0089968D01*
X0120733Y0073848D01*
X0120733Y0063848D02*
X0123489Y0061093D01*
X0129867Y0061093D01*
X0141367Y0072593D01*
X0141367Y0081093D01*
X0151867Y0065093D02*
X0163867Y0065093D01*
X0171867Y0057093D01*
X0171867Y0044093D01*
X0174867Y0041093D02*
X0202367Y0041093D01*
X0202367Y0051093D02*
X0184867Y0051093D01*
X0184867Y0063593D01*
X0172367Y0076093D01*
X0172367Y0113593D01*
X0178742Y0116218D02*
X0188742Y0116218D01*
X0194867Y0110093D01*
X0194867Y0088593D01*
X0202367Y0081093D01*
X0202367Y0121093D02*
X0164867Y0121093D01*
X0147623Y0103848D01*
X0120733Y0103848D01*
X0120733Y0113848D02*
X0147623Y0113848D01*
X0164867Y0131093D01*
X0202367Y0131093D01*
X0202367Y0141093D02*
X0164867Y0141093D01*
X0147623Y0123848D01*
X0120733Y0123848D01*
X0103242Y0131343D02*
X0095617Y0138968D01*
X0063367Y0138968D01*
X0038867Y0163468D01*
X0038867Y0179022D01*
X0038646Y0179242D01*
X0043371Y0182392D02*
X0048567Y0182392D01*
X0054867Y0176093D01*
X0054867Y0171093D01*
X0069867Y0156093D01*
X0094867Y0156093D01*
X0106992Y0143968D01*
X0103242Y0131343D02*
X0103242Y0083468D01*
X0109867Y0076843D01*
X0109867Y0068093D01*
X0109867Y0058593D02*
X0104867Y0058593D01*
X0099867Y0063593D01*
X0099867Y0104715D01*
X0090733Y0113848D01*
X0090733Y0103848D02*
X0092111Y0103848D01*
X0097367Y0098593D01*
X0097367Y0058593D01*
X0104867Y0051093D01*
X0109867Y0051093D01*
X0112367Y0053593D02*
X0112367Y0056093D01*
X0109867Y0058593D01*
X0112367Y0053593D02*
X0114867Y0051093D01*
X0114867Y0048593D01*
X0112367Y0046093D01*
X0112367Y0043593D01*
X0114867Y0041093D01*
X0114867Y0038593D01*
X0104867Y0028593D01*
X0082367Y0028593D01*
X0077367Y0023593D01*
X0077367Y0013593D01*
X0082367Y0008593D01*
X0127367Y0008593D01*
X0139867Y0021093D01*
X0202367Y0021093D01*
X0183272Y0016093D02*
X0178272Y0011093D01*
X0150772Y0011093D01*
X0146992Y0016093D02*
X0165617Y0016093D01*
X0165992Y0015718D01*
X0146992Y0016093D02*
X0145617Y0014718D01*
X0144555Y0014718D01*
X0140930Y0011093D01*
X0132367Y0026093D02*
X0120733Y0014459D01*
X0120733Y0013848D01*
X0109867Y0023593D02*
X0114867Y0028593D01*
X0129867Y0028593D01*
X0137367Y0036093D01*
X0154867Y0036093D01*
X0154867Y0051093D01*
X0140867Y0054093D02*
X0151867Y0065093D01*
X0140867Y0054093D02*
X0121867Y0054093D01*
X0121623Y0053848D01*
X0120733Y0053848D01*
X0105867Y0038593D02*
X0090989Y0043593D01*
X0090733Y0043848D01*
X0067111Y0043848D01*
X0059867Y0051093D01*
X0059867Y0081093D01*
X0049867Y0091093D01*
X0039867Y0091093D01*
X0029867Y0101093D01*
X0014867Y0101093D01*
X0014867Y0111093D02*
X0034867Y0111093D01*
X0044867Y0101093D01*
X0064867Y0101093D01*
X0082111Y0083848D01*
X0090733Y0083848D01*
X0090733Y0093848D02*
X0082111Y0093848D01*
X0064867Y0111093D01*
X0044867Y0111093D01*
X0034867Y0121093D01*
X0014867Y0121093D01*
X0014867Y0131093D02*
X0039867Y0131093D01*
X0047111Y0123848D01*
X0090733Y0123848D01*
X0090733Y0133848D02*
X0047111Y0133848D01*
X0039867Y0141093D01*
X0014867Y0141093D01*
X0029867Y0181093D02*
X0034315Y0185541D01*
X0038646Y0185541D01*
X0043371Y0188691D02*
X0045969Y0186093D01*
X0069867Y0186093D01*
X0072662Y0188888D01*
X0072071Y0196093D01*
X0079945Y0196093D02*
X0082288Y0178593D01*
X0029867Y0091093D02*
X0014867Y0091093D01*
X0029867Y0091093D02*
X0039867Y0081093D01*
X0039867Y0026093D01*
X0044867Y0021093D01*
X0059867Y0021093D01*
X0072623Y0033848D01*
X0090733Y0033848D01*
X0090733Y0023848D02*
X0107111Y0023848D01*
X0107367Y0023593D01*
X0109867Y0023593D01*
X0090733Y0053848D02*
X0077465Y0053848D01*
X0074867Y0051250D01*
X0081953Y0063848D02*
X0090733Y0063848D01*
X0081953Y0063848D02*
X0074867Y0070935D01*
X0049867Y0066093D02*
X0049867Y0079093D01*
X0046867Y0082093D01*
X0014867Y0041093D02*
X0024867Y0031093D01*
X0024867Y0021093D01*
X0154867Y0036093D02*
X0169867Y0036093D01*
X0174867Y0041093D01*
D23*
X0171867Y0044093D03*
X0165992Y0015718D03*
X0132367Y0026093D03*
X0105867Y0038593D03*
X0109867Y0051093D03*
X0109867Y0068093D03*
X0046867Y0082093D03*
X0024867Y0021093D03*
X0109867Y0151093D03*
X0172367Y0113593D03*
X0029867Y0181093D03*
M02*
