G75*
%MOIN*%
%OFA0B0*%
%FSLAX25Y25*%
%IPPOS*%
%LPD*%
%AMOC8*
5,1,8,0,0,1.08239X$1,22.5*
%
%ADD10C,0.00000*%
%ADD11OC8,0.05200*%
%ADD12C,0.05200*%
%ADD13OC8,0.05600*%
%ADD14C,0.05550*%
%ADD15C,0.11620*%
%ADD16C,0.07800*%
%ADD17R,0.05550X0.05550*%
%ADD18R,0.06337X0.06337*%
%ADD19C,0.04369*%
%ADD20C,0.05600*%
D10*
X0009867Y0006093D02*
X0009867Y0202943D01*
X0206717Y0202943D01*
X0206717Y0006093D01*
X0009867Y0006093D01*
D11*
X0148367Y0081093D03*
X0139867Y0187593D03*
D12*
X0139867Y0194593D03*
X0141367Y0081093D03*
D13*
X0154867Y0051093D03*
X0154867Y0036093D03*
X0184867Y0036093D03*
X0184867Y0051093D03*
X0189867Y0151093D03*
X0189867Y0181093D03*
X0174867Y0196093D03*
X0164867Y0196093D03*
X0154867Y0171093D03*
X0144867Y0171093D03*
X0144867Y0156093D03*
X0154867Y0156093D03*
X0114867Y0161093D03*
X0114867Y0171093D03*
X0109867Y0178593D03*
X0114867Y0186093D03*
X0104867Y0186093D03*
X0079867Y0171093D03*
X0069867Y0171093D03*
X0049867Y0066093D03*
X0024867Y0041093D03*
X0014867Y0041093D03*
X0049867Y0036093D03*
D14*
X0043371Y0176093D03*
X0038646Y0179242D03*
X0043371Y0182392D03*
X0038646Y0185541D03*
X0043371Y0188691D03*
D15*
X0023292Y0196762D03*
X0023292Y0168022D03*
D16*
X0014867Y0141093D03*
X0014867Y0131093D03*
X0014867Y0121093D03*
X0014867Y0111093D03*
X0014867Y0101093D03*
X0014867Y0091093D03*
X0014867Y0081093D03*
X0014867Y0071093D03*
X0202367Y0071093D03*
X0202367Y0081093D03*
X0202367Y0091093D03*
X0202367Y0101093D03*
X0202367Y0111093D03*
X0202367Y0121093D03*
X0202367Y0131093D03*
X0202367Y0141093D03*
X0202367Y0051093D03*
X0202367Y0041093D03*
X0202367Y0031093D03*
X0202367Y0021093D03*
X0202367Y0011093D03*
D17*
X0079945Y0196093D03*
X0072071Y0196093D03*
X0064197Y0196093D03*
D18*
X0056323Y0196093D03*
X0087819Y0196093D03*
X0173430Y0016093D03*
X0183272Y0016093D03*
X0150772Y0011093D03*
X0140930Y0011093D03*
D19*
X0074867Y0051250D03*
X0074867Y0061093D03*
X0074867Y0070935D03*
D20*
X0088133Y0073848D02*
X0093333Y0073848D01*
X0093333Y0063848D02*
X0088133Y0063848D01*
X0088133Y0053848D02*
X0093333Y0053848D01*
X0093333Y0043848D02*
X0088133Y0043848D01*
X0088133Y0033848D02*
X0093333Y0033848D01*
X0093333Y0023848D02*
X0088133Y0023848D01*
X0088133Y0013848D02*
X0093333Y0013848D01*
X0118133Y0013848D02*
X0123333Y0013848D01*
X0123333Y0023848D02*
X0118133Y0023848D01*
X0118133Y0033848D02*
X0123333Y0033848D01*
X0123333Y0043848D02*
X0118133Y0043848D01*
X0118133Y0053848D02*
X0123333Y0053848D01*
X0123333Y0063848D02*
X0118133Y0063848D01*
X0118133Y0073848D02*
X0123333Y0073848D01*
X0123333Y0083848D02*
X0118133Y0083848D01*
X0118133Y0093848D02*
X0123333Y0093848D01*
X0123333Y0103848D02*
X0118133Y0103848D01*
X0118133Y0113848D02*
X0123333Y0113848D01*
X0123333Y0123848D02*
X0118133Y0123848D01*
X0118133Y0133848D02*
X0123333Y0133848D01*
X0123333Y0143848D02*
X0118133Y0143848D01*
X0093333Y0143848D02*
X0088133Y0143848D01*
X0088133Y0133848D02*
X0093333Y0133848D01*
X0093333Y0123848D02*
X0088133Y0123848D01*
X0088133Y0113848D02*
X0093333Y0113848D01*
X0093333Y0103848D02*
X0088133Y0103848D01*
X0088133Y0093848D02*
X0093333Y0093848D01*
X0093333Y0083848D02*
X0088133Y0083848D01*
M02*
