%
M48
M72
T01C0.01969
T02C0.02362
T03C0.02800
T04C0.03150
T05C0.03200
T06C0.03937
T07C0.04000
T08C0.07480
%
T01
X74867Y51250
X74867Y61093
X74867Y70935
T02
X24867Y21093
X46867Y82093
X105867Y38593
X109867Y51093
X109867Y68093
X132367Y26093
X165992Y15718
X171867Y44093
X172367Y113593
X109867Y151093
X29867Y181093
T03
X139867Y194593
X139867Y187593
X141367Y81093
X148367Y81093
T04
X43371Y176093
X38646Y179242
X43371Y182392
X38646Y185541
X43371Y188691
X64197Y196093
X72071Y196093
X79945Y196093
T05
X69867Y171093
X79867Y171093
X104867Y186093
X109867Y178593
X114867Y171093
X114867Y161093
X120733Y143848
X120733Y133848
X120733Y123848
X120733Y113848
X120733Y103848
X120733Y93848
X120733Y83848
X120733Y73848
X120733Y63848
X120733Y53848
X120733Y43848
X120733Y33848
X120733Y23848
X120733Y13848
X90733Y13848
X90733Y23848
X90733Y33848
X90733Y43848
X90733Y53848
X90733Y63848
X90733Y73848
X90733Y83848
X90733Y93848
X90733Y103848
X90733Y113848
X90733Y123848
X90733Y133848
X90733Y143848
X114867Y186093
X144867Y171093
X154867Y171093
X154867Y156093
X144867Y156093
X164867Y196093
X174867Y196093
X189867Y181093
X189867Y151093
X184867Y51093
X184867Y36093
X154867Y36093
X154867Y51093
X49867Y66093
X24867Y41093
X14867Y41093
X49867Y36093
T06
X140930Y11093
X150772Y11093
X173430Y16093
X183272Y16093
X87819Y196093
X56323Y196093
T07
X14867Y141093
X14867Y131093
X14867Y121093
X14867Y111093
X14867Y101093
X14867Y91093
X14867Y81093
X14867Y71093
X202367Y71093
X202367Y81093
X202367Y91093
X202367Y101093
X202367Y111093
X202367Y121093
X202367Y131093
X202367Y141093
X202367Y51093
X202367Y41093
X202367Y31093
X202367Y21093
X202367Y11093
T08
X23292Y168022
X23292Y196762
M30
