G75*
%MOIN*%
%OFA0B0*%
%FSLAX25Y25*%
%IPPOS*%
%LPD*%
%AMOC8*
5,1,8,0,0,1.08239X$1,22.5*
%
%ADD10C,0.00000*%
%ADD11OC8,0.04800*%
%ADD12C,0.04800*%
%ADD13OC8,0.05200*%
%ADD14C,0.05150*%
%ADD15C,0.11220*%
%ADD16C,0.07400*%
%ADD17R,0.05150X0.05150*%
%ADD18R,0.05937X0.05937*%
%ADD19C,0.03969*%
%ADD20C,0.05200*%
%ADD21C,0.01600*%
%ADD22C,0.01000*%
%ADD23C,0.03562*%
D10*
X0009867Y0006093D02*
X0009867Y0202943D01*
X0206717Y0202943D01*
X0206717Y0006093D01*
X0009867Y0006093D01*
D11*
X0148367Y0081093D03*
X0139867Y0187593D03*
D12*
X0139867Y0194593D03*
X0141367Y0081093D03*
D13*
X0154867Y0051093D03*
X0154867Y0036093D03*
X0184867Y0036093D03*
X0184867Y0051093D03*
X0189867Y0151093D03*
X0189867Y0181093D03*
X0174867Y0196093D03*
X0164867Y0196093D03*
X0154867Y0171093D03*
X0144867Y0171093D03*
X0144867Y0156093D03*
X0154867Y0156093D03*
X0114867Y0161093D03*
X0114867Y0171093D03*
X0109867Y0178593D03*
X0114867Y0186093D03*
X0104867Y0186093D03*
X0079867Y0171093D03*
X0069867Y0171093D03*
X0049867Y0066093D03*
X0024867Y0041093D03*
X0014867Y0041093D03*
X0049867Y0036093D03*
D14*
X0043371Y0176093D03*
X0038646Y0179242D03*
X0043371Y0182392D03*
X0038646Y0185541D03*
X0043371Y0188691D03*
D15*
X0023292Y0196762D03*
X0023292Y0168022D03*
D16*
X0014867Y0141093D03*
X0014867Y0131093D03*
X0014867Y0121093D03*
X0014867Y0111093D03*
X0014867Y0101093D03*
X0014867Y0091093D03*
X0014867Y0081093D03*
X0014867Y0071093D03*
X0202367Y0071093D03*
X0202367Y0081093D03*
X0202367Y0091093D03*
X0202367Y0101093D03*
X0202367Y0111093D03*
X0202367Y0121093D03*
X0202367Y0131093D03*
X0202367Y0141093D03*
X0202367Y0051093D03*
X0202367Y0041093D03*
X0202367Y0031093D03*
X0202367Y0021093D03*
X0202367Y0011093D03*
D17*
X0079945Y0196093D03*
X0072071Y0196093D03*
X0064197Y0196093D03*
D18*
X0056323Y0196093D03*
X0087819Y0196093D03*
X0173430Y0016093D03*
X0183272Y0016093D03*
X0150772Y0011093D03*
X0140930Y0011093D03*
D19*
X0074867Y0051250D03*
X0074867Y0061093D03*
X0074867Y0070935D03*
D20*
X0088133Y0073848D02*
X0093333Y0073848D01*
X0093333Y0063848D02*
X0088133Y0063848D01*
X0088133Y0053848D02*
X0093333Y0053848D01*
X0093333Y0043848D02*
X0088133Y0043848D01*
X0088133Y0033848D02*
X0093333Y0033848D01*
X0093333Y0023848D02*
X0088133Y0023848D01*
X0088133Y0013848D02*
X0093333Y0013848D01*
X0118133Y0013848D02*
X0123333Y0013848D01*
X0123333Y0023848D02*
X0118133Y0023848D01*
X0118133Y0033848D02*
X0123333Y0033848D01*
X0123333Y0043848D02*
X0118133Y0043848D01*
X0118133Y0053848D02*
X0123333Y0053848D01*
X0123333Y0063848D02*
X0118133Y0063848D01*
X0118133Y0073848D02*
X0123333Y0073848D01*
X0123333Y0083848D02*
X0118133Y0083848D01*
X0118133Y0093848D02*
X0123333Y0093848D01*
X0123333Y0103848D02*
X0118133Y0103848D01*
X0118133Y0113848D02*
X0123333Y0113848D01*
X0123333Y0123848D02*
X0118133Y0123848D01*
X0118133Y0133848D02*
X0123333Y0133848D01*
X0123333Y0143848D02*
X0118133Y0143848D01*
X0093333Y0143848D02*
X0088133Y0143848D01*
X0088133Y0133848D02*
X0093333Y0133848D01*
X0093333Y0123848D02*
X0088133Y0123848D01*
X0088133Y0113848D02*
X0093333Y0113848D01*
X0093333Y0103848D02*
X0088133Y0103848D01*
X0088133Y0093848D02*
X0093333Y0093848D01*
X0093333Y0083848D02*
X0088133Y0083848D01*
D21*
X0095617Y0088593D02*
X0079867Y0088593D01*
X0064992Y0073718D01*
X0022242Y0073718D01*
X0014867Y0081093D01*
X0042867Y0085093D02*
X0045867Y0082093D01*
X0046867Y0082093D01*
X0064992Y0073718D02*
X0069117Y0069593D01*
X0069117Y0049218D01*
X0071117Y0047218D01*
X0081492Y0047218D01*
X0083117Y0048843D01*
X0095617Y0048843D01*
X0097742Y0046718D01*
X0097742Y0031968D01*
X0090733Y0024959D01*
X0090733Y0023848D01*
X0090977Y0014093D02*
X0090733Y0013848D01*
X0090977Y0014093D02*
X0096867Y0014093D01*
X0102242Y0019468D01*
X0102242Y0060593D01*
X0109742Y0068093D01*
X0109867Y0068093D01*
X0109867Y0051093D02*
X0109867Y0023593D01*
X0114867Y0018593D01*
X0157367Y0018593D01*
X0164867Y0011093D01*
X0202367Y0011093D01*
X0192367Y0031093D02*
X0173430Y0016093D01*
X0165992Y0015718D02*
X0165992Y0025468D01*
X0176617Y0036093D01*
X0184867Y0036093D01*
X0192367Y0031093D02*
X0192367Y0043593D01*
X0184867Y0051093D01*
X0177367Y0058593D02*
X0162367Y0043593D01*
X0149867Y0043593D01*
X0132367Y0026093D01*
X0120733Y0023848D02*
X0187977Y0091093D01*
X0202367Y0091093D01*
X0202367Y0101093D02*
X0187977Y0101093D01*
X0120733Y0033848D01*
X0120733Y0043848D02*
X0187977Y0111093D01*
X0202367Y0111093D01*
X0178867Y0116093D02*
X0175867Y0116093D01*
X0137742Y0154218D01*
X0137367Y0154218D01*
X0137367Y0156968D01*
X0123992Y0170343D01*
X0115617Y0170343D01*
X0114867Y0171093D01*
X0109867Y0176093D01*
X0109867Y0178593D01*
X0104867Y0186093D02*
X0101242Y0182468D01*
X0077367Y0182468D01*
X0069867Y0174968D01*
X0069867Y0171093D01*
X0090733Y0143848D02*
X0109611Y0143848D01*
X0114867Y0138593D01*
X0147367Y0138593D01*
X0172367Y0113593D01*
X0202367Y0081093D02*
X0201367Y0080093D01*
X0192867Y0080093D01*
X0177367Y0064593D01*
X0177367Y0058593D01*
X0171867Y0044093D02*
X0169867Y0042093D01*
X0140930Y0011093D02*
X0132367Y0011093D01*
X0129867Y0008593D01*
X0112367Y0008593D01*
X0104867Y0016093D01*
X0105867Y0038593D01*
X0090733Y0033848D02*
X0088489Y0036093D01*
X0069867Y0036093D01*
X0054867Y0021093D01*
X0024867Y0021093D01*
X0029867Y0036093D02*
X0024867Y0041093D01*
X0029867Y0036093D02*
X0049867Y0036093D01*
X0095617Y0088593D02*
X0100492Y0093468D01*
X0120733Y0093848D01*
X0109867Y0151093D02*
X0039867Y0151093D01*
X0032867Y0158093D01*
X0032867Y0178093D01*
X0029867Y0181093D01*
X0189867Y0151093D02*
X0189867Y0149593D01*
X0190117Y0149343D01*
X0189867Y0151093D02*
X0190492Y0151093D01*
D22*
X0190167Y0150877D02*
X0204617Y0150877D01*
X0204617Y0151875D02*
X0193967Y0151875D01*
X0193967Y0151393D02*
X0193967Y0152791D01*
X0191565Y0155193D01*
X0190167Y0155193D01*
X0190167Y0151393D01*
X0189567Y0151393D01*
X0189567Y0155192D01*
X0188168Y0155193D01*
X0185767Y0152791D01*
X0185767Y0151393D01*
X0189567Y0151393D01*
X0189567Y0150792D01*
X0190167Y0150792D01*
X0190167Y0146993D01*
X0191565Y0146993D01*
X0193967Y0149394D01*
X0193967Y0150792D01*
X0190167Y0150792D01*
X0190167Y0151393D01*
X0193967Y0151393D01*
X0193884Y0152874D02*
X0204617Y0152874D01*
X0204617Y0153872D02*
X0192885Y0153872D01*
X0191887Y0154871D02*
X0204617Y0154871D01*
X0204617Y0155869D02*
X0159567Y0155869D01*
X0159567Y0154871D02*
X0187847Y0154871D01*
X0186848Y0153872D02*
X0159293Y0153872D01*
X0159567Y0154146D02*
X0159567Y0158039D01*
X0157367Y0160239D01*
X0157367Y0166946D01*
X0159567Y0169146D01*
X0159567Y0173039D01*
X0156813Y0175793D01*
X0152920Y0175793D01*
X0150167Y0173039D01*
X0150167Y0169146D01*
X0152167Y0167146D01*
X0152167Y0160039D01*
X0150167Y0158039D01*
X0150167Y0154146D01*
X0152920Y0151393D01*
X0156813Y0151393D01*
X0159567Y0154146D01*
X0158295Y0152874D02*
X0185850Y0152874D01*
X0185767Y0151875D02*
X0157296Y0151875D01*
X0152437Y0151875D02*
X0144185Y0151875D01*
X0144068Y0151993D02*
X0144567Y0151993D01*
X0144567Y0155792D01*
X0145167Y0155792D01*
X0145167Y0151993D01*
X0146565Y0151993D01*
X0148967Y0154394D01*
X0148967Y0155792D01*
X0145167Y0155792D01*
X0145167Y0156393D01*
X0144567Y0156393D01*
X0144567Y0160192D01*
X0143168Y0160193D01*
X0140767Y0157791D01*
X0140767Y0156393D01*
X0144567Y0156393D01*
X0144567Y0155792D01*
X0140767Y0155792D01*
X0140767Y0155294D01*
X0140267Y0155794D01*
X0140267Y0157544D01*
X0139825Y0158610D01*
X0126450Y0171985D01*
X0125634Y0172801D01*
X0124569Y0173243D01*
X0119363Y0173243D01*
X0116813Y0175793D01*
X0114268Y0175793D01*
X0113991Y0176070D01*
X0114567Y0176646D01*
X0114567Y0180539D01*
X0111813Y0183293D01*
X0108713Y0183293D01*
X0109567Y0184146D01*
X0109567Y0188039D01*
X0106813Y0190793D01*
X0102920Y0190793D01*
X0100167Y0188039D01*
X0100167Y0185494D01*
X0100040Y0185368D01*
X0076790Y0185368D01*
X0075724Y0184926D01*
X0074908Y0184110D01*
X0067408Y0176610D01*
X0066967Y0175544D01*
X0066967Y0174839D01*
X0065167Y0173039D01*
X0065167Y0169146D01*
X0067920Y0166393D01*
X0071813Y0166393D01*
X0074567Y0169146D01*
X0074567Y0173039D01*
X0073303Y0174303D01*
X0078568Y0179568D01*
X0101819Y0179568D01*
X0102884Y0180009D01*
X0104268Y0181393D01*
X0106020Y0181393D01*
X0105167Y0180539D01*
X0105167Y0176646D01*
X0107920Y0173893D01*
X0107965Y0173893D01*
X0108224Y0173634D01*
X0110167Y0171691D01*
X0110167Y0169146D01*
X0112920Y0166393D01*
X0116813Y0166393D01*
X0117863Y0167443D01*
X0122790Y0167443D01*
X0134467Y0155766D01*
X0134467Y0153641D01*
X0134908Y0152575D01*
X0135724Y0151759D01*
X0136364Y0151494D01*
X0146365Y0141493D01*
X0127444Y0141493D01*
X0128033Y0142914D01*
X0128033Y0144783D01*
X0127317Y0146511D01*
X0125995Y0147833D01*
X0124268Y0148548D01*
X0117198Y0148548D01*
X0115470Y0147833D01*
X0114148Y0146511D01*
X0113433Y0144783D01*
X0113433Y0144128D01*
X0111253Y0146307D01*
X0110188Y0146748D01*
X0097080Y0146748D01*
X0095995Y0147833D01*
X0095127Y0148193D01*
X0107278Y0148193D01*
X0107668Y0147802D01*
X0109095Y0147211D01*
X0110639Y0147211D01*
X0112065Y0147802D01*
X0113157Y0148894D01*
X0113748Y0150321D01*
X0113748Y0151865D01*
X0113157Y0153291D01*
X0112065Y0154383D01*
X0110639Y0154974D01*
X0109095Y0154974D01*
X0107668Y0154383D01*
X0107278Y0153993D01*
X0041068Y0153993D01*
X0035767Y0159294D01*
X0035767Y0175511D01*
X0035998Y0175279D01*
X0037716Y0174567D01*
X0039576Y0174567D01*
X0039581Y0174569D01*
X0039594Y0174528D01*
X0039886Y0173957D01*
X0040263Y0173438D01*
X0040716Y0172984D01*
X0041235Y0172607D01*
X0041806Y0172316D01*
X0042416Y0172118D01*
X0043050Y0172018D01*
X0043083Y0172018D01*
X0043083Y0175805D01*
X0043658Y0175805D01*
X0043658Y0172018D01*
X0043691Y0172018D01*
X0044325Y0172118D01*
X0044935Y0172316D01*
X0045506Y0172607D01*
X0046025Y0172984D01*
X0046479Y0173438D01*
X0046856Y0173957D01*
X0047147Y0174528D01*
X0047345Y0175138D01*
X0047445Y0175772D01*
X0047445Y0175805D01*
X0043658Y0175805D01*
X0043658Y0176380D01*
X0047445Y0176380D01*
X0047445Y0176413D01*
X0047345Y0177047D01*
X0047147Y0177657D01*
X0046856Y0178228D01*
X0046479Y0178747D01*
X0046408Y0178818D01*
X0047334Y0179744D01*
X0048045Y0181462D01*
X0048045Y0183322D01*
X0047334Y0185040D01*
X0046832Y0185541D01*
X0047334Y0186043D01*
X0048045Y0187761D01*
X0048045Y0189621D01*
X0047334Y0191339D01*
X0046019Y0192654D01*
X0044300Y0193366D01*
X0042441Y0193366D01*
X0040723Y0192654D01*
X0039407Y0191339D01*
X0038942Y0190216D01*
X0037716Y0190216D01*
X0035998Y0189504D01*
X0034683Y0188189D01*
X0033971Y0186471D01*
X0033971Y0184611D01*
X0034683Y0182893D01*
X0035185Y0182392D01*
X0034683Y0181890D01*
X0034240Y0180820D01*
X0033748Y0181313D01*
X0033748Y0181865D01*
X0033157Y0183291D01*
X0032065Y0184383D01*
X0030639Y0184974D01*
X0029095Y0184974D01*
X0027668Y0184383D01*
X0026576Y0183291D01*
X0025986Y0181865D01*
X0025986Y0180321D01*
X0026576Y0178894D01*
X0027668Y0177802D01*
X0029095Y0177211D01*
X0029647Y0177211D01*
X0029967Y0176891D01*
X0029967Y0172055D01*
X0029828Y0172389D01*
X0027659Y0174558D01*
X0024826Y0175732D01*
X0021758Y0175732D01*
X0018924Y0174558D01*
X0016755Y0172389D01*
X0015582Y0169555D01*
X0015582Y0166488D01*
X0016755Y0163654D01*
X0018924Y0161485D01*
X0021758Y0160311D01*
X0024826Y0160311D01*
X0027659Y0161485D01*
X0029828Y0163654D01*
X0029967Y0163988D01*
X0029967Y0157516D01*
X0030408Y0156450D01*
X0031224Y0155634D01*
X0038224Y0148634D01*
X0039290Y0148193D01*
X0086339Y0148193D01*
X0085470Y0147833D01*
X0084148Y0146511D01*
X0083433Y0144783D01*
X0083433Y0142914D01*
X0084148Y0141186D01*
X0085470Y0139864D01*
X0087198Y0139148D01*
X0094268Y0139148D01*
X0095995Y0139864D01*
X0097080Y0140948D01*
X0108410Y0140948D01*
X0112408Y0136950D01*
X0113224Y0136134D01*
X0114290Y0135693D01*
X0114471Y0135693D01*
X0114333Y0135422D01*
X0114134Y0134809D01*
X0114033Y0134171D01*
X0114033Y0134148D01*
X0120433Y0134148D01*
X0120433Y0133548D01*
X0121033Y0133548D01*
X0121033Y0129748D01*
X0123655Y0129748D01*
X0124293Y0129849D01*
X0124907Y0130049D01*
X0125482Y0130342D01*
X0126004Y0130721D01*
X0126460Y0131177D01*
X0126839Y0131700D01*
X0127132Y0132275D01*
X0127332Y0132888D01*
X0127433Y0133526D01*
X0127433Y0133548D01*
X0121033Y0133548D01*
X0121033Y0134148D01*
X0127433Y0134148D01*
X0127433Y0134171D01*
X0127332Y0134809D01*
X0127132Y0135422D01*
X0126995Y0135693D01*
X0146165Y0135693D01*
X0168486Y0113372D01*
X0168486Y0112821D01*
X0169076Y0111394D01*
X0170168Y0110302D01*
X0171595Y0109711D01*
X0173139Y0109711D01*
X0174565Y0110302D01*
X0175657Y0111394D01*
X0176248Y0112821D01*
X0176248Y0113193D01*
X0179444Y0113193D01*
X0180509Y0113634D01*
X0181325Y0114450D01*
X0181767Y0115516D01*
X0181767Y0116669D01*
X0181325Y0117735D01*
X0180509Y0118551D01*
X0179444Y0118993D01*
X0177068Y0118993D01*
X0144068Y0151993D01*
X0144567Y0152874D02*
X0145167Y0152874D01*
X0145167Y0153872D02*
X0144567Y0153872D01*
X0144567Y0154871D02*
X0145167Y0154871D01*
X0144867Y0155493D02*
X0144867Y0156093D01*
X0145167Y0155869D02*
X0150167Y0155869D01*
X0150167Y0154871D02*
X0148967Y0154871D01*
X0148445Y0153872D02*
X0150440Y0153872D01*
X0151439Y0152874D02*
X0147446Y0152874D01*
X0148467Y0151893D02*
X0144867Y0155493D01*
X0144567Y0155869D02*
X0140267Y0155869D01*
X0140267Y0156868D02*
X0140767Y0156868D01*
X0140842Y0157866D02*
X0140133Y0157866D01*
X0139571Y0158865D02*
X0141841Y0158865D01*
X0142839Y0159863D02*
X0138572Y0159863D01*
X0137574Y0160862D02*
X0152167Y0160862D01*
X0152167Y0161860D02*
X0136575Y0161860D01*
X0135577Y0162859D02*
X0152167Y0162859D01*
X0152167Y0163857D02*
X0134578Y0163857D01*
X0133580Y0164856D02*
X0152167Y0164856D01*
X0152167Y0165854D02*
X0132581Y0165854D01*
X0131583Y0166853D02*
X0152167Y0166853D01*
X0151461Y0167851D02*
X0147424Y0167851D01*
X0146565Y0166993D02*
X0148967Y0169394D01*
X0148967Y0170792D01*
X0145167Y0170792D01*
X0145167Y0166993D01*
X0146565Y0166993D01*
X0145167Y0167851D02*
X0144567Y0167851D01*
X0144567Y0166993D02*
X0144567Y0170792D01*
X0145167Y0170792D01*
X0145167Y0171393D01*
X0144567Y0171393D01*
X0144567Y0175192D01*
X0143168Y0175193D01*
X0140767Y0172791D01*
X0140767Y0171393D01*
X0144567Y0171393D01*
X0144567Y0170792D01*
X0140767Y0170792D01*
X0140767Y0169394D01*
X0143168Y0166993D01*
X0144567Y0166993D01*
X0144567Y0168850D02*
X0145167Y0168850D01*
X0145167Y0169848D02*
X0144567Y0169848D01*
X0144567Y0170847D02*
X0127588Y0170847D01*
X0126590Y0171845D02*
X0140767Y0171845D01*
X0140820Y0172844D02*
X0125531Y0172844D01*
X0128587Y0169848D02*
X0140767Y0169848D01*
X0141311Y0168850D02*
X0129586Y0168850D01*
X0130584Y0167851D02*
X0142310Y0167851D01*
X0145167Y0170847D02*
X0150167Y0170847D01*
X0150167Y0171845D02*
X0148967Y0171845D01*
X0148967Y0171393D02*
X0148967Y0172791D01*
X0146565Y0175193D01*
X0145167Y0175193D01*
X0145167Y0171393D01*
X0148967Y0171393D01*
X0148914Y0172844D02*
X0150167Y0172844D01*
X0150970Y0173842D02*
X0147915Y0173842D01*
X0146916Y0174841D02*
X0151968Y0174841D01*
X0154867Y0171093D02*
X0154767Y0170793D01*
X0154767Y0156393D01*
X0154867Y0156093D01*
X0157743Y0159863D02*
X0204617Y0159863D01*
X0204617Y0158865D02*
X0158741Y0158865D01*
X0159567Y0157866D02*
X0204617Y0157866D01*
X0204617Y0156868D02*
X0159567Y0156868D01*
X0157367Y0160862D02*
X0204617Y0160862D01*
X0204617Y0161860D02*
X0157367Y0161860D01*
X0157367Y0162859D02*
X0204617Y0162859D01*
X0204617Y0163857D02*
X0157367Y0163857D01*
X0157367Y0164856D02*
X0204617Y0164856D01*
X0204617Y0165854D02*
X0157367Y0165854D01*
X0157367Y0166853D02*
X0204617Y0166853D01*
X0204617Y0167851D02*
X0158272Y0167851D01*
X0159271Y0168850D02*
X0204617Y0168850D01*
X0204617Y0169848D02*
X0159567Y0169848D01*
X0159567Y0170847D02*
X0204617Y0170847D01*
X0204617Y0171845D02*
X0159567Y0171845D01*
X0159567Y0172844D02*
X0204617Y0172844D01*
X0204617Y0173842D02*
X0158764Y0173842D01*
X0157765Y0174841D02*
X0204617Y0174841D01*
X0204617Y0175839D02*
X0114221Y0175839D01*
X0114567Y0176838D02*
X0187474Y0176838D01*
X0187920Y0176393D02*
X0185167Y0179146D01*
X0185167Y0183039D01*
X0187920Y0185793D01*
X0191813Y0185793D01*
X0194567Y0183039D01*
X0194567Y0179146D01*
X0191813Y0176393D01*
X0187920Y0176393D01*
X0186476Y0177836D02*
X0114567Y0177836D01*
X0114567Y0178835D02*
X0185477Y0178835D01*
X0185167Y0179833D02*
X0114567Y0179833D01*
X0114274Y0180832D02*
X0185167Y0180832D01*
X0185167Y0181831D02*
X0113275Y0181831D01*
X0113168Y0181993D02*
X0114567Y0181993D01*
X0114567Y0185792D01*
X0115167Y0185792D01*
X0115167Y0181993D01*
X0116565Y0181993D01*
X0118967Y0184394D01*
X0118967Y0185792D01*
X0115167Y0185792D01*
X0115167Y0186393D01*
X0114567Y0186393D01*
X0114567Y0190192D01*
X0113168Y0190193D01*
X0110767Y0187791D01*
X0110767Y0186393D01*
X0114567Y0186393D01*
X0114567Y0185792D01*
X0110767Y0185792D01*
X0110767Y0184394D01*
X0113168Y0181993D01*
X0112332Y0182829D02*
X0112277Y0182829D01*
X0111333Y0183828D02*
X0109248Y0183828D01*
X0109567Y0184826D02*
X0110767Y0184826D01*
X0109567Y0185825D02*
X0114567Y0185825D01*
X0115167Y0185825D02*
X0136119Y0185825D01*
X0135967Y0185977D02*
X0138251Y0183693D01*
X0139667Y0183693D01*
X0139667Y0187392D01*
X0140067Y0187392D01*
X0140067Y0183693D01*
X0141482Y0183693D01*
X0143767Y0185977D01*
X0143767Y0187392D01*
X0140067Y0187392D01*
X0140067Y0187793D01*
X0143767Y0187793D01*
X0143767Y0189208D01*
X0142261Y0190714D01*
X0142416Y0190778D01*
X0143682Y0192043D01*
X0144367Y0193697D01*
X0144367Y0195488D01*
X0143682Y0197142D01*
X0142416Y0198407D01*
X0140762Y0199093D01*
X0138972Y0199093D01*
X0137318Y0198407D01*
X0136052Y0197142D01*
X0135367Y0195488D01*
X0135367Y0193697D01*
X0136052Y0192043D01*
X0137318Y0190778D01*
X0137472Y0190714D01*
X0135967Y0189208D01*
X0135967Y0187793D01*
X0139667Y0187793D01*
X0139667Y0187392D01*
X0135967Y0187392D01*
X0135967Y0185977D01*
X0135967Y0186823D02*
X0118967Y0186823D01*
X0118967Y0186393D02*
X0118967Y0187791D01*
X0116565Y0190193D01*
X0115167Y0190193D01*
X0115167Y0186393D01*
X0118967Y0186393D01*
X0118936Y0187822D02*
X0135967Y0187822D01*
X0135967Y0188820D02*
X0117937Y0188820D01*
X0116939Y0189819D02*
X0136577Y0189819D01*
X0137278Y0190817D02*
X0047550Y0190817D01*
X0047963Y0189819D02*
X0101946Y0189819D01*
X0100947Y0188820D02*
X0048045Y0188820D01*
X0048045Y0187822D02*
X0100167Y0187822D01*
X0100167Y0186823D02*
X0047657Y0186823D01*
X0047115Y0185825D02*
X0100167Y0185825D01*
X0103707Y0180832D02*
X0105459Y0180832D01*
X0105167Y0179833D02*
X0102461Y0179833D01*
X0105167Y0178835D02*
X0077835Y0178835D01*
X0076837Y0177836D02*
X0105167Y0177836D01*
X0105167Y0176838D02*
X0075838Y0176838D01*
X0074840Y0175839D02*
X0105973Y0175839D01*
X0106971Y0174841D02*
X0081916Y0174841D01*
X0081565Y0175193D02*
X0080167Y0175193D01*
X0080167Y0171393D01*
X0079567Y0171393D01*
X0079567Y0175192D01*
X0078168Y0175193D01*
X0075767Y0172791D01*
X0075767Y0171393D01*
X0079567Y0171393D01*
X0079567Y0170792D01*
X0080167Y0170792D01*
X0080167Y0166993D01*
X0081565Y0166993D01*
X0083967Y0169394D01*
X0083967Y0170792D01*
X0080167Y0170792D01*
X0080167Y0171393D01*
X0083967Y0171393D01*
X0083967Y0172791D01*
X0081565Y0175193D01*
X0080167Y0174841D02*
X0079567Y0174841D01*
X0079567Y0173842D02*
X0080167Y0173842D01*
X0080167Y0172844D02*
X0079567Y0172844D01*
X0079567Y0171845D02*
X0080167Y0171845D01*
X0080167Y0170847D02*
X0110167Y0170847D01*
X0110167Y0169848D02*
X0083967Y0169848D01*
X0083422Y0168850D02*
X0110463Y0168850D01*
X0111461Y0167851D02*
X0082424Y0167851D01*
X0080167Y0167851D02*
X0079567Y0167851D01*
X0079567Y0166993D02*
X0079567Y0170792D01*
X0075767Y0170792D01*
X0075767Y0169394D01*
X0078168Y0166993D01*
X0079567Y0166993D01*
X0079567Y0168850D02*
X0080167Y0168850D01*
X0080167Y0169848D02*
X0079567Y0169848D01*
X0079567Y0170847D02*
X0074567Y0170847D01*
X0074567Y0171845D02*
X0075767Y0171845D01*
X0075820Y0172844D02*
X0074567Y0172844D01*
X0073764Y0173842D02*
X0076818Y0173842D01*
X0077817Y0174841D02*
X0073841Y0174841D01*
X0069633Y0178835D02*
X0046425Y0178835D01*
X0047055Y0177836D02*
X0068634Y0177836D01*
X0067636Y0176838D02*
X0047378Y0176838D01*
X0047248Y0174841D02*
X0066967Y0174841D01*
X0067089Y0175839D02*
X0043658Y0175839D01*
X0043658Y0174841D02*
X0043083Y0174841D01*
X0043083Y0173842D02*
X0043658Y0173842D01*
X0043658Y0172844D02*
X0043083Y0172844D01*
X0040909Y0172844D02*
X0035767Y0172844D01*
X0035767Y0173842D02*
X0039969Y0173842D01*
X0037056Y0174841D02*
X0035767Y0174841D01*
X0035767Y0171845D02*
X0065167Y0171845D01*
X0065167Y0170847D02*
X0035767Y0170847D01*
X0035767Y0169848D02*
X0065167Y0169848D01*
X0065463Y0168850D02*
X0035767Y0168850D01*
X0035767Y0167851D02*
X0066461Y0167851D01*
X0067460Y0166853D02*
X0035767Y0166853D01*
X0035767Y0165854D02*
X0124379Y0165854D01*
X0125377Y0164856D02*
X0116902Y0164856D01*
X0116565Y0165193D02*
X0115167Y0165193D01*
X0115167Y0161393D01*
X0114567Y0161393D01*
X0114567Y0165192D01*
X0113168Y0165193D01*
X0110767Y0162791D01*
X0110767Y0161393D01*
X0114567Y0161393D01*
X0114567Y0160792D01*
X0115167Y0160792D01*
X0115167Y0156993D01*
X0116565Y0156993D01*
X0118967Y0159394D01*
X0118967Y0160792D01*
X0115167Y0160792D01*
X0115167Y0161393D01*
X0118967Y0161393D01*
X0118967Y0162791D01*
X0116565Y0165193D01*
X0115167Y0164856D02*
X0114567Y0164856D01*
X0114567Y0163857D02*
X0115167Y0163857D01*
X0115167Y0162859D02*
X0114567Y0162859D01*
X0114567Y0161860D02*
X0115167Y0161860D01*
X0115167Y0160862D02*
X0129371Y0160862D01*
X0128373Y0161860D02*
X0118967Y0161860D01*
X0118899Y0162859D02*
X0127374Y0162859D01*
X0126376Y0163857D02*
X0117900Y0163857D01*
X0117274Y0166853D02*
X0123380Y0166853D01*
X0118764Y0173842D02*
X0141818Y0173842D01*
X0142817Y0174841D02*
X0117765Y0174841D01*
X0117401Y0182829D02*
X0185167Y0182829D01*
X0185955Y0183828D02*
X0141617Y0183828D01*
X0142616Y0184826D02*
X0186953Y0184826D01*
X0192780Y0184826D02*
X0204617Y0184826D01*
X0204617Y0183828D02*
X0193778Y0183828D01*
X0194567Y0182829D02*
X0204617Y0182829D01*
X0204617Y0181831D02*
X0194567Y0181831D01*
X0194567Y0180832D02*
X0204617Y0180832D01*
X0204617Y0179833D02*
X0194567Y0179833D01*
X0194256Y0178835D02*
X0204617Y0178835D01*
X0204617Y0177836D02*
X0193257Y0177836D01*
X0192259Y0176838D02*
X0204617Y0176838D01*
X0204617Y0185825D02*
X0143614Y0185825D01*
X0143767Y0186823D02*
X0204617Y0186823D01*
X0204617Y0187822D02*
X0143767Y0187822D01*
X0143767Y0188820D02*
X0204617Y0188820D01*
X0204617Y0189819D02*
X0143156Y0189819D01*
X0142455Y0190817D02*
X0204617Y0190817D01*
X0204617Y0191816D02*
X0177237Y0191816D01*
X0176813Y0191393D02*
X0179567Y0194146D01*
X0179567Y0198039D01*
X0176813Y0200793D01*
X0172920Y0200793D01*
X0170167Y0198039D01*
X0170167Y0194146D01*
X0172920Y0191393D01*
X0176813Y0191393D01*
X0178235Y0192814D02*
X0204617Y0192814D01*
X0204617Y0193813D02*
X0179234Y0193813D01*
X0179567Y0194811D02*
X0204617Y0194811D01*
X0204617Y0195810D02*
X0179567Y0195810D01*
X0179567Y0196808D02*
X0204617Y0196808D01*
X0204617Y0197807D02*
X0179567Y0197807D01*
X0178801Y0198805D02*
X0204617Y0198805D01*
X0204617Y0199804D02*
X0177802Y0199804D01*
X0171931Y0199804D02*
X0167802Y0199804D01*
X0166813Y0200793D02*
X0169567Y0198039D01*
X0169567Y0194146D01*
X0166813Y0191393D01*
X0162920Y0191393D01*
X0160167Y0194146D01*
X0160167Y0198039D01*
X0162920Y0200793D01*
X0166813Y0200793D01*
X0168801Y0198805D02*
X0170933Y0198805D01*
X0170167Y0197807D02*
X0169567Y0197807D01*
X0169567Y0196808D02*
X0170167Y0196808D01*
X0170167Y0195810D02*
X0169567Y0195810D01*
X0169567Y0194811D02*
X0170167Y0194811D01*
X0170500Y0193813D02*
X0169234Y0193813D01*
X0168235Y0192814D02*
X0171498Y0192814D01*
X0172497Y0191816D02*
X0167237Y0191816D01*
X0162497Y0191816D02*
X0143454Y0191816D01*
X0144001Y0192814D02*
X0161498Y0192814D01*
X0160500Y0193813D02*
X0144367Y0193813D01*
X0144367Y0194811D02*
X0160167Y0194811D01*
X0160167Y0195810D02*
X0144233Y0195810D01*
X0143820Y0196808D02*
X0160167Y0196808D01*
X0160167Y0197807D02*
X0143016Y0197807D01*
X0141455Y0198805D02*
X0160933Y0198805D01*
X0161931Y0199804D02*
X0092888Y0199804D01*
X0092888Y0199931D02*
X0091976Y0200843D01*
X0204617Y0200843D01*
X0204617Y0146438D01*
X0203520Y0146893D01*
X0201213Y0146893D01*
X0199081Y0146010D01*
X0197450Y0144378D01*
X0196567Y0142246D01*
X0196567Y0139939D01*
X0197450Y0137807D01*
X0199081Y0136176D01*
X0199282Y0136093D01*
X0199081Y0136010D01*
X0197450Y0134378D01*
X0196567Y0132246D01*
X0196567Y0129939D01*
X0197450Y0127807D01*
X0199081Y0126176D01*
X0199282Y0126093D01*
X0199081Y0126010D01*
X0197450Y0124378D01*
X0196567Y0122246D01*
X0196567Y0119939D01*
X0197450Y0117807D01*
X0199081Y0116176D01*
X0199282Y0116093D01*
X0199081Y0116010D01*
X0197450Y0114378D01*
X0197290Y0113993D01*
X0187400Y0113993D01*
X0186334Y0113551D01*
X0152267Y0079483D01*
X0152267Y0080892D01*
X0148567Y0080892D01*
X0148567Y0077193D01*
X0149976Y0077193D01*
X0127367Y0054584D01*
X0127332Y0054809D01*
X0127132Y0055422D01*
X0126839Y0055997D01*
X0126460Y0056519D01*
X0126004Y0056976D01*
X0125482Y0057355D01*
X0124907Y0057648D01*
X0124293Y0057847D01*
X0123655Y0057948D01*
X0121033Y0057948D01*
X0121033Y0054148D01*
X0120433Y0054148D01*
X0120433Y0053548D01*
X0121033Y0053548D01*
X0121033Y0049748D01*
X0122532Y0049748D01*
X0121332Y0048548D01*
X0117198Y0048548D01*
X0115470Y0047833D01*
X0114148Y0046511D01*
X0113433Y0044783D01*
X0113433Y0042914D01*
X0114148Y0041186D01*
X0115470Y0039864D01*
X0117198Y0039148D01*
X0121932Y0039148D01*
X0121332Y0038548D01*
X0117198Y0038548D01*
X0115470Y0037833D01*
X0114148Y0036511D01*
X0113433Y0034783D01*
X0113433Y0032914D01*
X0114148Y0031186D01*
X0115470Y0029864D01*
X0117198Y0029148D01*
X0121932Y0029148D01*
X0121332Y0028548D01*
X0117198Y0028548D01*
X0115470Y0027833D01*
X0114148Y0026511D01*
X0113433Y0024783D01*
X0113433Y0024128D01*
X0112767Y0024794D01*
X0112767Y0048504D01*
X0113157Y0048894D01*
X0113748Y0050321D01*
X0113748Y0051865D01*
X0113157Y0053291D01*
X0112065Y0054383D01*
X0110639Y0054974D01*
X0109095Y0054974D01*
X0107668Y0054383D01*
X0106576Y0053291D01*
X0105986Y0051865D01*
X0105986Y0050321D01*
X0106576Y0048894D01*
X0106967Y0048504D01*
X0106967Y0042338D01*
X0106639Y0042474D01*
X0105142Y0042474D01*
X0105142Y0059391D01*
X0109962Y0064211D01*
X0110639Y0064211D01*
X0112065Y0064802D01*
X0113157Y0065894D01*
X0113748Y0067321D01*
X0113748Y0068865D01*
X0113157Y0070291D01*
X0112065Y0071383D01*
X0110639Y0071974D01*
X0109095Y0071974D01*
X0107668Y0071383D01*
X0106576Y0070291D01*
X0105986Y0068865D01*
X0105986Y0068438D01*
X0099783Y0062235D01*
X0099342Y0061169D01*
X0099342Y0049219D01*
X0098075Y0050485D01*
X0097334Y0051226D01*
X0098033Y0052914D01*
X0098033Y0054783D01*
X0097317Y0056511D01*
X0095995Y0057833D01*
X0094268Y0058548D01*
X0087198Y0058548D01*
X0085470Y0057833D01*
X0084148Y0056511D01*
X0083433Y0054783D01*
X0083433Y0052914D01*
X0083918Y0051743D01*
X0082540Y0051743D01*
X0081474Y0051301D01*
X0080290Y0050118D01*
X0078818Y0050118D01*
X0078951Y0050438D01*
X0078951Y0052062D01*
X0078329Y0053564D01*
X0077180Y0054712D01*
X0075679Y0055334D01*
X0074054Y0055334D01*
X0072553Y0054712D01*
X0072017Y0054176D01*
X0072017Y0059086D01*
X0072160Y0058871D01*
X0072646Y0058386D01*
X0073216Y0058005D01*
X0073850Y0057742D01*
X0074523Y0057608D01*
X0074867Y0057608D01*
X0075210Y0057608D01*
X0075883Y0057742D01*
X0076517Y0058005D01*
X0077088Y0058386D01*
X0077573Y0058871D01*
X0077954Y0059442D01*
X0078217Y0060076D01*
X0078351Y0060749D01*
X0078351Y0061092D01*
X0074867Y0061092D01*
X0074867Y0057608D01*
X0074867Y0061092D01*
X0074867Y0061092D01*
X0074867Y0061093D01*
X0074867Y0061093D01*
X0074867Y0064577D01*
X0075210Y0064577D01*
X0075883Y0064443D01*
X0076517Y0064180D01*
X0077088Y0063799D01*
X0077573Y0063314D01*
X0077954Y0062743D01*
X0078217Y0062109D01*
X0078351Y0061436D01*
X0078351Y0061093D01*
X0074867Y0061093D01*
X0074867Y0064577D01*
X0074523Y0064577D01*
X0073850Y0064443D01*
X0073216Y0064180D01*
X0072646Y0063799D01*
X0072160Y0063314D01*
X0072017Y0063099D01*
X0072017Y0068009D01*
X0072553Y0067473D01*
X0074054Y0066851D01*
X0075679Y0066851D01*
X0077180Y0067473D01*
X0078329Y0068621D01*
X0078951Y0070123D01*
X0078951Y0071747D01*
X0078329Y0073249D01*
X0077180Y0074397D01*
X0075679Y0075019D01*
X0074054Y0075019D01*
X0072553Y0074397D01*
X0071404Y0073249D01*
X0070865Y0071946D01*
X0069093Y0073718D01*
X0081068Y0085693D01*
X0083809Y0085693D01*
X0083433Y0084783D01*
X0083433Y0082914D01*
X0084148Y0081186D01*
X0085470Y0079864D01*
X0087198Y0079148D01*
X0094268Y0079148D01*
X0095995Y0079864D01*
X0097317Y0081186D01*
X0098033Y0082914D01*
X0098033Y0084783D01*
X0097411Y0086285D01*
X0098075Y0086950D01*
X0101715Y0090590D01*
X0114504Y0090831D01*
X0115470Y0089864D01*
X0117198Y0089148D01*
X0124268Y0089148D01*
X0125995Y0089864D01*
X0127317Y0091186D01*
X0128033Y0092914D01*
X0128033Y0094783D01*
X0127317Y0096511D01*
X0125995Y0097833D01*
X0124268Y0098548D01*
X0117198Y0098548D01*
X0115470Y0097833D01*
X0114265Y0096627D01*
X0100464Y0096368D01*
X0099915Y0096368D01*
X0099889Y0096357D01*
X0099860Y0096356D01*
X0099357Y0096136D01*
X0098849Y0095926D01*
X0098829Y0095906D01*
X0098803Y0095895D01*
X0098422Y0095499D01*
X0097937Y0095014D01*
X0097317Y0096511D01*
X0095995Y0097833D01*
X0094268Y0098548D01*
X0087198Y0098548D01*
X0085470Y0097833D01*
X0084148Y0096511D01*
X0083433Y0094783D01*
X0083433Y0092914D01*
X0084021Y0091493D01*
X0079290Y0091493D01*
X0078224Y0091051D01*
X0063790Y0076618D01*
X0023443Y0076618D01*
X0020507Y0079553D01*
X0020667Y0079939D01*
X0020667Y0082246D01*
X0019784Y0084378D01*
X0018152Y0086010D01*
X0017952Y0086093D01*
X0018152Y0086176D01*
X0019784Y0087807D01*
X0020667Y0089939D01*
X0020667Y0092246D01*
X0019784Y0094378D01*
X0018152Y0096010D01*
X0017952Y0096093D01*
X0018152Y0096176D01*
X0019784Y0097807D01*
X0020667Y0099939D01*
X0020667Y0102246D01*
X0019784Y0104378D01*
X0018152Y0106010D01*
X0017952Y0106093D01*
X0018152Y0106176D01*
X0019784Y0107807D01*
X0020667Y0109939D01*
X0020667Y0112246D01*
X0019784Y0114378D01*
X0018152Y0116010D01*
X0017952Y0116093D01*
X0018152Y0116176D01*
X0019784Y0117807D01*
X0020667Y0119939D01*
X0020667Y0122246D01*
X0019784Y0124378D01*
X0018152Y0126010D01*
X0017952Y0126093D01*
X0018152Y0126176D01*
X0019784Y0127807D01*
X0020667Y0129939D01*
X0020667Y0132246D01*
X0019784Y0134378D01*
X0018152Y0136010D01*
X0017952Y0136093D01*
X0018152Y0136176D01*
X0019784Y0137807D01*
X0020667Y0139939D01*
X0020667Y0142246D01*
X0019784Y0144378D01*
X0018152Y0146010D01*
X0016020Y0146893D01*
X0013713Y0146893D01*
X0011967Y0146169D01*
X0011967Y0200843D01*
X0016637Y0200843D01*
X0015582Y0198295D01*
X0015582Y0195228D01*
X0016755Y0192394D01*
X0018924Y0190225D01*
X0021758Y0189052D01*
X0024826Y0189052D01*
X0027659Y0190225D01*
X0029828Y0192394D01*
X0031002Y0195228D01*
X0031002Y0198295D01*
X0029947Y0200843D01*
X0052167Y0200843D01*
X0051255Y0199931D01*
X0051255Y0192254D01*
X0052485Y0191024D01*
X0060162Y0191024D01*
X0060654Y0191516D01*
X0060753Y0191418D01*
X0067642Y0191418D01*
X0068134Y0191910D01*
X0068627Y0191418D01*
X0075516Y0191418D01*
X0076008Y0191910D01*
X0076501Y0191418D01*
X0083390Y0191418D01*
X0083489Y0191516D01*
X0083981Y0191024D01*
X0091658Y0191024D01*
X0092888Y0192254D01*
X0092888Y0199931D01*
X0092888Y0198805D02*
X0138278Y0198805D01*
X0136717Y0197807D02*
X0092888Y0197807D01*
X0092888Y0196808D02*
X0135914Y0196808D01*
X0135500Y0195810D02*
X0092888Y0195810D01*
X0092888Y0194811D02*
X0135367Y0194811D01*
X0135367Y0193813D02*
X0092888Y0193813D01*
X0092888Y0192814D02*
X0135733Y0192814D01*
X0136280Y0191816D02*
X0092449Y0191816D01*
X0092017Y0200802D02*
X0204617Y0200802D01*
X0190167Y0154871D02*
X0189567Y0154871D01*
X0189567Y0153872D02*
X0190167Y0153872D01*
X0190167Y0152874D02*
X0189567Y0152874D01*
X0189567Y0151875D02*
X0190167Y0151875D01*
X0189867Y0151893D02*
X0189867Y0151093D01*
X0189567Y0150877D02*
X0145184Y0150877D01*
X0146182Y0149878D02*
X0185767Y0149878D01*
X0185767Y0149394D02*
X0188168Y0146993D01*
X0189567Y0146993D01*
X0189567Y0150792D01*
X0185767Y0150792D01*
X0185767Y0149394D01*
X0186281Y0148880D02*
X0147181Y0148880D01*
X0148179Y0147881D02*
X0187280Y0147881D01*
X0189567Y0147881D02*
X0190167Y0147881D01*
X0190167Y0148880D02*
X0189567Y0148880D01*
X0189567Y0149878D02*
X0190167Y0149878D01*
X0189867Y0151893D02*
X0148467Y0151893D01*
X0149178Y0146883D02*
X0201189Y0146883D01*
X0203544Y0146883D02*
X0204617Y0146883D01*
X0204617Y0147881D02*
X0192454Y0147881D01*
X0193452Y0148880D02*
X0204617Y0148880D01*
X0204617Y0149878D02*
X0193967Y0149878D01*
X0198956Y0145884D02*
X0150176Y0145884D01*
X0151175Y0144886D02*
X0197957Y0144886D01*
X0197246Y0143887D02*
X0152173Y0143887D01*
X0153172Y0142889D02*
X0196833Y0142889D01*
X0196567Y0141890D02*
X0154170Y0141890D01*
X0155169Y0140892D02*
X0196567Y0140892D01*
X0196586Y0139893D02*
X0156167Y0139893D01*
X0157166Y0138895D02*
X0196999Y0138895D01*
X0197413Y0137896D02*
X0158164Y0137896D01*
X0159163Y0136898D02*
X0198359Y0136898D01*
X0198971Y0135899D02*
X0160161Y0135899D01*
X0161160Y0134900D02*
X0197972Y0134900D01*
X0197252Y0133902D02*
X0162158Y0133902D01*
X0163157Y0132903D02*
X0196839Y0132903D01*
X0196567Y0131905D02*
X0164155Y0131905D01*
X0165154Y0130906D02*
X0196567Y0130906D01*
X0196579Y0129908D02*
X0166152Y0129908D01*
X0167151Y0128909D02*
X0196993Y0128909D01*
X0197407Y0127911D02*
X0168149Y0127911D01*
X0169148Y0126912D02*
X0198344Y0126912D01*
X0198986Y0125914D02*
X0170147Y0125914D01*
X0171145Y0124915D02*
X0197987Y0124915D01*
X0197259Y0123917D02*
X0172144Y0123917D01*
X0173142Y0122918D02*
X0196845Y0122918D01*
X0196567Y0121920D02*
X0174141Y0121920D01*
X0175139Y0120921D02*
X0196567Y0120921D01*
X0196573Y0119923D02*
X0176138Y0119923D01*
X0179608Y0118924D02*
X0196987Y0118924D01*
X0197400Y0117926D02*
X0181135Y0117926D01*
X0181660Y0116927D02*
X0198329Y0116927D01*
X0199000Y0115929D02*
X0181767Y0115929D01*
X0181524Y0114930D02*
X0198002Y0114930D01*
X0187253Y0113932D02*
X0180807Y0113932D01*
X0183719Y0110936D02*
X0175199Y0110936D01*
X0175881Y0111935D02*
X0184718Y0111935D01*
X0185716Y0112933D02*
X0176248Y0112933D01*
X0173685Y0109938D02*
X0182721Y0109938D01*
X0181722Y0108939D02*
X0020253Y0108939D01*
X0019839Y0107941D02*
X0085731Y0107941D01*
X0085470Y0107833D02*
X0084148Y0106511D01*
X0083433Y0104783D01*
X0083433Y0102914D01*
X0084148Y0101186D01*
X0085470Y0099864D01*
X0087198Y0099148D01*
X0094268Y0099148D01*
X0095995Y0099864D01*
X0097317Y0101186D01*
X0098033Y0102914D01*
X0098033Y0104783D01*
X0097317Y0106511D01*
X0095995Y0107833D01*
X0094268Y0108548D01*
X0087198Y0108548D01*
X0085470Y0107833D01*
X0084580Y0106942D02*
X0018919Y0106942D01*
X0018218Y0105944D02*
X0083913Y0105944D01*
X0083500Y0104945D02*
X0019216Y0104945D01*
X0019962Y0103947D02*
X0083433Y0103947D01*
X0083433Y0102948D02*
X0020376Y0102948D01*
X0020667Y0101950D02*
X0083832Y0101950D01*
X0084383Y0100951D02*
X0020667Y0100951D01*
X0020667Y0099953D02*
X0085382Y0099953D01*
X0085767Y0097956D02*
X0019845Y0097956D01*
X0020259Y0098954D02*
X0171737Y0098954D01*
X0170739Y0097956D02*
X0125699Y0097956D01*
X0126871Y0096957D02*
X0169740Y0096957D01*
X0168742Y0095959D02*
X0127546Y0095959D01*
X0127960Y0094960D02*
X0167743Y0094960D01*
X0166745Y0093962D02*
X0128033Y0093962D01*
X0128033Y0092963D02*
X0165746Y0092963D01*
X0164748Y0091964D02*
X0127640Y0091964D01*
X0127097Y0090966D02*
X0163749Y0090966D01*
X0162751Y0089967D02*
X0126099Y0089967D01*
X0125663Y0087970D02*
X0160754Y0087970D01*
X0159755Y0086972D02*
X0126856Y0086972D01*
X0127317Y0086511D02*
X0125995Y0087833D01*
X0124268Y0088548D01*
X0117198Y0088548D01*
X0115470Y0087833D01*
X0114148Y0086511D01*
X0113433Y0084783D01*
X0113433Y0082914D01*
X0114148Y0081186D01*
X0115470Y0079864D01*
X0117198Y0079148D01*
X0124268Y0079148D01*
X0125995Y0079864D01*
X0127317Y0081186D01*
X0128033Y0082914D01*
X0128033Y0084783D01*
X0127317Y0086511D01*
X0127540Y0085973D02*
X0158757Y0085973D01*
X0157758Y0084975D02*
X0150000Y0084975D01*
X0149982Y0084993D02*
X0148567Y0084993D01*
X0148567Y0081293D01*
X0148167Y0081293D01*
X0148167Y0084993D01*
X0146751Y0084993D01*
X0145246Y0083487D01*
X0145182Y0083642D01*
X0143916Y0084907D01*
X0142262Y0085593D01*
X0140472Y0085593D01*
X0138818Y0084907D01*
X0137552Y0083642D01*
X0136867Y0081988D01*
X0136867Y0080197D01*
X0137552Y0078543D01*
X0138818Y0077278D01*
X0140472Y0076593D01*
X0142262Y0076593D01*
X0143916Y0077278D01*
X0145182Y0078543D01*
X0145246Y0078698D01*
X0146751Y0077193D01*
X0148167Y0077193D01*
X0148167Y0080892D01*
X0148567Y0080892D01*
X0148567Y0081293D01*
X0152267Y0081293D01*
X0152267Y0082708D01*
X0149982Y0084993D01*
X0148567Y0084975D02*
X0148167Y0084975D01*
X0148167Y0083976D02*
X0148567Y0083976D01*
X0148567Y0082978D02*
X0148167Y0082978D01*
X0148167Y0081979D02*
X0148567Y0081979D01*
X0148367Y0081093D02*
X0147567Y0081693D01*
X0147567Y0106893D01*
X0121467Y0132993D01*
X0120733Y0133848D01*
X0121033Y0133902D02*
X0147956Y0133902D01*
X0146957Y0134900D02*
X0127302Y0134900D01*
X0127334Y0132903D02*
X0148954Y0132903D01*
X0149953Y0131905D02*
X0126944Y0131905D01*
X0126189Y0130906D02*
X0150952Y0130906D01*
X0151950Y0129908D02*
X0124473Y0129908D01*
X0124268Y0128548D02*
X0125995Y0127833D01*
X0127317Y0126511D01*
X0128033Y0124783D01*
X0128033Y0122914D01*
X0127317Y0121186D01*
X0125995Y0119864D01*
X0124268Y0119148D01*
X0117198Y0119148D01*
X0115470Y0119864D01*
X0114148Y0121186D01*
X0113433Y0122914D01*
X0113433Y0124783D01*
X0114148Y0126511D01*
X0115470Y0127833D01*
X0117198Y0128548D01*
X0124268Y0128548D01*
X0125807Y0127911D02*
X0153947Y0127911D01*
X0152949Y0128909D02*
X0020240Y0128909D01*
X0019827Y0127911D02*
X0085659Y0127911D01*
X0085470Y0127833D02*
X0084148Y0126511D01*
X0083433Y0124783D01*
X0083433Y0122914D01*
X0084148Y0121186D01*
X0085470Y0119864D01*
X0087198Y0119148D01*
X0094268Y0119148D01*
X0095995Y0119864D01*
X0097317Y0121186D01*
X0098033Y0122914D01*
X0098033Y0124783D01*
X0097317Y0126511D01*
X0095995Y0127833D01*
X0094268Y0128548D01*
X0087198Y0128548D01*
X0085470Y0127833D01*
X0084550Y0126912D02*
X0018889Y0126912D01*
X0018248Y0125914D02*
X0083901Y0125914D01*
X0083488Y0124915D02*
X0019246Y0124915D01*
X0019975Y0123917D02*
X0083433Y0123917D01*
X0083433Y0122918D02*
X0020388Y0122918D01*
X0020667Y0121920D02*
X0083844Y0121920D01*
X0084413Y0120921D02*
X0020667Y0120921D01*
X0020660Y0119923D02*
X0085412Y0119923D01*
X0085695Y0117926D02*
X0019833Y0117926D01*
X0020246Y0118924D02*
X0162934Y0118924D01*
X0163932Y0117926D02*
X0125771Y0117926D01*
X0125995Y0117833D02*
X0124268Y0118548D01*
X0117198Y0118548D01*
X0115470Y0117833D01*
X0114148Y0116511D01*
X0113433Y0114783D01*
X0113433Y0112914D01*
X0114148Y0111186D01*
X0115470Y0109864D01*
X0117198Y0109148D01*
X0124268Y0109148D01*
X0125995Y0109864D01*
X0127317Y0111186D01*
X0128033Y0112914D01*
X0128033Y0114783D01*
X0127317Y0116511D01*
X0125995Y0117833D01*
X0126901Y0116927D02*
X0164931Y0116927D01*
X0165929Y0115929D02*
X0127558Y0115929D01*
X0127972Y0114930D02*
X0166928Y0114930D01*
X0167926Y0113932D02*
X0128033Y0113932D01*
X0128033Y0112933D02*
X0168486Y0112933D01*
X0168852Y0111935D02*
X0127627Y0111935D01*
X0127067Y0110936D02*
X0169534Y0110936D01*
X0171048Y0109938D02*
X0126069Y0109938D01*
X0125735Y0107941D02*
X0180724Y0107941D01*
X0179725Y0106942D02*
X0126886Y0106942D01*
X0127317Y0106511D02*
X0125995Y0107833D01*
X0124268Y0108548D01*
X0117198Y0108548D01*
X0115470Y0107833D01*
X0114148Y0106511D01*
X0113433Y0104783D01*
X0113433Y0102914D01*
X0114148Y0101186D01*
X0115470Y0099864D01*
X0117198Y0099148D01*
X0124268Y0099148D01*
X0125995Y0099864D01*
X0127317Y0101186D01*
X0128033Y0102914D01*
X0128033Y0104783D01*
X0127317Y0106511D01*
X0127552Y0105944D02*
X0178727Y0105944D01*
X0177728Y0104945D02*
X0127966Y0104945D01*
X0128033Y0103947D02*
X0176730Y0103947D01*
X0175731Y0102948D02*
X0128033Y0102948D01*
X0127634Y0101950D02*
X0174733Y0101950D01*
X0173734Y0100951D02*
X0127082Y0100951D01*
X0126084Y0099953D02*
X0172736Y0099953D01*
X0161752Y0088969D02*
X0100094Y0088969D01*
X0099096Y0087970D02*
X0115803Y0087970D01*
X0114610Y0086972D02*
X0098097Y0086972D01*
X0097540Y0085973D02*
X0113926Y0085973D01*
X0113512Y0084975D02*
X0097953Y0084975D01*
X0098033Y0083976D02*
X0113433Y0083976D01*
X0113433Y0082978D02*
X0098033Y0082978D01*
X0097646Y0081979D02*
X0113820Y0081979D01*
X0114354Y0080981D02*
X0097112Y0080981D01*
X0096114Y0079982D02*
X0115352Y0079982D01*
X0115839Y0077985D02*
X0073361Y0077985D01*
X0072362Y0076987D02*
X0085477Y0076987D01*
X0085462Y0076976D02*
X0085005Y0076519D01*
X0084626Y0075997D01*
X0084333Y0075422D01*
X0084134Y0074809D01*
X0084033Y0074171D01*
X0084033Y0074148D01*
X0090433Y0074148D01*
X0090433Y0073548D01*
X0091033Y0073548D01*
X0091033Y0069748D01*
X0093655Y0069748D01*
X0094293Y0069849D01*
X0094907Y0070049D01*
X0095482Y0070342D01*
X0096004Y0070721D01*
X0096460Y0071177D01*
X0096839Y0071700D01*
X0097132Y0072275D01*
X0097332Y0072888D01*
X0097433Y0073526D01*
X0097433Y0073548D01*
X0091033Y0073548D01*
X0091033Y0074148D01*
X0097433Y0074148D01*
X0097433Y0074171D01*
X0097332Y0074809D01*
X0097132Y0075422D01*
X0096839Y0075997D01*
X0096460Y0076519D01*
X0096004Y0076976D01*
X0095482Y0077355D01*
X0094907Y0077648D01*
X0094293Y0077847D01*
X0093655Y0077948D01*
X0091033Y0077948D01*
X0091033Y0074148D01*
X0090433Y0074148D01*
X0090433Y0077948D01*
X0087810Y0077948D01*
X0087173Y0077847D01*
X0086559Y0077648D01*
X0085984Y0077355D01*
X0085462Y0076976D01*
X0084622Y0075988D02*
X0071364Y0075988D01*
X0070365Y0074990D02*
X0073983Y0074990D01*
X0075750Y0074990D02*
X0084193Y0074990D01*
X0084033Y0073548D02*
X0084033Y0073526D01*
X0084134Y0072888D01*
X0084333Y0072275D01*
X0084626Y0071700D01*
X0085005Y0071177D01*
X0085462Y0070721D01*
X0085984Y0070342D01*
X0086559Y0070049D01*
X0087173Y0069849D01*
X0087810Y0069748D01*
X0090433Y0069748D01*
X0090433Y0073548D01*
X0084033Y0073548D01*
X0084117Y0072993D02*
X0078435Y0072993D01*
X0078849Y0071994D02*
X0084476Y0071994D01*
X0085187Y0070996D02*
X0078951Y0070996D01*
X0078899Y0069997D02*
X0086718Y0069997D01*
X0087198Y0068548D02*
X0085470Y0067833D01*
X0084148Y0066511D01*
X0083433Y0064783D01*
X0083433Y0062914D01*
X0084148Y0061186D01*
X0085470Y0059864D01*
X0087198Y0059148D01*
X0094268Y0059148D01*
X0095995Y0059864D01*
X0097317Y0061186D01*
X0098033Y0062914D01*
X0098033Y0064783D01*
X0097317Y0066511D01*
X0095995Y0067833D01*
X0094268Y0068548D01*
X0087198Y0068548D01*
X0085874Y0068000D02*
X0077708Y0068000D01*
X0078485Y0068999D02*
X0106041Y0068999D01*
X0106455Y0069997D02*
X0094748Y0069997D01*
X0096278Y0070996D02*
X0107281Y0070996D01*
X0105548Y0068000D02*
X0095591Y0068000D01*
X0096826Y0067002D02*
X0104550Y0067002D01*
X0103551Y0066003D02*
X0097527Y0066003D01*
X0097941Y0065005D02*
X0102553Y0065005D01*
X0101554Y0064006D02*
X0098033Y0064006D01*
X0098033Y0063008D02*
X0100556Y0063008D01*
X0099690Y0062009D02*
X0097658Y0062009D01*
X0097142Y0061011D02*
X0099342Y0061011D01*
X0099342Y0060012D02*
X0096143Y0060012D01*
X0095555Y0058015D02*
X0099342Y0058015D01*
X0099342Y0057017D02*
X0096811Y0057017D01*
X0097521Y0056018D02*
X0099342Y0056018D01*
X0099342Y0055020D02*
X0097935Y0055020D01*
X0098033Y0054021D02*
X0099342Y0054021D01*
X0099342Y0053023D02*
X0098033Y0053023D01*
X0097664Y0052024D02*
X0099342Y0052024D01*
X0099342Y0051026D02*
X0097535Y0051026D01*
X0098533Y0050027D02*
X0099342Y0050027D01*
X0105142Y0050027D02*
X0106107Y0050027D01*
X0105986Y0051026D02*
X0105142Y0051026D01*
X0105142Y0052024D02*
X0106052Y0052024D01*
X0106465Y0053023D02*
X0105142Y0053023D01*
X0105142Y0054021D02*
X0107306Y0054021D01*
X0105142Y0055020D02*
X0114202Y0055020D01*
X0114134Y0054809D02*
X0114033Y0054171D01*
X0114033Y0054148D01*
X0120433Y0054148D01*
X0120433Y0057948D01*
X0117810Y0057948D01*
X0117173Y0057847D01*
X0116559Y0057648D01*
X0115984Y0057355D01*
X0115462Y0056976D01*
X0115005Y0056519D01*
X0114626Y0055997D01*
X0114333Y0055422D01*
X0114134Y0054809D01*
X0114033Y0053548D02*
X0114033Y0053526D01*
X0114134Y0052888D01*
X0114333Y0052275D01*
X0114626Y0051700D01*
X0115005Y0051177D01*
X0115462Y0050721D01*
X0115984Y0050342D01*
X0116559Y0050049D01*
X0117173Y0049849D01*
X0117810Y0049748D01*
X0120433Y0049748D01*
X0120433Y0053548D01*
X0114033Y0053548D01*
X0114112Y0053023D02*
X0113268Y0053023D01*
X0113682Y0052024D02*
X0114461Y0052024D01*
X0115157Y0051026D02*
X0113748Y0051026D01*
X0113626Y0050027D02*
X0116626Y0050027D01*
X0115946Y0048030D02*
X0112767Y0048030D01*
X0112767Y0047031D02*
X0114669Y0047031D01*
X0113950Y0046033D02*
X0112767Y0046033D01*
X0112767Y0045034D02*
X0113537Y0045034D01*
X0113433Y0044036D02*
X0112767Y0044036D01*
X0112767Y0043037D02*
X0113433Y0043037D01*
X0113795Y0042039D02*
X0112767Y0042039D01*
X0112767Y0041040D02*
X0114294Y0041040D01*
X0115293Y0040042D02*
X0112767Y0040042D01*
X0112767Y0039043D02*
X0121827Y0039043D01*
X0115982Y0038045D02*
X0112767Y0038045D01*
X0112767Y0037046D02*
X0114684Y0037046D01*
X0113957Y0036048D02*
X0112767Y0036048D01*
X0112767Y0035049D02*
X0113543Y0035049D01*
X0113433Y0034051D02*
X0112767Y0034051D01*
X0112767Y0033052D02*
X0113433Y0033052D01*
X0113789Y0032054D02*
X0112767Y0032054D01*
X0112767Y0031055D02*
X0114279Y0031055D01*
X0115278Y0030057D02*
X0112767Y0030057D01*
X0112767Y0029058D02*
X0121841Y0029058D01*
X0127370Y0026384D02*
X0128935Y0027949D01*
X0128486Y0026865D01*
X0128486Y0025321D01*
X0129076Y0023894D01*
X0130168Y0022802D01*
X0131595Y0022211D01*
X0133139Y0022211D01*
X0134565Y0022802D01*
X0135657Y0023894D01*
X0136248Y0025321D01*
X0136248Y0025872D01*
X0151068Y0040693D01*
X0152820Y0040693D01*
X0150167Y0038039D01*
X0150167Y0034146D01*
X0152920Y0031393D01*
X0156813Y0031393D01*
X0159567Y0034146D01*
X0159567Y0038039D01*
X0156913Y0040693D01*
X0162944Y0040693D01*
X0164009Y0041134D01*
X0164825Y0041950D01*
X0179825Y0056950D01*
X0180267Y0058016D01*
X0180267Y0063391D01*
X0194068Y0077193D01*
X0198064Y0077193D01*
X0199081Y0076176D01*
X0200078Y0075763D01*
X0199641Y0075540D01*
X0198979Y0075059D01*
X0198400Y0074480D01*
X0197919Y0073818D01*
X0197548Y0073089D01*
X0197295Y0072310D01*
X0197181Y0071592D01*
X0201867Y0071592D01*
X0201867Y0070593D01*
X0197181Y0070593D01*
X0197295Y0069875D01*
X0197548Y0069096D01*
X0197919Y0068367D01*
X0198400Y0067705D01*
X0198979Y0067126D01*
X0199641Y0066645D01*
X0200371Y0066273D01*
X0201149Y0066021D01*
X0201867Y0065907D01*
X0201867Y0070592D01*
X0202867Y0070592D01*
X0202867Y0065907D01*
X0203584Y0066021D01*
X0204363Y0066273D01*
X0204617Y0066403D01*
X0204617Y0056438D01*
X0203520Y0056893D01*
X0201213Y0056893D01*
X0199081Y0056010D01*
X0197450Y0054378D01*
X0196567Y0052246D01*
X0196567Y0049939D01*
X0197450Y0047807D01*
X0199081Y0046176D01*
X0199282Y0046093D01*
X0199081Y0046010D01*
X0197450Y0044378D01*
X0196567Y0042246D01*
X0196567Y0039939D01*
X0197450Y0037807D01*
X0199081Y0036176D01*
X0200078Y0035763D01*
X0199641Y0035540D01*
X0198979Y0035059D01*
X0198400Y0034480D01*
X0197919Y0033818D01*
X0197548Y0033089D01*
X0197295Y0032310D01*
X0197181Y0031592D01*
X0201867Y0031592D01*
X0201867Y0030593D01*
X0197181Y0030593D01*
X0197295Y0029875D01*
X0197548Y0029096D01*
X0197919Y0028367D01*
X0198400Y0027705D01*
X0198979Y0027126D01*
X0199641Y0026645D01*
X0200078Y0026422D01*
X0199081Y0026010D01*
X0197450Y0024378D01*
X0196567Y0022246D01*
X0196567Y0019939D01*
X0197450Y0017807D01*
X0199081Y0016176D01*
X0199282Y0016093D01*
X0199081Y0016010D01*
X0197450Y0014378D01*
X0197290Y0013993D01*
X0187741Y0013993D01*
X0187741Y0015608D01*
X0183756Y0015608D01*
X0183756Y0016577D01*
X0182788Y0016577D01*
X0182788Y0019806D01*
X0193850Y0028568D01*
X0194009Y0028634D01*
X0194299Y0028923D01*
X0194619Y0029177D01*
X0194703Y0029328D01*
X0194825Y0029450D01*
X0194982Y0029828D01*
X0195181Y0030185D01*
X0195201Y0030356D01*
X0195267Y0030516D01*
X0195267Y0030925D01*
X0195314Y0031331D01*
X0195267Y0031497D01*
X0195267Y0044169D01*
X0194825Y0045235D01*
X0189567Y0050494D01*
X0189567Y0053039D01*
X0186813Y0055793D01*
X0182920Y0055793D01*
X0180167Y0053039D01*
X0180167Y0049146D01*
X0182920Y0046393D01*
X0185465Y0046393D01*
X0189467Y0042391D01*
X0189467Y0038139D01*
X0186813Y0040793D01*
X0182920Y0040793D01*
X0181120Y0038993D01*
X0176040Y0038993D01*
X0174974Y0038551D01*
X0164349Y0027926D01*
X0163533Y0027110D01*
X0163092Y0026044D01*
X0163092Y0018306D01*
X0162701Y0017916D01*
X0162538Y0017522D01*
X0159009Y0021051D01*
X0157944Y0021493D01*
X0127444Y0021493D01*
X0128033Y0022914D01*
X0128033Y0024783D01*
X0127370Y0026384D01*
X0127503Y0026063D02*
X0128486Y0026063D01*
X0128567Y0027061D02*
X0128047Y0027061D01*
X0127916Y0025064D02*
X0128592Y0025064D01*
X0129005Y0024066D02*
X0128033Y0024066D01*
X0128033Y0023067D02*
X0129903Y0023067D01*
X0127683Y0022069D02*
X0163092Y0022069D01*
X0163092Y0023067D02*
X0134830Y0023067D01*
X0135728Y0024066D02*
X0163092Y0024066D01*
X0163092Y0025064D02*
X0136142Y0025064D01*
X0136438Y0026063D02*
X0163099Y0026063D01*
X0163513Y0027061D02*
X0137437Y0027061D01*
X0138435Y0028060D02*
X0164483Y0028060D01*
X0165481Y0029058D02*
X0139434Y0029058D01*
X0140432Y0030057D02*
X0166480Y0030057D01*
X0167478Y0031055D02*
X0141431Y0031055D01*
X0142429Y0032054D02*
X0152259Y0032054D01*
X0151260Y0033052D02*
X0143428Y0033052D01*
X0144426Y0034051D02*
X0150262Y0034051D01*
X0150167Y0035049D02*
X0145425Y0035049D01*
X0146423Y0036048D02*
X0150167Y0036048D01*
X0150167Y0037046D02*
X0147422Y0037046D01*
X0148420Y0038045D02*
X0150172Y0038045D01*
X0149419Y0039043D02*
X0151171Y0039043D01*
X0150417Y0040042D02*
X0152169Y0040042D01*
X0157564Y0040042D02*
X0182169Y0040042D01*
X0181171Y0039043D02*
X0158563Y0039043D01*
X0159561Y0038045D02*
X0174468Y0038045D01*
X0173469Y0037046D02*
X0159567Y0037046D01*
X0159567Y0036048D02*
X0172471Y0036048D01*
X0171472Y0035049D02*
X0159567Y0035049D01*
X0159472Y0034051D02*
X0170474Y0034051D01*
X0169475Y0033052D02*
X0158473Y0033052D01*
X0157475Y0032054D02*
X0168477Y0032054D01*
X0163783Y0041040D02*
X0189467Y0041040D01*
X0189467Y0040042D02*
X0187564Y0040042D01*
X0188563Y0039043D02*
X0189467Y0039043D01*
X0189467Y0042039D02*
X0164914Y0042039D01*
X0165913Y0043037D02*
X0188821Y0043037D01*
X0187822Y0044036D02*
X0166911Y0044036D01*
X0167910Y0045034D02*
X0186823Y0045034D01*
X0185825Y0046033D02*
X0168908Y0046033D01*
X0169907Y0047031D02*
X0182281Y0047031D01*
X0181282Y0048030D02*
X0170905Y0048030D01*
X0171904Y0049029D02*
X0180284Y0049029D01*
X0180167Y0050027D02*
X0172902Y0050027D01*
X0173901Y0051026D02*
X0180167Y0051026D01*
X0180167Y0052024D02*
X0174899Y0052024D01*
X0175898Y0053023D02*
X0180167Y0053023D01*
X0181148Y0054021D02*
X0176896Y0054021D01*
X0177895Y0055020D02*
X0182147Y0055020D01*
X0179853Y0057017D02*
X0204617Y0057017D01*
X0204617Y0058015D02*
X0180266Y0058015D01*
X0180267Y0059014D02*
X0204617Y0059014D01*
X0204617Y0060012D02*
X0180267Y0060012D01*
X0180267Y0061011D02*
X0204617Y0061011D01*
X0204617Y0062009D02*
X0180267Y0062009D01*
X0180267Y0063008D02*
X0204617Y0063008D01*
X0204617Y0064006D02*
X0180882Y0064006D01*
X0181880Y0065005D02*
X0204617Y0065005D01*
X0204617Y0066003D02*
X0203475Y0066003D01*
X0202867Y0066003D02*
X0201867Y0066003D01*
X0201259Y0066003D02*
X0182879Y0066003D01*
X0183877Y0067002D02*
X0199150Y0067002D01*
X0198186Y0068000D02*
X0184876Y0068000D01*
X0185874Y0068999D02*
X0197597Y0068999D01*
X0197275Y0069997D02*
X0186873Y0069997D01*
X0187871Y0070996D02*
X0201867Y0070996D01*
X0201567Y0070893D02*
X0202367Y0071093D01*
X0201867Y0069997D02*
X0202867Y0069997D01*
X0202867Y0068999D02*
X0201867Y0068999D01*
X0201867Y0068000D02*
X0202867Y0068000D01*
X0202867Y0067002D02*
X0201867Y0067002D01*
X0197245Y0071994D02*
X0188870Y0071994D01*
X0189868Y0072993D02*
X0197516Y0072993D01*
X0198045Y0073991D02*
X0190867Y0073991D01*
X0191865Y0074990D02*
X0198910Y0074990D01*
X0199533Y0075988D02*
X0192864Y0075988D01*
X0193862Y0076987D02*
X0198270Y0076987D01*
X0199102Y0056018D02*
X0178893Y0056018D01*
X0187586Y0055020D02*
X0198091Y0055020D01*
X0197302Y0054021D02*
X0188585Y0054021D01*
X0189567Y0053023D02*
X0196888Y0053023D01*
X0196567Y0052024D02*
X0189567Y0052024D01*
X0189567Y0051026D02*
X0196567Y0051026D01*
X0196567Y0050027D02*
X0190033Y0050027D01*
X0191032Y0049029D02*
X0196944Y0049029D01*
X0197357Y0048030D02*
X0192030Y0048030D01*
X0193029Y0047031D02*
X0198225Y0047031D01*
X0199138Y0046033D02*
X0194027Y0046033D01*
X0194908Y0045034D02*
X0198106Y0045034D01*
X0197308Y0044036D02*
X0195267Y0044036D01*
X0195267Y0043037D02*
X0196894Y0043037D01*
X0196567Y0042039D02*
X0195267Y0042039D01*
X0195267Y0041040D02*
X0196567Y0041040D01*
X0196567Y0040042D02*
X0195267Y0040042D01*
X0195267Y0039043D02*
X0196938Y0039043D01*
X0197351Y0038045D02*
X0195267Y0038045D01*
X0195267Y0037046D02*
X0198210Y0037046D01*
X0199389Y0036048D02*
X0195267Y0036048D01*
X0195267Y0035049D02*
X0198970Y0035049D01*
X0198088Y0034051D02*
X0195267Y0034051D01*
X0195267Y0033052D02*
X0197536Y0033052D01*
X0197254Y0032054D02*
X0195267Y0032054D01*
X0195282Y0031055D02*
X0201867Y0031055D01*
X0197266Y0030057D02*
X0195109Y0030057D01*
X0194469Y0029058D02*
X0197567Y0029058D01*
X0198143Y0028060D02*
X0193208Y0028060D01*
X0191948Y0027061D02*
X0199068Y0027061D01*
X0199210Y0026063D02*
X0190687Y0026063D01*
X0189427Y0025064D02*
X0198136Y0025064D01*
X0197320Y0024066D02*
X0188166Y0024066D01*
X0186906Y0023067D02*
X0196907Y0023067D01*
X0196567Y0022069D02*
X0185645Y0022069D01*
X0184384Y0021070D02*
X0196567Y0021070D01*
X0196567Y0020072D02*
X0187351Y0020072D01*
X0187441Y0019982D02*
X0187162Y0020261D01*
X0186820Y0020459D01*
X0186438Y0020561D01*
X0183756Y0020561D01*
X0183756Y0016577D01*
X0187741Y0016577D01*
X0187741Y0019259D01*
X0187638Y0019640D01*
X0187441Y0019982D01*
X0187741Y0019073D02*
X0196925Y0019073D01*
X0197339Y0018075D02*
X0187741Y0018075D01*
X0187741Y0017076D02*
X0198181Y0017076D01*
X0199246Y0016078D02*
X0183756Y0016078D01*
X0182788Y0016078D02*
X0178498Y0016078D01*
X0178498Y0016408D02*
X0178498Y0013993D01*
X0178804Y0013993D01*
X0178804Y0015608D01*
X0182788Y0015608D01*
X0182788Y0016577D01*
X0178804Y0016577D01*
X0178804Y0016650D01*
X0178498Y0016408D01*
X0178498Y0015079D02*
X0178804Y0015079D01*
X0178804Y0014081D02*
X0178498Y0014081D01*
X0182788Y0017076D02*
X0183756Y0017076D01*
X0183756Y0018075D02*
X0182788Y0018075D01*
X0182788Y0019073D02*
X0183756Y0019073D01*
X0183756Y0020072D02*
X0183124Y0020072D01*
X0187741Y0015079D02*
X0198151Y0015079D01*
X0197327Y0014081D02*
X0187741Y0014081D01*
X0197290Y0008193D02*
X0197290Y0008193D01*
X0164290Y0008193D01*
X0163224Y0008634D01*
X0162408Y0009450D01*
X0156165Y0015693D01*
X0145236Y0015693D01*
X0145998Y0014931D01*
X0145998Y0008193D01*
X0146304Y0008193D01*
X0146304Y0010608D01*
X0150288Y0010608D01*
X0150288Y0011577D01*
X0150288Y0015561D01*
X0147606Y0015561D01*
X0147225Y0015459D01*
X0146883Y0015261D01*
X0146603Y0014982D01*
X0146406Y0014640D01*
X0146304Y0014259D01*
X0146304Y0011577D01*
X0150288Y0011577D01*
X0151256Y0011577D01*
X0151256Y0015561D01*
X0153938Y0015561D01*
X0154320Y0015459D01*
X0154662Y0015261D01*
X0154941Y0014982D01*
X0155138Y0014640D01*
X0155241Y0014259D01*
X0155241Y0011577D01*
X0151256Y0011577D01*
X0151256Y0010608D01*
X0155241Y0010608D01*
X0155241Y0008193D01*
X0197290Y0008193D01*
X0163092Y0019073D02*
X0160987Y0019073D01*
X0159989Y0020072D02*
X0163092Y0020072D01*
X0163092Y0021070D02*
X0158963Y0021070D01*
X0161986Y0018075D02*
X0162860Y0018075D01*
X0158776Y0013082D02*
X0155241Y0013082D01*
X0155241Y0012084D02*
X0159774Y0012084D01*
X0160773Y0011085D02*
X0151256Y0011085D01*
X0150288Y0011085D02*
X0145998Y0011085D01*
X0145998Y0010087D02*
X0146304Y0010087D01*
X0146304Y0009088D02*
X0145998Y0009088D01*
X0145998Y0012084D02*
X0146304Y0012084D01*
X0146304Y0013082D02*
X0145998Y0013082D01*
X0145998Y0014081D02*
X0146304Y0014081D01*
X0146700Y0015079D02*
X0145850Y0015079D01*
X0150288Y0015079D02*
X0151256Y0015079D01*
X0151256Y0014081D02*
X0150288Y0014081D01*
X0150288Y0013082D02*
X0151256Y0013082D01*
X0151256Y0012084D02*
X0150288Y0012084D01*
X0155241Y0014081D02*
X0157777Y0014081D01*
X0156779Y0015079D02*
X0154844Y0015079D01*
X0155241Y0010087D02*
X0161771Y0010087D01*
X0162770Y0009088D02*
X0155241Y0009088D01*
X0116018Y0028060D02*
X0112767Y0028060D01*
X0112767Y0027061D02*
X0114699Y0027061D01*
X0113963Y0026063D02*
X0112767Y0026063D01*
X0112767Y0025064D02*
X0113549Y0025064D01*
X0102091Y0015216D02*
X0102163Y0015042D01*
X0102338Y0014561D01*
X0102383Y0014511D01*
X0102408Y0014450D01*
X0102771Y0014087D01*
X0103116Y0013709D01*
X0103177Y0013681D01*
X0108665Y0008193D01*
X0011967Y0008193D01*
X0011967Y0037346D01*
X0012920Y0036393D01*
X0016813Y0036393D01*
X0019567Y0039146D01*
X0019567Y0043039D01*
X0016813Y0045793D01*
X0012920Y0045793D01*
X0011967Y0044839D01*
X0011967Y0066772D01*
X0012141Y0066645D01*
X0012871Y0066273D01*
X0013649Y0066021D01*
X0014367Y0065907D01*
X0014367Y0070592D01*
X0015367Y0070592D01*
X0015367Y0065907D01*
X0016084Y0066021D01*
X0016863Y0066273D01*
X0017592Y0066645D01*
X0018254Y0067126D01*
X0018833Y0067705D01*
X0019314Y0068367D01*
X0019686Y0069096D01*
X0019939Y0069875D01*
X0020052Y0070593D01*
X0015367Y0070593D01*
X0015367Y0071592D01*
X0020052Y0071592D01*
X0020012Y0071846D01*
X0020599Y0071259D01*
X0021665Y0070818D01*
X0063790Y0070818D01*
X0066217Y0068391D01*
X0066217Y0048641D01*
X0066658Y0047575D01*
X0069474Y0044759D01*
X0070540Y0044318D01*
X0082069Y0044318D01*
X0083134Y0044759D01*
X0083627Y0045251D01*
X0083433Y0044783D01*
X0083433Y0042914D01*
X0084148Y0041186D01*
X0085470Y0039864D01*
X0087198Y0039148D01*
X0094268Y0039148D01*
X0094842Y0039386D01*
X0094842Y0038311D01*
X0094268Y0038548D01*
X0090134Y0038548D01*
X0090131Y0038551D01*
X0089066Y0038993D01*
X0069290Y0038993D01*
X0068224Y0038551D01*
X0067408Y0037735D01*
X0053665Y0023993D01*
X0027455Y0023993D01*
X0027065Y0024383D01*
X0025639Y0024974D01*
X0024095Y0024974D01*
X0022668Y0024383D01*
X0021576Y0023291D01*
X0020986Y0021865D01*
X0020986Y0020321D01*
X0021576Y0018894D01*
X0022668Y0017802D01*
X0024095Y0017211D01*
X0025639Y0017211D01*
X0027065Y0017802D01*
X0027455Y0018193D01*
X0055444Y0018193D01*
X0056509Y0018634D01*
X0071068Y0033193D01*
X0083433Y0033193D01*
X0083433Y0032914D01*
X0084148Y0031186D01*
X0085470Y0029864D01*
X0087198Y0029148D01*
X0090821Y0029148D01*
X0090221Y0028548D01*
X0087198Y0028548D01*
X0085470Y0027833D01*
X0084148Y0026511D01*
X0083433Y0024783D01*
X0083433Y0022914D01*
X0084148Y0021186D01*
X0085470Y0019864D01*
X0087198Y0019148D01*
X0094268Y0019148D01*
X0095995Y0019864D01*
X0097317Y0021186D01*
X0098033Y0022914D01*
X0098033Y0024783D01*
X0097317Y0026511D01*
X0096852Y0026976D01*
X0099342Y0029466D01*
X0099342Y0020669D01*
X0096250Y0017578D01*
X0095995Y0017833D01*
X0094268Y0018548D01*
X0087198Y0018548D01*
X0085470Y0017833D01*
X0084148Y0016511D01*
X0083433Y0014783D01*
X0083433Y0012914D01*
X0084148Y0011186D01*
X0085470Y0009864D01*
X0087198Y0009148D01*
X0094268Y0009148D01*
X0095995Y0009864D01*
X0097317Y0011186D01*
X0097320Y0011193D01*
X0097444Y0011193D01*
X0098509Y0011634D01*
X0099325Y0012450D01*
X0102091Y0015216D01*
X0102147Y0015079D02*
X0101954Y0015079D01*
X0102777Y0014081D02*
X0100956Y0014081D01*
X0099957Y0013082D02*
X0103776Y0013082D01*
X0104774Y0012084D02*
X0098959Y0012084D01*
X0097216Y0011085D02*
X0105773Y0011085D01*
X0106771Y0010087D02*
X0096218Y0010087D01*
X0096748Y0018075D02*
X0095411Y0018075D01*
X0096203Y0020072D02*
X0098745Y0020072D01*
X0099342Y0021070D02*
X0097201Y0021070D01*
X0097683Y0022069D02*
X0099342Y0022069D01*
X0099342Y0023067D02*
X0098033Y0023067D01*
X0098033Y0024066D02*
X0099342Y0024066D01*
X0099342Y0025064D02*
X0097916Y0025064D01*
X0097503Y0026063D02*
X0099342Y0026063D01*
X0099342Y0027061D02*
X0096937Y0027061D01*
X0097935Y0028060D02*
X0099342Y0028060D01*
X0099342Y0029058D02*
X0098934Y0029058D01*
X0090731Y0029058D02*
X0066934Y0029058D01*
X0067932Y0030057D02*
X0085278Y0030057D01*
X0084279Y0031055D02*
X0068931Y0031055D01*
X0069929Y0032054D02*
X0083789Y0032054D01*
X0083433Y0033052D02*
X0070928Y0033052D01*
X0066719Y0037046D02*
X0054567Y0037046D01*
X0054567Y0038039D02*
X0051813Y0040793D01*
X0047920Y0040793D01*
X0046120Y0038993D01*
X0031068Y0038993D01*
X0029567Y0040494D01*
X0029567Y0043039D01*
X0026813Y0045793D01*
X0022920Y0045793D01*
X0020167Y0043039D01*
X0020167Y0039146D01*
X0022920Y0036393D01*
X0025465Y0036393D01*
X0028224Y0033634D01*
X0029290Y0033193D01*
X0046120Y0033193D01*
X0047920Y0031393D01*
X0051813Y0031393D01*
X0054567Y0034146D01*
X0054567Y0038039D01*
X0054561Y0038045D02*
X0067718Y0038045D01*
X0067408Y0037735D02*
X0067408Y0037735D01*
X0065721Y0036048D02*
X0054567Y0036048D01*
X0054567Y0035049D02*
X0064722Y0035049D01*
X0063724Y0034051D02*
X0054472Y0034051D01*
X0053473Y0033052D02*
X0062725Y0033052D01*
X0061727Y0032054D02*
X0052475Y0032054D01*
X0056734Y0027061D02*
X0011967Y0027061D01*
X0011967Y0026063D02*
X0055736Y0026063D01*
X0054737Y0025064D02*
X0011967Y0025064D01*
X0011967Y0024066D02*
X0022351Y0024066D01*
X0021484Y0023067D02*
X0011967Y0023067D01*
X0011967Y0022069D02*
X0021070Y0022069D01*
X0020986Y0021070D02*
X0011967Y0021070D01*
X0011967Y0020072D02*
X0021089Y0020072D01*
X0021502Y0019073D02*
X0011967Y0019073D01*
X0011967Y0018075D02*
X0022396Y0018075D01*
X0027337Y0018075D02*
X0086054Y0018075D01*
X0084714Y0017076D02*
X0011967Y0017076D01*
X0011967Y0016078D02*
X0083969Y0016078D01*
X0083555Y0015079D02*
X0011967Y0015079D01*
X0011967Y0014081D02*
X0083433Y0014081D01*
X0083433Y0013082D02*
X0011967Y0013082D01*
X0011967Y0012084D02*
X0083777Y0012084D01*
X0084249Y0011085D02*
X0011967Y0011085D01*
X0011967Y0010087D02*
X0085248Y0010087D01*
X0085263Y0020072D02*
X0057947Y0020072D01*
X0058946Y0021070D02*
X0084264Y0021070D01*
X0083783Y0022069D02*
X0059944Y0022069D01*
X0060943Y0023067D02*
X0083433Y0023067D01*
X0083433Y0024066D02*
X0061941Y0024066D01*
X0062940Y0025064D02*
X0083549Y0025064D01*
X0083963Y0026063D02*
X0063938Y0026063D01*
X0064937Y0027061D02*
X0084699Y0027061D01*
X0086018Y0028060D02*
X0065935Y0028060D01*
X0060728Y0031055D02*
X0011967Y0031055D01*
X0011967Y0030057D02*
X0059730Y0030057D01*
X0058731Y0029058D02*
X0011967Y0029058D01*
X0011967Y0028060D02*
X0057733Y0028060D01*
X0053739Y0024066D02*
X0027382Y0024066D01*
X0027807Y0034051D02*
X0011967Y0034051D01*
X0011967Y0035049D02*
X0026809Y0035049D01*
X0025810Y0036048D02*
X0011967Y0036048D01*
X0011967Y0037046D02*
X0012266Y0037046D01*
X0011967Y0033052D02*
X0046260Y0033052D01*
X0047259Y0032054D02*
X0011967Y0032054D01*
X0017467Y0037046D02*
X0022266Y0037046D01*
X0021267Y0038045D02*
X0018466Y0038045D01*
X0019464Y0039043D02*
X0020269Y0039043D01*
X0020167Y0040042D02*
X0019567Y0040042D01*
X0019567Y0041040D02*
X0020167Y0041040D01*
X0020167Y0042039D02*
X0019567Y0042039D01*
X0019567Y0043037D02*
X0020167Y0043037D01*
X0021163Y0044036D02*
X0018570Y0044036D01*
X0017571Y0045034D02*
X0022162Y0045034D01*
X0027571Y0045034D02*
X0069198Y0045034D01*
X0068200Y0046033D02*
X0011967Y0046033D01*
X0011967Y0047031D02*
X0067201Y0047031D01*
X0066470Y0048030D02*
X0011967Y0048030D01*
X0011967Y0049029D02*
X0066217Y0049029D01*
X0066217Y0050027D02*
X0011967Y0050027D01*
X0011967Y0051026D02*
X0066217Y0051026D01*
X0066217Y0052024D02*
X0011967Y0052024D01*
X0011967Y0053023D02*
X0066217Y0053023D01*
X0066217Y0054021D02*
X0011967Y0054021D01*
X0011967Y0055020D02*
X0066217Y0055020D01*
X0066217Y0056018D02*
X0011967Y0056018D01*
X0011967Y0057017D02*
X0066217Y0057017D01*
X0066217Y0058015D02*
X0011967Y0058015D01*
X0011967Y0059014D02*
X0066217Y0059014D01*
X0066217Y0060012D02*
X0011967Y0060012D01*
X0011967Y0061011D02*
X0066217Y0061011D01*
X0066217Y0062009D02*
X0051582Y0062009D01*
X0051565Y0061993D02*
X0053967Y0064394D01*
X0053967Y0065792D01*
X0050167Y0065792D01*
X0050167Y0061993D01*
X0051565Y0061993D01*
X0050167Y0062009D02*
X0049567Y0062009D01*
X0049567Y0061993D02*
X0049567Y0065792D01*
X0050167Y0065792D01*
X0050167Y0066393D01*
X0049567Y0066393D01*
X0049567Y0070192D01*
X0048168Y0070193D01*
X0045767Y0067791D01*
X0045767Y0066393D01*
X0049567Y0066393D01*
X0049567Y0065792D01*
X0045767Y0065792D01*
X0045767Y0064394D01*
X0048168Y0061993D01*
X0049567Y0061993D01*
X0049567Y0063008D02*
X0050167Y0063008D01*
X0050167Y0064006D02*
X0049567Y0064006D01*
X0049567Y0065005D02*
X0050167Y0065005D01*
X0050167Y0066003D02*
X0066217Y0066003D01*
X0066217Y0065005D02*
X0053967Y0065005D01*
X0053579Y0064006D02*
X0066217Y0064006D01*
X0066217Y0063008D02*
X0052580Y0063008D01*
X0053967Y0066393D02*
X0050167Y0066393D01*
X0050167Y0070193D01*
X0051565Y0070193D01*
X0053967Y0067791D01*
X0053967Y0066393D01*
X0053967Y0067002D02*
X0066217Y0067002D01*
X0066217Y0068000D02*
X0053757Y0068000D01*
X0052759Y0068999D02*
X0065609Y0068999D01*
X0064611Y0069997D02*
X0051760Y0069997D01*
X0050167Y0069997D02*
X0049567Y0069997D01*
X0049567Y0068999D02*
X0050167Y0068999D01*
X0050167Y0068000D02*
X0049567Y0068000D01*
X0049567Y0067002D02*
X0050167Y0067002D01*
X0049567Y0066003D02*
X0015975Y0066003D01*
X0015367Y0066003D02*
X0014367Y0066003D01*
X0013759Y0066003D02*
X0011967Y0066003D01*
X0011967Y0065005D02*
X0045767Y0065005D01*
X0046155Y0064006D02*
X0011967Y0064006D01*
X0011967Y0063008D02*
X0047153Y0063008D01*
X0048152Y0062009D02*
X0011967Y0062009D01*
X0014367Y0067002D02*
X0015367Y0067002D01*
X0015367Y0068000D02*
X0014367Y0068000D01*
X0014367Y0068999D02*
X0015367Y0068999D01*
X0015367Y0069997D02*
X0014367Y0069997D01*
X0015367Y0070996D02*
X0021234Y0070996D01*
X0019958Y0069997D02*
X0047973Y0069997D01*
X0046975Y0068999D02*
X0019636Y0068999D01*
X0019048Y0068000D02*
X0045976Y0068000D01*
X0045767Y0067002D02*
X0018083Y0067002D01*
X0023074Y0076987D02*
X0064160Y0076987D01*
X0065158Y0077985D02*
X0022075Y0077985D01*
X0021077Y0078984D02*
X0066157Y0078984D01*
X0067155Y0079982D02*
X0020667Y0079982D01*
X0020667Y0080981D02*
X0068154Y0080981D01*
X0069152Y0081979D02*
X0020667Y0081979D01*
X0020364Y0082978D02*
X0070151Y0082978D01*
X0071149Y0083976D02*
X0019950Y0083976D01*
X0019187Y0084975D02*
X0072148Y0084975D01*
X0073146Y0085973D02*
X0018188Y0085973D01*
X0018949Y0086972D02*
X0074145Y0086972D01*
X0075143Y0087970D02*
X0019851Y0087970D01*
X0020265Y0088969D02*
X0076142Y0088969D01*
X0077140Y0089967D02*
X0020667Y0089967D01*
X0020667Y0090966D02*
X0078139Y0090966D01*
X0083433Y0092963D02*
X0020370Y0092963D01*
X0020667Y0091964D02*
X0083826Y0091964D01*
X0083433Y0093962D02*
X0019956Y0093962D01*
X0019202Y0094960D02*
X0083506Y0094960D01*
X0083920Y0095959D02*
X0018203Y0095959D01*
X0018934Y0096957D02*
X0084595Y0096957D01*
X0095699Y0097956D02*
X0115767Y0097956D01*
X0114595Y0096957D02*
X0096871Y0096957D01*
X0097546Y0095959D02*
X0098927Y0095959D01*
X0096084Y0099953D02*
X0115382Y0099953D01*
X0114383Y0100951D02*
X0097082Y0100951D01*
X0097634Y0101950D02*
X0113832Y0101950D01*
X0113433Y0102948D02*
X0098033Y0102948D01*
X0098033Y0103947D02*
X0113433Y0103947D01*
X0113500Y0104945D02*
X0097966Y0104945D01*
X0097552Y0105944D02*
X0113913Y0105944D01*
X0114580Y0106942D02*
X0096886Y0106942D01*
X0095735Y0107941D02*
X0115731Y0107941D01*
X0115397Y0109938D02*
X0096069Y0109938D01*
X0095995Y0109864D02*
X0097317Y0111186D01*
X0098033Y0112914D01*
X0098033Y0114783D01*
X0097317Y0116511D01*
X0095995Y0117833D01*
X0094268Y0118548D01*
X0087198Y0118548D01*
X0085470Y0117833D01*
X0084148Y0116511D01*
X0083433Y0114783D01*
X0083433Y0112914D01*
X0084148Y0111186D01*
X0085470Y0109864D01*
X0087198Y0109148D01*
X0094268Y0109148D01*
X0095995Y0109864D01*
X0097067Y0110936D02*
X0114398Y0110936D01*
X0113838Y0111935D02*
X0097627Y0111935D01*
X0098033Y0112933D02*
X0113433Y0112933D01*
X0113433Y0113932D02*
X0098033Y0113932D01*
X0097972Y0114930D02*
X0113494Y0114930D01*
X0113907Y0115929D02*
X0097558Y0115929D01*
X0096901Y0116927D02*
X0114565Y0116927D01*
X0115695Y0117926D02*
X0095771Y0117926D01*
X0096054Y0119923D02*
X0115412Y0119923D01*
X0114413Y0120921D02*
X0097052Y0120921D01*
X0097621Y0121920D02*
X0113844Y0121920D01*
X0113433Y0122918D02*
X0098033Y0122918D01*
X0098033Y0123917D02*
X0113433Y0123917D01*
X0113487Y0124915D02*
X0097978Y0124915D01*
X0097565Y0125914D02*
X0113901Y0125914D01*
X0114550Y0126912D02*
X0096916Y0126912D01*
X0095807Y0127911D02*
X0115659Y0127911D01*
X0116559Y0130049D02*
X0117173Y0129849D01*
X0117810Y0129748D01*
X0120433Y0129748D01*
X0120433Y0133548D01*
X0114033Y0133548D01*
X0114033Y0133526D01*
X0114134Y0132888D01*
X0114333Y0132275D01*
X0114626Y0131700D01*
X0115005Y0131177D01*
X0115462Y0130721D01*
X0115984Y0130342D01*
X0116559Y0130049D01*
X0116993Y0129908D02*
X0096039Y0129908D01*
X0095995Y0129864D02*
X0097317Y0131186D01*
X0098033Y0132914D01*
X0098033Y0134783D01*
X0097317Y0136511D01*
X0095995Y0137833D01*
X0094268Y0138548D01*
X0087198Y0138548D01*
X0085470Y0137833D01*
X0084148Y0136511D01*
X0083433Y0134783D01*
X0083433Y0132914D01*
X0084148Y0131186D01*
X0085470Y0129864D01*
X0087198Y0129148D01*
X0094268Y0129148D01*
X0095995Y0129864D01*
X0097038Y0130906D02*
X0115277Y0130906D01*
X0114522Y0131905D02*
X0097615Y0131905D01*
X0098029Y0132903D02*
X0114131Y0132903D01*
X0114164Y0134900D02*
X0097984Y0134900D01*
X0098033Y0133902D02*
X0120433Y0133902D01*
X0120433Y0132903D02*
X0121033Y0132903D01*
X0121033Y0131905D02*
X0120433Y0131905D01*
X0120433Y0130906D02*
X0121033Y0130906D01*
X0121033Y0129908D02*
X0120433Y0129908D01*
X0126916Y0126912D02*
X0154946Y0126912D01*
X0155944Y0125914D02*
X0127565Y0125914D01*
X0127978Y0124915D02*
X0156943Y0124915D01*
X0157941Y0123917D02*
X0128033Y0123917D01*
X0128033Y0122918D02*
X0158940Y0122918D01*
X0159938Y0121920D02*
X0127621Y0121920D01*
X0127052Y0120921D02*
X0160937Y0120921D01*
X0161935Y0119923D02*
X0126054Y0119923D01*
X0113791Y0135899D02*
X0097571Y0135899D01*
X0096931Y0136898D02*
X0112460Y0136898D01*
X0111462Y0137896D02*
X0095843Y0137896D01*
X0096024Y0139893D02*
X0109465Y0139893D01*
X0110463Y0138895D02*
X0020234Y0138895D01*
X0020648Y0139893D02*
X0085441Y0139893D01*
X0084443Y0140892D02*
X0020667Y0140892D01*
X0020667Y0141890D02*
X0083857Y0141890D01*
X0083443Y0142889D02*
X0020401Y0142889D01*
X0019987Y0143887D02*
X0083433Y0143887D01*
X0083475Y0144886D02*
X0019276Y0144886D01*
X0018277Y0145884D02*
X0083889Y0145884D01*
X0084520Y0146883D02*
X0016044Y0146883D01*
X0013689Y0146883D02*
X0011967Y0146883D01*
X0011967Y0147881D02*
X0085587Y0147881D01*
X0085623Y0137896D02*
X0019820Y0137896D01*
X0018874Y0136898D02*
X0084535Y0136898D01*
X0083895Y0135899D02*
X0018263Y0135899D01*
X0019261Y0134900D02*
X0083481Y0134900D01*
X0083433Y0133902D02*
X0019981Y0133902D01*
X0020394Y0132903D02*
X0083437Y0132903D01*
X0083851Y0131905D02*
X0020667Y0131905D01*
X0020667Y0130906D02*
X0084428Y0130906D01*
X0085426Y0129908D02*
X0020654Y0129908D01*
X0018904Y0116927D02*
X0084565Y0116927D01*
X0083907Y0115929D02*
X0018233Y0115929D01*
X0019231Y0114930D02*
X0083494Y0114930D01*
X0083433Y0113932D02*
X0019968Y0113932D01*
X0020382Y0112933D02*
X0083433Y0112933D01*
X0083838Y0111935D02*
X0020667Y0111935D01*
X0020667Y0110936D02*
X0084398Y0110936D01*
X0085397Y0109938D02*
X0020666Y0109938D01*
X0011967Y0148880D02*
X0037978Y0148880D01*
X0036980Y0149878D02*
X0011967Y0149878D01*
X0011967Y0150877D02*
X0035981Y0150877D01*
X0034983Y0151875D02*
X0011967Y0151875D01*
X0011967Y0152874D02*
X0033984Y0152874D01*
X0032986Y0153872D02*
X0011967Y0153872D01*
X0011967Y0154871D02*
X0031987Y0154871D01*
X0030989Y0155869D02*
X0011967Y0155869D01*
X0011967Y0156868D02*
X0030235Y0156868D01*
X0029967Y0157866D02*
X0011967Y0157866D01*
X0011967Y0158865D02*
X0029967Y0158865D01*
X0029967Y0159863D02*
X0011967Y0159863D01*
X0011967Y0160862D02*
X0020429Y0160862D01*
X0018549Y0161860D02*
X0011967Y0161860D01*
X0011967Y0162859D02*
X0017551Y0162859D01*
X0016671Y0163857D02*
X0011967Y0163857D01*
X0011967Y0164856D02*
X0016258Y0164856D01*
X0015844Y0165854D02*
X0011967Y0165854D01*
X0011967Y0166853D02*
X0015582Y0166853D01*
X0015582Y0167851D02*
X0011967Y0167851D01*
X0011967Y0168850D02*
X0015582Y0168850D01*
X0015703Y0169848D02*
X0011967Y0169848D01*
X0011967Y0170847D02*
X0016117Y0170847D01*
X0016530Y0171845D02*
X0011967Y0171845D01*
X0011967Y0172844D02*
X0017210Y0172844D01*
X0018209Y0173842D02*
X0011967Y0173842D01*
X0011967Y0174841D02*
X0019607Y0174841D01*
X0025986Y0180832D02*
X0011967Y0180832D01*
X0011967Y0179833D02*
X0026187Y0179833D01*
X0026635Y0178835D02*
X0011967Y0178835D01*
X0011967Y0177836D02*
X0027634Y0177836D01*
X0029967Y0176838D02*
X0011967Y0176838D01*
X0011967Y0175839D02*
X0029967Y0175839D01*
X0029967Y0174841D02*
X0026976Y0174841D01*
X0028375Y0173842D02*
X0029967Y0173842D01*
X0029967Y0172844D02*
X0029374Y0172844D01*
X0034228Y0180832D02*
X0034245Y0180832D01*
X0034658Y0181831D02*
X0033748Y0181831D01*
X0033348Y0182829D02*
X0034747Y0182829D01*
X0034296Y0183828D02*
X0032620Y0183828D01*
X0033971Y0184826D02*
X0030995Y0184826D01*
X0028738Y0184826D02*
X0011967Y0184826D01*
X0011967Y0183828D02*
X0027113Y0183828D01*
X0026385Y0182829D02*
X0011967Y0182829D01*
X0011967Y0181831D02*
X0025986Y0181831D01*
X0026677Y0189819D02*
X0036757Y0189819D01*
X0035314Y0188820D02*
X0011967Y0188820D01*
X0011967Y0187822D02*
X0034531Y0187822D01*
X0034117Y0186823D02*
X0011967Y0186823D01*
X0011967Y0185825D02*
X0033971Y0185825D01*
X0039191Y0190817D02*
X0028251Y0190817D01*
X0029250Y0191816D02*
X0039884Y0191816D01*
X0041109Y0192814D02*
X0030002Y0192814D01*
X0030416Y0193813D02*
X0051255Y0193813D01*
X0051255Y0194811D02*
X0030829Y0194811D01*
X0031002Y0195810D02*
X0051255Y0195810D01*
X0051255Y0196808D02*
X0031002Y0196808D01*
X0031002Y0197807D02*
X0051255Y0197807D01*
X0051255Y0198805D02*
X0030791Y0198805D01*
X0030377Y0199804D02*
X0051255Y0199804D01*
X0052126Y0200802D02*
X0029964Y0200802D01*
X0019906Y0189819D02*
X0011967Y0189819D01*
X0011967Y0190817D02*
X0018333Y0190817D01*
X0017334Y0191816D02*
X0011967Y0191816D01*
X0011967Y0192814D02*
X0016582Y0192814D01*
X0016168Y0193813D02*
X0011967Y0193813D01*
X0011967Y0194811D02*
X0015754Y0194811D01*
X0015582Y0195810D02*
X0011967Y0195810D01*
X0011967Y0196808D02*
X0015582Y0196808D01*
X0015582Y0197807D02*
X0011967Y0197807D01*
X0011967Y0198805D02*
X0015793Y0198805D01*
X0016206Y0199804D02*
X0011967Y0199804D01*
X0011967Y0200802D02*
X0016620Y0200802D01*
X0045632Y0192814D02*
X0051255Y0192814D01*
X0051693Y0191816D02*
X0046857Y0191816D01*
X0047422Y0184826D02*
X0075624Y0184826D01*
X0074625Y0183828D02*
X0047836Y0183828D01*
X0048045Y0182829D02*
X0073627Y0182829D01*
X0072628Y0181831D02*
X0048045Y0181831D01*
X0047784Y0180832D02*
X0071630Y0180832D01*
X0070631Y0179833D02*
X0047371Y0179833D01*
X0046773Y0173842D02*
X0065970Y0173842D01*
X0065167Y0172844D02*
X0045832Y0172844D01*
X0035767Y0164856D02*
X0112832Y0164856D01*
X0111833Y0163857D02*
X0035767Y0163857D01*
X0035767Y0162859D02*
X0110835Y0162859D01*
X0110767Y0161860D02*
X0035767Y0161860D01*
X0035767Y0160862D02*
X0114567Y0160862D01*
X0114567Y0160792D02*
X0110767Y0160792D01*
X0110767Y0159394D01*
X0113168Y0156993D01*
X0114567Y0156993D01*
X0114567Y0160792D01*
X0114567Y0159863D02*
X0115167Y0159863D01*
X0115167Y0158865D02*
X0114567Y0158865D01*
X0114567Y0157866D02*
X0115167Y0157866D01*
X0117439Y0157866D02*
X0132367Y0157866D01*
X0133365Y0156868D02*
X0038193Y0156868D01*
X0039191Y0155869D02*
X0134364Y0155869D01*
X0134467Y0154871D02*
X0110887Y0154871D01*
X0112576Y0153872D02*
X0134467Y0153872D01*
X0134784Y0152874D02*
X0113330Y0152874D01*
X0113743Y0151875D02*
X0135608Y0151875D01*
X0136981Y0150877D02*
X0113748Y0150877D01*
X0113565Y0149878D02*
X0137980Y0149878D01*
X0138978Y0148880D02*
X0113142Y0148880D01*
X0112144Y0147881D02*
X0115587Y0147881D01*
X0114520Y0146883D02*
X0096945Y0146883D01*
X0095879Y0147881D02*
X0107589Y0147881D01*
X0111676Y0145884D02*
X0113889Y0145884D01*
X0113475Y0144886D02*
X0112675Y0144886D01*
X0108466Y0140892D02*
X0097023Y0140892D01*
X0108846Y0154871D02*
X0040190Y0154871D01*
X0037194Y0157866D02*
X0112295Y0157866D01*
X0111296Y0158865D02*
X0036196Y0158865D01*
X0035767Y0159863D02*
X0110767Y0159863D01*
X0112460Y0166853D02*
X0072274Y0166853D01*
X0073272Y0167851D02*
X0077310Y0167851D01*
X0076311Y0168850D02*
X0074271Y0168850D01*
X0074567Y0169848D02*
X0075767Y0169848D01*
X0082915Y0173842D02*
X0108016Y0173842D01*
X0109014Y0172844D02*
X0083914Y0172844D01*
X0083967Y0171845D02*
X0110013Y0171845D01*
X0114567Y0182829D02*
X0115167Y0182829D01*
X0115167Y0183828D02*
X0114567Y0183828D01*
X0114567Y0184826D02*
X0115167Y0184826D01*
X0115167Y0186823D02*
X0114567Y0186823D01*
X0114567Y0187822D02*
X0115167Y0187822D01*
X0115167Y0188820D02*
X0114567Y0188820D01*
X0114567Y0189819D02*
X0115167Y0189819D01*
X0112794Y0189819D02*
X0107787Y0189819D01*
X0108786Y0188820D02*
X0111796Y0188820D01*
X0110797Y0187822D02*
X0109567Y0187822D01*
X0109567Y0186823D02*
X0110767Y0186823D01*
X0118400Y0183828D02*
X0138116Y0183828D01*
X0137118Y0184826D02*
X0118967Y0184826D01*
X0139667Y0184826D02*
X0140067Y0184826D01*
X0140067Y0183828D02*
X0139667Y0183828D01*
X0139667Y0185825D02*
X0140067Y0185825D01*
X0140067Y0186823D02*
X0139667Y0186823D01*
X0144567Y0174841D02*
X0145167Y0174841D01*
X0145167Y0173842D02*
X0144567Y0173842D01*
X0144567Y0172844D02*
X0145167Y0172844D01*
X0145167Y0171845D02*
X0144567Y0171845D01*
X0148967Y0169848D02*
X0150167Y0169848D01*
X0150463Y0168850D02*
X0148422Y0168850D01*
X0146565Y0160193D02*
X0145167Y0160193D01*
X0145167Y0156393D01*
X0148967Y0156393D01*
X0148967Y0157791D01*
X0146565Y0160193D01*
X0146894Y0159863D02*
X0151991Y0159863D01*
X0150992Y0158865D02*
X0147893Y0158865D01*
X0148891Y0157866D02*
X0150167Y0157866D01*
X0150167Y0156868D02*
X0148967Y0156868D01*
X0145167Y0156868D02*
X0144567Y0156868D01*
X0144567Y0157866D02*
X0145167Y0157866D01*
X0145167Y0158865D02*
X0144567Y0158865D01*
X0144567Y0159863D02*
X0145167Y0159863D01*
X0139977Y0147881D02*
X0125879Y0147881D01*
X0126945Y0146883D02*
X0140975Y0146883D01*
X0141974Y0145884D02*
X0127577Y0145884D01*
X0127990Y0144886D02*
X0142972Y0144886D01*
X0143971Y0143887D02*
X0128033Y0143887D01*
X0128022Y0142889D02*
X0144969Y0142889D01*
X0145968Y0141890D02*
X0127609Y0141890D01*
X0131368Y0158865D02*
X0118437Y0158865D01*
X0118967Y0159863D02*
X0130370Y0159863D01*
X0076103Y0191816D02*
X0075914Y0191816D01*
X0068229Y0191816D02*
X0068040Y0191816D01*
X0029967Y0163857D02*
X0029912Y0163857D01*
X0029967Y0162859D02*
X0029033Y0162859D01*
X0029967Y0161860D02*
X0028034Y0161860D01*
X0026154Y0160862D02*
X0029967Y0160862D01*
X0101093Y0089967D02*
X0115367Y0089967D01*
X0117198Y0078548D02*
X0115470Y0077833D01*
X0114148Y0076511D01*
X0113433Y0074783D01*
X0113433Y0072914D01*
X0114148Y0071186D01*
X0115470Y0069864D01*
X0117198Y0069148D01*
X0124268Y0069148D01*
X0125995Y0069864D01*
X0127317Y0071186D01*
X0128033Y0072914D01*
X0128033Y0074783D01*
X0127317Y0076511D01*
X0125995Y0077833D01*
X0124268Y0078548D01*
X0117198Y0078548D01*
X0114624Y0076987D02*
X0095988Y0076987D01*
X0096844Y0075988D02*
X0113932Y0075988D01*
X0113518Y0074990D02*
X0097273Y0074990D01*
X0097348Y0072993D02*
X0113433Y0072993D01*
X0113433Y0073991D02*
X0091033Y0073991D01*
X0090433Y0073991D02*
X0077586Y0073991D01*
X0072147Y0073991D02*
X0069367Y0073991D01*
X0069818Y0072993D02*
X0071298Y0072993D01*
X0070885Y0071994D02*
X0070816Y0071994D01*
X0072017Y0068000D02*
X0072025Y0068000D01*
X0072017Y0067002D02*
X0073690Y0067002D01*
X0072017Y0066003D02*
X0083938Y0066003D01*
X0083524Y0065005D02*
X0072017Y0065005D01*
X0072017Y0064006D02*
X0072956Y0064006D01*
X0074867Y0064006D02*
X0074867Y0064006D01*
X0074867Y0063008D02*
X0074867Y0063008D01*
X0074867Y0062009D02*
X0074867Y0062009D01*
X0074867Y0061011D02*
X0074867Y0061011D01*
X0074867Y0060012D02*
X0074867Y0060012D01*
X0074867Y0059014D02*
X0074867Y0059014D01*
X0074867Y0058015D02*
X0074867Y0058015D01*
X0076532Y0058015D02*
X0085910Y0058015D01*
X0084654Y0057017D02*
X0072017Y0057017D01*
X0072017Y0058015D02*
X0073201Y0058015D01*
X0072065Y0059014D02*
X0072017Y0059014D01*
X0072017Y0056018D02*
X0083944Y0056018D01*
X0083531Y0055020D02*
X0076439Y0055020D01*
X0077872Y0054021D02*
X0083433Y0054021D01*
X0083433Y0053023D02*
X0078553Y0053023D01*
X0078951Y0052024D02*
X0083801Y0052024D01*
X0081198Y0051026D02*
X0078951Y0051026D01*
X0073295Y0055020D02*
X0072017Y0055020D01*
X0077668Y0059014D02*
X0099342Y0059014D01*
X0105142Y0059014D02*
X0131797Y0059014D01*
X0132795Y0060012D02*
X0126143Y0060012D01*
X0125995Y0059864D02*
X0127317Y0061186D01*
X0128033Y0062914D01*
X0128033Y0064783D01*
X0127317Y0066511D01*
X0125995Y0067833D01*
X0124268Y0068548D01*
X0117198Y0068548D01*
X0115470Y0067833D01*
X0114148Y0066511D01*
X0113433Y0064783D01*
X0113433Y0062914D01*
X0114148Y0061186D01*
X0115470Y0059864D01*
X0117198Y0059148D01*
X0124268Y0059148D01*
X0125995Y0059864D01*
X0127142Y0061011D02*
X0133794Y0061011D01*
X0134792Y0062009D02*
X0127658Y0062009D01*
X0128033Y0063008D02*
X0135791Y0063008D01*
X0136789Y0064006D02*
X0128033Y0064006D01*
X0127941Y0065005D02*
X0137788Y0065005D01*
X0138786Y0066003D02*
X0127527Y0066003D01*
X0126826Y0067002D02*
X0139785Y0067002D01*
X0140783Y0068000D02*
X0125591Y0068000D01*
X0126128Y0069997D02*
X0142780Y0069997D01*
X0141782Y0068999D02*
X0113692Y0068999D01*
X0113748Y0068000D02*
X0115874Y0068000D01*
X0114639Y0067002D02*
X0113616Y0067002D01*
X0113938Y0066003D02*
X0113202Y0066003D01*
X0113524Y0065005D02*
X0112268Y0065005D01*
X0113433Y0064006D02*
X0109757Y0064006D01*
X0108758Y0063008D02*
X0113433Y0063008D01*
X0113807Y0062009D02*
X0107760Y0062009D01*
X0106761Y0061011D02*
X0114324Y0061011D01*
X0115322Y0060012D02*
X0105762Y0060012D01*
X0105142Y0058015D02*
X0130798Y0058015D01*
X0129800Y0057017D02*
X0125948Y0057017D01*
X0126824Y0056018D02*
X0128801Y0056018D01*
X0127803Y0055020D02*
X0127263Y0055020D01*
X0121033Y0055020D02*
X0120433Y0055020D01*
X0120433Y0056018D02*
X0121033Y0056018D01*
X0121033Y0057017D02*
X0120433Y0057017D01*
X0120433Y0054021D02*
X0112427Y0054021D01*
X0114641Y0056018D02*
X0105142Y0056018D01*
X0105142Y0057017D02*
X0115518Y0057017D01*
X0120433Y0053023D02*
X0121033Y0053023D01*
X0121033Y0052024D02*
X0120433Y0052024D01*
X0120433Y0051026D02*
X0121033Y0051026D01*
X0121033Y0050027D02*
X0120433Y0050027D01*
X0121812Y0049029D02*
X0113213Y0049029D01*
X0106967Y0048030D02*
X0105142Y0048030D01*
X0105142Y0049029D02*
X0106521Y0049029D01*
X0106967Y0047031D02*
X0105142Y0047031D01*
X0105142Y0046033D02*
X0106967Y0046033D01*
X0106967Y0045034D02*
X0105142Y0045034D01*
X0105142Y0044036D02*
X0106967Y0044036D01*
X0106967Y0043037D02*
X0105142Y0043037D01*
X0094842Y0039043D02*
X0053563Y0039043D01*
X0052564Y0040042D02*
X0085293Y0040042D01*
X0084294Y0041040D02*
X0029567Y0041040D01*
X0029567Y0042039D02*
X0083795Y0042039D01*
X0083433Y0043037D02*
X0029567Y0043037D01*
X0028570Y0044036D02*
X0083433Y0044036D01*
X0083410Y0045034D02*
X0083537Y0045034D01*
X0085322Y0060012D02*
X0078190Y0060012D01*
X0078351Y0061011D02*
X0084324Y0061011D01*
X0083807Y0062009D02*
X0078237Y0062009D01*
X0077777Y0063008D02*
X0083433Y0063008D01*
X0083433Y0064006D02*
X0076778Y0064006D01*
X0076043Y0067002D02*
X0084639Y0067002D01*
X0090433Y0069997D02*
X0091033Y0069997D01*
X0091033Y0070996D02*
X0090433Y0070996D01*
X0090433Y0071994D02*
X0091033Y0071994D01*
X0091033Y0072993D02*
X0090433Y0072993D01*
X0090433Y0074990D02*
X0091033Y0074990D01*
X0091033Y0075988D02*
X0090433Y0075988D01*
X0090433Y0076987D02*
X0091033Y0076987D01*
X0085352Y0079982D02*
X0075358Y0079982D01*
X0074359Y0078984D02*
X0137369Y0078984D01*
X0136956Y0079982D02*
X0126114Y0079982D01*
X0127112Y0080981D02*
X0136867Y0080981D01*
X0136867Y0081979D02*
X0127646Y0081979D01*
X0128033Y0082978D02*
X0137277Y0082978D01*
X0137887Y0083976D02*
X0128033Y0083976D01*
X0127953Y0084975D02*
X0138981Y0084975D01*
X0143753Y0084975D02*
X0146734Y0084975D01*
X0145735Y0083976D02*
X0144847Y0083976D01*
X0148567Y0080981D02*
X0153764Y0080981D01*
X0154763Y0081979D02*
X0152267Y0081979D01*
X0151997Y0082978D02*
X0155761Y0082978D01*
X0156760Y0083976D02*
X0150998Y0083976D01*
X0152267Y0079982D02*
X0152766Y0079982D01*
X0148567Y0079982D02*
X0148167Y0079982D01*
X0148167Y0078984D02*
X0148567Y0078984D01*
X0148567Y0077985D02*
X0148167Y0077985D01*
X0149770Y0076987D02*
X0143214Y0076987D01*
X0144623Y0077985D02*
X0145958Y0077985D01*
X0148771Y0075988D02*
X0127534Y0075988D01*
X0127947Y0074990D02*
X0147773Y0074990D01*
X0146774Y0073991D02*
X0128033Y0073991D01*
X0128033Y0072993D02*
X0145776Y0072993D01*
X0144777Y0071994D02*
X0127652Y0071994D01*
X0127127Y0070996D02*
X0143779Y0070996D01*
X0139520Y0076987D02*
X0126841Y0076987D01*
X0125627Y0077985D02*
X0138110Y0077985D01*
X0115337Y0069997D02*
X0113279Y0069997D01*
X0112452Y0070996D02*
X0114339Y0070996D01*
X0113814Y0071994D02*
X0096990Y0071994D01*
X0084354Y0080981D02*
X0076356Y0080981D01*
X0077355Y0081979D02*
X0083820Y0081979D01*
X0083433Y0082978D02*
X0078353Y0082978D01*
X0079352Y0083976D02*
X0083433Y0083976D01*
X0083512Y0084975D02*
X0080350Y0084975D01*
X0047169Y0040042D02*
X0030018Y0040042D01*
X0031017Y0039043D02*
X0046171Y0039043D01*
X0056949Y0019073D02*
X0097746Y0019073D01*
X0107770Y0009088D02*
X0011967Y0009088D01*
X0011967Y0045034D02*
X0012162Y0045034D01*
D23*
X0024867Y0021093D03*
X0046867Y0082093D03*
X0105867Y0038593D03*
X0109867Y0051093D03*
X0109867Y0068093D03*
X0132367Y0026093D03*
X0165992Y0015718D03*
X0171867Y0044093D03*
X0172367Y0113593D03*
X0109867Y0151093D03*
X0029867Y0181093D03*
M02*
